<svg xmlns="http://www.w3.org/2000/svg" viewBox="0 0 2292 1667" width="2292" height="1667">
	<defs>
		<clipPath clipPathUnits="userSpaceOnUse" id="cp1">
			<path d="M0 0L2292 0L2292 1667L0 1667Z" />
		</clipPath>
		<clipPath clipPathUnits="userSpaceOnUse" id="cp2">
			<path d="M218.41 422.32L453.73 422.32L453.73 396.64L218.41 396.64L218.41 422.32Z" />
		</clipPath>
		<clipPath clipPathUnits="userSpaceOnUse" id="cp3">
			<path d="M306.51 295.38L337.76 295.38L337.76 263.5L306.51 263.5L306.51 295.38Z" />
		</clipPath>
		<clipPath clipPathUnits="userSpaceOnUse" id="cp4">
			<path d="M219.71 768.25L505.25 768.25L505.25 742.9L219.71 742.9L219.71 768.25Z" />
		</clipPath>
		<clipPath clipPathUnits="userSpaceOnUse" id="cp5">
			<path d="M1280.08 1117.27L1692.97 1117.27L1692.97 497.23L1280.08 497.23L1280.08 1117.27Z" />
		</clipPath>
		<clipPath clipPathUnits="userSpaceOnUse" id="cp6">
			<path d="M1280.08 1117.27L1536.97 1117.27L1536.97 642.5L1280.08 642.5L1280.08 1117.27Z" />
		</clipPath>
		<clipPath clipPathUnits="userSpaceOnUse" id="cp7">
			<path d="M1832.36 945.67L2115.4 945.67L2115.4 541.97L1832.36 541.97L1832.36 945.67Z" />
		</clipPath>
		<clipPath clipPathUnits="userSpaceOnUse" id="cp8">
			<path d="M714.04 1284.01L925.79 1284.01L925.79 1044.52L714.04 1044.52L714.04 1284.01Z" />
		</clipPath>
		<clipPath clipPathUnits="userSpaceOnUse" id="cp9">
			<path d="M681 1005.04L1159.78 1005.04L1159.78 973.36L681 973.36L681 1005.04Z" />
		</clipPath>
		<clipPath clipPathUnits="userSpaceOnUse" id="cp10">
			<path d="M898.7 1287.15L915 1287.15L915 993.56L898.7 993.56L898.7 1287.15Z" />
		</clipPath>
	</defs>
	<style>
		tspan { white-space:pre }
		.shp0 { fill: #f7e2e7 } 
		.shp1 { fill: #efbfa5 } 
		.shp2 { fill: #353a85 } 
		.shp3 { fill: #292949 } 
		.shp4 { fill: #babcbe } 
		.shp5 { fill: #d67086 } 
		.shp6 { fill: #5d66d3 } 
		.shp7 { fill: #eed5d5 } 
		.shp8 { fill: #9eb79c } 
		.shp9 { fill: #b0c0ba } 
		.shp10 { fill: #8cabef } 
		.shp11 { fill: #3b3387 } 
		.shp12 { fill: #dddae8 } 
		.shp13 { fill: #474ebb } 
		.shp14 { fill: #242440 } 
		.shp15 { fill: #ba6275 } 
		.shp16 { fill: #cfbab9 } 
		.shp17 { fill: #6e7fdd } 
		.shp18 { fill: #2f3476 } 
		.shp19 { fill: #a6a7a9 } 
		.shp20 { fill: #c5c2cf } 
		.shp21 { fill: #3f46a6 } 
		.shp22 { fill: #ffffff } 
		.shp23 { fill: #dfd8c7 } 
		.shp24 { fill: #c1bbac } 
		.shp25 { fill: #cbc4b5 } 
		.shp26 { fill: #f4f4f4 } 
		.shp27 { fill: #5a63ca } 
		.shp28 { fill: #d6cfbf } 
		.shp29 { fill: #c3bcae } 
		.shp30 { fill: #bbb4a7 } 
		.shp31 { fill: #eae9e9 } 
		.shp32 { fill: #eeeeee } 
		.shp33 { fill: #aeb0b2 } 
		.shp34 { fill: #34387d } 
		.shp35 { fill: #5961c5 } 
		.shp36 { fill: #84a0df } 
		.shp37 { fill: #b97262 } 
		.shp38 { fill: #292945 } 
		.shp39 { fill: #e9e9e9 } 
		.shp40 { fill: #34387b } 
		.shp41 { fill: #d4d3d3 } 
		.shp42 { fill: #292842 } 
		.shp43 { fill: #323672 } 
		.shp44 { fill: #cbcbcb } 
		.shp45 { fill: #bab4a7 } 
		.shp46 { fill: #5259b0 } 
		.shp47 { fill: #575fc1 } 
		.shp48 { fill: #c2c1c1 } 
		.shp49 { fill: #31346a } 
		.shp50 { fill: #4e54a2 } 
	</style>
	<g clip-path="url(#cp1)">
		<path class="shp0" d="M1896.17 1500.13C1883.74 1500.13 1871.24 1499.65 1858.6 1498.47C1810.3 1493.96 1761.34 1491.71 1713.28 1485.27C1602.99 1470.51 1492.65 1469.64 1381.55 1469.64C1337.44 1469.64 1293.33 1469.22 1249.22 1469.22C1185.01 1469.22 1120.82 1470.1 1056.74 1474.39C956.74 1481.08 856.58 1482.14 756.4 1482.14C741.31 1482.14 726.22 1482.12 711.13 1482.09C710.15 1482.09 709.17 1482.09 708.2 1482.09C652.75 1482.09 597.51 1485.5 542.14 1487.91C486.52 1490.34 432.43 1494.32 377.13 1494.32C372.15 1494.32 367.15 1494.29 362.14 1494.22C306.89 1493.46 222.75 1477.36 183.34 1436.33C159.93 1411.96 163.1 1353.31 186.54 1329.81C196.78 1319.54 213.29 1311.5 226.77 1306.61C265.18 1292.67 304.27 1292.64 344.41 1292.34C344.9 1292.34 345.38 1292.34 345.87 1292.34C373.57 1292.34 402.37 1297.92 428.92 1305.68C453.07 1312.73 477.74 1315.21 502.31 1319.6C522.4 1323.2 543.91 1324.92 565.17 1324.92C579.01 1324.91 592.75 1324.19 605.94 1322.77C641.6 1318.94 677.51 1317.16 713.28 1314.14C720.76 1313.51 728.23 1312.75 735.66 1311.91C739.82 1314.59 744.26 1316.89 748.69 1319.05C764.73 1326.86 781.89 1334.75 799.84 1341.82C806.5 1347.41 813.66 1352.4 821.22 1356.7C837.93 1366.2 859.69 1369.01 881.33 1369.01C898.08 1369.01 914.77 1367.33 929 1365.74C959.8 1362.31 989.95 1353.11 1017.42 1338.76C1035.1 1329.53 1051.03 1318.64 1048.58 1297.43C1047.87 1291.29 1046.49 1285.5 1044.43 1280.15C1058.76 1279.91 1073.09 1279.79 1087.42 1279.75C1092.18 1279.73 1096.93 1279.72 1101.69 1279.72C1129.66 1279.72 1157.62 1279.94 1185.58 1279.94C1208.31 1279.94 1231.03 1279.87 1253.74 1279.87C1331.49 1279.87 1409.16 1280.66 1486.7 1287.71C1510.72 1289.9 1534.59 1288.58 1558.29 1293.78C1582.07 1299 1606.08 1303.76 1630.45 1304.69C1642.49 1305.15 1654.55 1305.43 1666.62 1305.59C1666.72 1305.62 1666.81 1305.66 1666.9 1305.7C1666.93 1305.67 1666.96 1305.63 1666.98 1305.59C1675.71 1305.7 1684.45 1305.75 1693.19 1305.75C1730.41 1305.75 1767.71 1304.92 1804.81 1304.79C1808.53 1304.77 1813.71 1304.75 1820.14 1304.75C1829.1 1304.75 1840.45 1304.79 1853.56 1304.97C1855.01 1317.6 1857.02 1330.16 1859.79 1342.63C1874.22 1342.72 1888.65 1342.8 1903.09 1342.89C1906.07 1330.73 1909.21 1318.61 1912.5 1306.53C2028.02 1311.19 2187.46 1327.78 2171.85 1385.79C2163.88 1415.47 2117.5 1454.1 2091.48 1466.53C2058.62 1482.23 2022.68 1491.53 1986.5 1494.66C1956.01 1497.3 1926.28 1500.13 1896.17 1500.13Z" />
		<path class="shp1" d="M233.13 677.22C238.02 674.31 245.59 673.48 251.6 670.24C254.62 668.61 254.51 661.66 260.9 664.86C263.26 666.04 267.26 669.48 271.77 671.67C278.36 674.87 288.08 675.5 296.45 674.42C329.31 670.17 362.29 666.54 395.6 666.12C397.5 666.1 399.38 666.13 401.06 665.16C404.07 663.41 404.73 660.19 405.73 657.06C410.39 642.56 415.45 628.4 422.8 614.97C429.36 602.99 436.87 591.69 448.17 583.8C459.46 575.91 473.74 572.71 486.31 577.98C495.72 581.93 503.16 589.39 504.29 599.66C507.08 625.14 482.42 641.85 467.09 658.19C452.59 673.65 440.19 686.75 425.2 700.78C423.34 702.51 421.58 704.13 419.12 704.99C416.67 705.85 413.93 705.67 411.36 705.41C378.33 702.07 346.22 697.96 313.25 701.82C304.19 702.89 296.24 700.29 287.61 702.4C282.11 703.74 278.85 708.8 273.71 710.9C268.57 713 262.54 715.07 257 714.96C244.8 714.7 231.9 703.32 228.85 691.31C226.85 683.48 229.08 679.64 233.13 677.22Z" />
		<path class="shp2" d="M467.52 649.03C449.51 640.34 430.37 634.32 412.96 624.19C420.94 608.96 445.64 546.32 449.59 538.91C464.69 510.62 468.23 498.18 486.83 484.18C526.56 454.28 568.35 480.1 562.42 526.97C555.98 577.86 524.77 619.28 491.66 656.16C490.94 656.96 490 657.56 488.84 657.88C487.68 658.2 486 657.62 484.7 656.97C479.1 654.18 473.2 651.77 467.52 649.03Z" />
		<path class="shp1" d="M455.83 1356.43C449.28 1356.65 443 1355.18 436.57 1354.59C433.25 1290.89 439.28 1224.14 441.89 1160.14C458.25 1161.01 474.61 1161.88 490.97 1162.76C479.58 1196.96 471.44 1232.25 466.69 1267.98C465.93 1273.64 456.76 1356.39 455.83 1356.43Z" />
		<path class="shp3" d="M434.59 1342.23C430.55 1341.51 428.17 1343.31 425.48 1345.77C423.91 1347.2 422.85 1349.22 420.96 1350.24C419.08 1351.26 417.23 1351.47 414.99 1351.69C403.18 1352.88 375.99 1352.38 390.47 1372.13C403.63 1390.05 438.57 1382.92 458.76 1378.05C460.09 1377.73 461.49 1377.53 462.46 1376.5C463.43 1375.47 464.09 1374.01 464.5 1372.5C466.81 1364.06 469.96 1353.52 459.58 1349.99C455.16 1348.48 451.09 1351.41 446.4 1349.79C442.56 1348.46 438.63 1342.95 434.59 1342.23ZM405.2 1198.55C438.57 1197.91 471.94 1197.26 505.3 1196.61C532.3 1068.11 556.07 938.93 576.59 809.24C578.18 799.19 579.73 788.73 576.83 778.97C571.35 760.51 551.58 749.98 532.65 746.44C503.24 740.95 449.2 748.6 434.11 779.18C418.17 811.5 420.85 869.22 416.99 904.94C406.44 1002.39 402.48 1100.56 405.2 1198.55Z" />
		<path class="shp1" d="M646.65 1356.43C653.2 1356.65 659.48 1355.18 665.91 1354.59C669.22 1290.89 663.2 1224.14 660.59 1160.14C644.23 1161.01 627.87 1161.88 611.5 1162.76C622.9 1196.96 631.03 1232.25 635.79 1267.98C636.54 1273.64 645.72 1356.39 646.65 1356.43Z" />
		<path class="shp3" d="M667.89 1342.23C671.92 1341.51 674.31 1343.31 677 1345.77C678.56 1347.2 679.63 1349.22 681.51 1350.24C683.4 1351.26 685.25 1351.47 687.49 1351.69C699.3 1352.88 726.49 1352.38 712 1372.13C698.85 1390.05 663.9 1382.92 643.72 1378.05C642.39 1377.73 640.99 1377.53 640.02 1376.5C639.04 1375.47 638.39 1374.01 637.97 1372.5C635.67 1364.06 632.52 1353.52 642.89 1349.99C647.32 1348.48 651.39 1351.41 656.08 1349.79C659.91 1348.46 663.85 1342.95 667.89 1342.23ZM697.28 1198.55C663.91 1197.91 630.54 1197.26 597.17 1196.61C570.18 1068.11 546.41 938.93 525.89 809.24C524.3 799.19 522.75 788.73 525.65 778.97C531.13 760.51 550.9 749.98 569.82 746.44C599.24 740.95 653.28 748.6 668.36 779.18C684.3 811.5 681.63 869.22 685.49 904.94C696.04 1002.39 699.99 1100.56 697.28 1198.55Z" />
		<path class="shp2" d="M611.72 493.92C638.47 519.38 658.51 552.09 670.58 585.97C691.95 645.96 692.36 710.02 692.56 772.79C692.62 793.69 692.69 814.58 692.76 835.47C692.82 856.02 691 860.45 668.66 857.74C627.27 852.72 584.24 844.18 546.73 825.79C528.88 817.03 512.2 805.98 493.48 799.08C466.26 789.06 438.36 793.6 411.42 787.07C423.12 751.73 431.48 721.63 437.48 685.22C443.66 647.72 449.28 606.82 458.33 569.84C463.77 547.64 473.87 526.9 484.15 506.49C491.06 492.77 498.37 478.73 510.1 468.82C545.44 438.95 585.06 468.55 611.72 493.92Z" />
		<path class="shp1" d="M515.19 405.91C520.24 416.95 528.5 426.16 535.24 436.26C541.8 446.09 544.15 454.98 545.89 466.37C547.15 474.6 550.09 481.03 560.01 482.44C578.7 485.1 573.36 469.65 577.6 458.41C582.46 445.57 592.81 435.42 600.05 423.95C620.95 390.82 614.98 325.33 571.53 311.35C524.02 296.07 499.86 372.4 515.19 405.91Z" />
		<path class="shp3" d="M590.92 373.84C596.32 374.06 602.25 374.49 606.25 378.11C610.25 381.73 609.81 389.64 604.54 390.49C599.75 391.26 593.55 386.27 590.63 389.91C588.92 392.04 590.42 395.16 591.71 397.66C596.69 407.22 598.18 418.31 595.86 428.5C597.83 430.32 600.9 428.42 602.63 426.53C611.22 417.09 617.93 406.07 622.33 394.18C624.05 397.06 626.58 399.51 629.56 401.19C627.78 396.72 628.91 391.83 630.01 387.27C634.07 370.51 636.84 350.87 625.13 337.18C618.87 329.85 609.35 325.63 599.77 323.86C590.19 322.09 580.43 322.52 570.78 322.95C566.65 323.14 561.56 324.03 560.57 327.85C569.63 331.48 579 338.56 583.53 347.13C584.92 349.77 590.37 373.82 590.92 373.84ZM571.78 333.57C572.11 333.81 572.44 334.06 572.76 334.3C576.86 337.42 580.71 341.23 585.68 342.61C592.84 344.61 600.53 341.16 607.58 343.6C615.46 346.32 620.64 355.74 626.39 361.32C635.83 370.47 647.52 377.19 660.08 381.01C666.49 382.96 673.13 384.16 679.83 384.54C682.86 384.71 686.92 385.29 689.88 384.49C693.85 383.42 693.71 381.62 689.48 380.26C676.22 376.01 672.06 357.38 673.06 345.03C673.85 335.28 677.21 325.1 673.5 316.05C670.66 309.14 664.56 305.57 658.66 301.62C652.16 297.26 645.11 298.43 637.73 296.34C630.03 294.15 623.75 288.08 615.9 286.54C607.6 284.9 599.31 288.58 591 290.19C584.15 291.53 577.01 291.44 570.19 289.94C564.08 288.59 558.11 286.12 551.85 286.17C542.62 286.26 534.13 292.02 528.74 299.52C521.12 310.12 516.19 328.27 518.88 342.24C518.46 340.07 525.75 332.22 527.25 330.53C530.42 326.97 534.24 323.63 539.07 323.05C550.02 321.75 562.99 327.19 571.78 333.57Z" />
		<path class="shp4" d="M208.07 763.05C208.07 763.05 218.29 811.57 211.47 833.53L230.04 833.67L224.04 755.66L208.07 763.05ZM229.15 825.19C223.95 826.01 218.73 826.6 213.48 826.97C212.63 827.03 212.79 828.41 213.63 828.35C218.89 827.98 224.11 827.39 229.31 826.57C230.14 826.44 229.99 825.05 229.15 825.19ZM228.32 817.85C223.85 818.46 219.41 819.06 214.32 819.76C213.49 819.87 213.64 821.26 214.48 821.14C219.14 820.5 223.81 819.87 228.47 819.23C229.31 819.12 229.16 817.74 228.31 817.85M227.6 811.53C224.16 812.56 222.04 813.17 214.22 813.09C213.38 813.08 213.54 814.48 214.38 814.47C218.9 814.42 223.35 813.9 227.76 812.91C228.58 812.73 228.43 811.34 227.6 811.53ZM227.94 802.61C223.44 803.7 218.9 804.48 214.3 804.96C213.46 805.04 213.62 806.43 214.46 806.34C219.06 805.86 223.6 805.08 228.1 803.99C228.91 803.8 228.76 802.41 227.94 802.61ZM226.7 794.71C222.25 795.37 217.8 795.91 213.33 796.31C212.48 796.38 212.64 797.76 213.48 797.69C217.96 797.29 222.41 796.75 226.85 796.09C227.69 795.96 227.53 794.58 226.7 794.71ZM225.46 786.83C221.15 787.64 216.83 788.28 212.47 788.76C211.63 788.85 211.79 790.23 212.63 790.14C216.98 789.66 221.31 789.02 225.62 788.21C226.44 788.05 226.29 786.67 225.46 786.83ZM224.77 777.84C220.16 778.82 215.52 779.62 210.85 780.22L210.52 780.38L210.54 780.54C210.63 780.88 210.71 781.22 210.78 781.56L211 781.6C215.68 781 220.32 780.2 224.93 779.22C225.75 779.04 225.6 777.66 224.77 777.84ZM224.43 768.87C219.88 769.53 215.33 770.19 210.78 770.86C209.95 770.97 210.1 772.36 210.94 772.24C215.49 771.58 220.04 770.91 224.59 770.26C225.42 770.13 225.27 768.75 224.43 768.87Z" />
		<path class="shp5" d="M535.45 907.99L203.65 935.8C203.22 935.84 202.85 935.52 202.81 935.08L198.11 879.67C198.08 879.24 198.39 878.85 198.81 878.82L530.62 851.01C531.04 850.98 531.42 851.3 531.45 851.73L536.15 907.14C536.19 907.58 535.88 907.96 535.45 907.99Z" />
		<path class="shp3" d="M262.09 930.91L227.22 933.83L222.38 876.84L257.26 873.91L262.09 930.91ZM277.9 929.59L270.14 930.24L265.31 873.24L273.06 872.59L277.9 929.59ZM304.95 898.62C305.42 904.2 301.37 909.08 295.91 909.54C290.45 910 285.63 905.85 285.16 900.28C284.69 894.7 288.73 889.81 294.2 889.35C299.66 888.89 304.47 893.04 304.95 898.62Z" />
		<path class="shp6" d="M533.4 851.41L201.6 879.21C201.17 879.25 200.8 878.93 200.76 878.5L197 834.1C196.96 833.67 197.27 833.29 197.7 833.25L529.5 805.44C529.93 805.41 530.3 805.73 530.34 806.16L534.1 850.55C534.14 850.99 533.82 851.37 533.4 851.41Z" />
		<path class="shp7" d="M240.42 842.78L242.11 862.71L251.85 852.95L240.42 842.78ZM253.93 843.59L255.29 859.67L263.15 851.79L253.93 843.59ZM220.34 877.64L218.83 877.77L214.93 831.81L216.44 831.68L220.34 877.64ZM227.43 877.05L225.92 877.18L222.02 831.21L223.53 831.09L227.43 877.05ZM284.66 320.2L261.04 328.95L261.36 323.27C262.31 306.17 259.35 285.57 254.38 269.14L255.36 268.11L277.03 249.4L284.66 320.2Z" />
		<path class="shp8" d="M419.7 311.05L282.63 317.1L260.46 328.7L408.9 322.48L419.7 311.05Z" />
		<path class="shp9" d="M260.07 327.18C264.05 326.11 267.82 323.47 271.6 321.38C275.14 319.41 278.67 317.46 282.2 315.5C282.76 315.19 283.19 317.04 282.63 317.35C278.82 319.46 275.01 321.58 271.18 323.7C267.6 325.69 264.05 328.1 260.26 329.12C259.67 329.28 259.48 327.34 260.07 327.18ZM277.05 251.99C269.12 257.16 261.44 263.51 254.08 271.06C253.32 271.84 252.33 269.34 253.1 268.55C260.57 260.9 268.34 254.42 276.39 249.17C277.22 248.63 277.88 251.45 277.05 251.99Z" />
		<path class="shp10" d="M414 244.08L275.9 249.45L278.04 264.65C279.78 276.95 281.02 289.3 281.77 301.58L282.63 317.1L419.7 311.05L419.75 310.13C420.9 288.51 418.91 265.54 414 244.08Z" />
		<path class="shp6" d="M296.77 250.18C296.37 248.25 293.36 248.6 293.76 250.55C298.01 270.91 299.53 291.62 298.21 312.37C298.09 314.35 301.09 314.82 301.21 312.84C302.54 291.82 301.08 270.81 296.77 250.18ZM397.55 247.01C397.13 245.08 394.12 245.45 394.54 247.4C398.97 267.73 400.66 288.43 399.53 309.19C399.42 311.16 402.42 311.61 402.53 309.63C403.68 288.6 402.03 267.6 397.55 247.01Z" />
		<path class="shp1" d="M218.8 411.32L165.8 424.84L166.92 417.16C170.31 394.06 165.26 366.53 155.49 344.75L157.72 343.3L207.13 316.51L218.8 411.32Z" />
		<path class="shp3" d="M518.7 389.09L214.53 407.29L164.53 424.55L493.92 405.28L518.7 389.09Z" />
		<path class="shp2" d="M163.77 422.52C172.68 420.79 181.23 416.96 189.75 413.86C197.74 410.96 205.72 408.07 213.68 405.17C214.94 404.72 215.77 407.17 214.5 407.63C205.91 410.76 197.29 413.89 188.66 417.02C180.58 419.96 172.52 423.48 164.07 425.12C162.74 425.38 162.45 422.78 163.77 422.52ZM206.99 319.99C189.02 327.55 171.55 336.67 154.67 347.37C152.92 348.48 150.92 345.17 152.68 344.06C169.81 333.2 187.51 323.91 205.74 316.25C207.62 315.46 208.86 319.21 206.99 319.99Z" />
		<path class="shp11" d="M511.05 299.29L204.63 316.65L208.25 336.97C211.18 353.41 213.02 369.96 213.77 386.46L214.53 407.29L518.7 389.09L518.88 387.85C523.04 358.64 520.33 327.84 511.05 299.29Z" />
		<path class="shp12" d="M506.23 806.9L225.45 830.43L219.73 763L500.51 739.47L500.86 740.37C509.08 761.54 510.95 784.7 506.23 806.9Z" />
		<path class="shp2" d="M293.39 824.74L254.16 828.02L248.44 760.6L287.67 757.31L293.39 824.74Z" />
		<path class="shp1" d="M214.65 691.57L161.9 688.27L164.3 694.06C171.51 711.47 171.5 733.35 166.07 751.31L168.42 752.14L219.71 766.54L214.65 691.57Z" />
		<path class="shp3" d="M518.9 667.01L211.25 695.29L160.76 688.66L490.42 657.43L518.9 667.01Z" />
		<path class="shp2" d="M160.4 690.33C169.12 690.47 177.87 692.28 186.49 693.53C194.59 694.7 202.7 695.88 210.8 697.05C212.09 697.24 212.46 695.22 211.17 695.03C202.42 693.76 193.66 692.49 184.91 691.22C176.73 690.04 168.5 688.41 160.23 688.28C158.93 688.26 159.11 690.31 160.4 690.33ZM218.99 763.87C200.64 760.3 182.57 755.49 164.86 749.41C163.03 748.78 161.71 751.56 163.56 752.19C181.52 758.36 199.83 763.29 218.44 766.91C220.36 767.29 220.91 764.25 218.99 763.87Z" />
		<path class="shp13" d="M525.17 740.94L217.31 766.74L217.29 750.63C217.28 737.56 216.21 724.51 214.11 711.6L211.25 695.29L518.9 667.01L519.28 667.99C528.3 691.2 530.35 716.6 525.17 740.94Z" />
		<path class="shp10" d="M488.76 664.8L197 689.25C196.58 689.29 196.2 688.97 196.16 688.53L190.37 620.23C190.33 619.8 190.65 619.42 191.07 619.38L482.83 594.93C483.25 594.89 483.63 595.22 483.66 595.65L489.46 663.95C489.49 664.38 489.18 664.76 488.76 664.8Z" />
		<path class="shp6" d="M518.96 542.05L158.26 572.28C157.84 572.32 157.47 571.99 157.43 571.56L153.23 522.12C153.2 521.69 153.51 521.3 153.94 521.27L514.63 491.04C515.06 491 515.43 491.33 515.47 491.76L519.66 541.2C519.7 541.63 519.38 542.01 518.96 542.05Z" />
		<path class="shp5" d="M456.83 496.84L226.91 516.11L218.36 415.35L448.28 396.08L449.59 401.62C456.52 430.93 459.09 461.12 457.18 491.16L456.83 496.84Z" />
		<path class="shp7" d="M297.96 509.48L252.34 513.31L243.9 413.89L289.53 410.06L297.96 509.48Z" />
		<path class="shp5" d="M287.74 510.34L262.13 512.49L253.69 413.06L279.31 410.92L287.74 510.34Z" />
		<g clip-path="url(#cp2)">
			<path class="shp14" d="M218.87 421.37L218.41 415.91L218.87 421.37Z" />
			<path class="shp15" d="M453.73 422.32L453.16 422.32L290.51 421.66L289.53 410.06L243.9 413.89L244.55 421.47L218.87 421.37L218.87 421.37L218.41 415.91L448.31 396.64L448.33 396.64L453.73 422.32Z" />
			<path class="shp16" d="M290.51 421.66L280.22 421.62L279.31 410.92L253.69 413.06L254.41 421.51L244.55 421.47L243.9 413.89L289.53 410.06L290.51 421.66Z" />
			<path class="shp15" d="M280.22 421.62L254.41 421.51L253.69 413.06L279.31 410.92L280.22 421.62Z" />
		</g>
		<g clip-path="url(#cp3)">
			<path class="shp17" d="M322.22 295.38L322.14 295.38C314.11 295.35 307.28 289.06 306.57 280.75C306.53 280.3 306.51 279.85 306.51 279.41L306.51 279.3C306.54 271.14 312.67 264.24 320.79 263.56C321.22 263.52 321.65 263.5 322.08 263.5C330.14 263.5 337 269.81 337.7 278.14C337.74 278.56 337.76 278.98 337.76 279.39L337.76 279.67C337.69 287.79 331.58 294.65 323.49 295.33C323.06 295.36 322.64 295.38 322.22 295.38Z" />
		</g>
		<path fill-rule="evenodd" class="shp12" d="M191.63 545.45C188.77 549.58 185.63 553.42 182.16 557.02C180.81 558.44 178.48 556.45 179.84 555.03C182.98 551.76 185.84 548.29 188.47 544.61C185.49 541.6 182.24 539 178.58 536.84C176.9 535.85 178.18 533.05 179.88 534.05C184.17 536.59 188.01 539.61 191.44 543.27C192.05 543.92 192.14 544.71 191.63 545.45ZM209.08 542.71C208.26 544.54 206.41 546 205.09 547.46C203.31 549.45 201.52 551.43 199.74 553.41C198.42 554.87 196.1 552.87 197.42 551.41C198.9 549.76 200.39 548.11 201.88 546.46C203 545.22 204.82 543.74 205.85 542.22C203.62 539.76 200.15 537.72 197.68 535.7C196.15 534.45 198.1 532.09 199.62 533.34C202.55 535.74 206.62 538.15 208.95 541.16C209.28 541.59 209.29 542.23 209.08 542.71ZM220.06 533.54C220.15 535.46 219.12 537.31 217.25 537.84C215.38 538.38 214.32 535.48 216.19 534.94C218.2 534.37 216.32 531.62 215.42 530.85C213.91 529.57 215.86 527.22 217.37 528.49C218.84 529.74 219.97 531.55 220.06 533.54ZM234.67 544.06C232.47 546.22 228.95 546.47 226.66 544.3C224.6 542.34 224.04 538.93 225.68 536.54C227.35 534.12 230.51 533.34 233.15 534.43C233.71 534.25 234.38 534.34 234.85 534.93C237.01 537.56 237.17 541.61 234.67 544.06ZM232.85 537.38C232.58 537.42 232.3 537.4 231.99 537.27C229.12 535.99 226.28 539.49 228.62 541.94C229.75 543.13 231.58 542.92 232.66 541.75C233.84 540.48 233.65 538.75 232.85 537.38ZM449.99 668.19L446.52 668.48L440.57 598.33L444.04 598.04L449.99 668.19ZM464.08 667.01L460.6 667.3L454.65 597.15L458.13 596.86L464.08 667.01Z" />
		<g clip-path="url(#cp4)">
			<path class="shp18" d="M505.24 754.11C504.85 752.58 504.43 751.06 503.99 749.54C504.46 751.09 504.91 752.7 505.24 754.11Z" />
			<path class="shp19" d="M220.17 768.25L219.71 766.55C219.72 766.54 219.72 766.54 219.72 766.54L220.02 766.51L220.17 768.25Z" />
			<path class="shp20" d="M220.17 768.25L220.02 766.51L237.47 765.05L248.74 764.11L248.97 766.83L220.17 768.25ZM288.31 764.89L287.97 760.82L501.8 742.9C501.8 742.9 502.94 746.08 503.99 749.54C504.43 751.06 504.85 752.58 505.24 754.11C505.24 754.13 505.25 754.15 505.25 754.17L288.31 764.89Z" />
			<path class="shp18" d="M248.97 766.83L248.74 764.11L287.97 760.82L288.31 764.89L248.97 766.83ZM219.71 766.55L219.71 766.54L219.72 766.54C219.72 766.54 219.72 766.54 219.71 766.55Z" />
			<path class="shp21" d="M219.71 766.54L237.47 765.05L220.02 766.51L219.72 766.54L219.71 766.54Z" />
		</g>
		<path class="shp3" d="M504.53 593.72L143.83 623.95C143.41 623.99 143.03 623.66 143 623.23L138.8 573.79C138.77 573.36 139.08 572.98 139.51 572.94L500.2 542.71C500.63 542.68 501 543 501.04 543.43L505.23 592.87C505.27 593.3 504.95 593.68 504.53 593.72Z" />
		<path class="shp12" d="M189.08 604.98L183.62 605.44L181.85 584.57L187.31 584.11L189.08 604.98ZM206.21 603.54L200.76 604L198.99 583.13L204.44 582.67L206.21 603.54Z" />
		<path class="shp7" d="M520.24 541L158.54 571.82C157.48 571.92 156.6 570.98 156.74 569.9L518.92 536.16L520.24 541Z" />
		<path class="shp12" d="M518.74 538.91L157.04 569.74C155.97 569.83 155.1 568.9 155.23 567.82L517.42 534.08L518.74 538.91Z" />
		<path class="shp4" d="M202.62 424.87C202.62 424.87 218.82 487.85 208.27 515.34L226.91 516.11L218.41 415.91L202.62 424.87Z" />
		<path class="shp1" d="M479.72 751.94C479.94 751.32 480.17 750.68 480.55 750.17C484.04 745.41 488.72 745.01 493.37 741.4C495.44 739.79 494.86 733.06 500.04 734.86C501.95 735.53 506.41 737.82 510.47 739.28C516.39 741.41 525.19 740.53 532.04 738.54C541.26 735.86 550.94 732.82 559.58 728.83C568.62 724.66 577.44 720.01 586.05 715.01C593.23 710.84 604.61 706.07 610.04 699.73C619.21 689.01 608.59 662.87 607.38 649.48C606.12 635.53 607.34 594.42 626.18 593.25C657.04 591.35 657.52 620.68 658.9 644.29C659.77 659.02 659.7 674.04 658.38 688.75C656.53 709.35 643.18 721.15 625.53 730.9C606.83 741.23 587.71 751.37 567.16 757.52C557.17 760.51 547.34 761.4 537.15 763.05C527.07 764.68 528.36 769.07 519.91 772.75C515.19 774.81 510.77 777.8 505.74 778.95C496.71 781.01 489.48 774.75 482.62 769.91C480.91 768.7 479.75 767.89 478.87 766.14C477.43 763.3 477.99 760.26 478.44 757.22C478.7 755.42 479.11 753.64 479.72 751.94Z" />
		<path class="shp2" d="M658.33 652.26C640.88 655.64 623.44 659.03 605.99 662.41C607.11 662.19 585.8 584.18 584.69 579.49C580.45 561.6 576.2 543.03 579.83 525.01C587.57 486.52 606.12 477.05 629.49 517.49C651.55 555.66 686.14 601.35 679.29 644.79C679.14 645.74 678.96 646.73 678.37 647.47C677.55 648.5 676.15 648.81 674.86 649.06L658.33 652.26Z" />
		<path class="shp10" d="M1092.1 520.7C1117.44 536.12 1145.79 546.58 1175.08 551.32C1180.32 527.32 1185.85 503.38 1191.69 479.51C1194.21 469.23 1196.85 458.78 1201.88 449.38C1204.56 444.39 1214.63 435.28 1211.5 428.8C1206.01 417.45 1182.15 430.01 1175.34 433.79C1157.56 443.62 1141.31 457.31 1127.33 471.96C1123.95 475.5 1089.01 518.81 1092.1 520.7Z" />
		<path class="shp1" d="M1336.24 1085.49L1337.86 1183.73C1337.2 1210.99 1339.65 1238.16 1341.31 1265.33C1342.85 1290.57 1337.77 1316.58 1349.74 1339.97C1353.5 1347.3 1361.48 1352.41 1367.56 1343.94C1372.25 1337.41 1370.09 1326.11 1371.25 1318.54C1379.95 1261.58 1396.13 1206.04 1404.21 1148.98C1412.67 1089.21 1389.54 1090.79 1336.24 1085.49Z" />
		<path class="shp3" d="M1341.82 1323.17L1335.51 1339.56L1366.59 1366.92L1395.06 1368.1L1404.27 1353.07L1365.98 1319.77L1341.82 1323.17Z" />
		<path class="shp1" d="M1266.65 1086.45L1248.73 1183.06C1242.51 1226.28 1228.4 1268.37 1222.18 1311.59C1220.76 1321.53 1221.47 1332.4 1217.32 1341.77C1213.26 1350.94 1205.31 1351.31 1198.29 1345.08C1188.89 1336.75 1193.22 1321.85 1193.39 1310.47C1194.55 1234.62 1188.58 1159.85 1187.14 1083.88C1187.12 1082.88 1187.17 1081.74 1187.94 1081.11C1188.57 1080.59 1189.46 1080.6 1190.27 1080.66C1197.64 1081.15 1266.26 1088.53 1266.65 1086.45Z" />
		<path class="shp3" d="M1193.17 1327.21L1183.32 1341.75L1207.43 1375.42L1234.9 1382.99L1247.26 1370.43L1217.47 1329.35L1193.17 1327.21ZM1437.5 1148L1424.1 1007.54L1417.63 916.28L1395.9 841.74L1278.55 823.53L1133.46 848.4L1126.49 876.59L1154.41 1137.51L1294.35 1148L1292.45 985.6L1314.04 1086.26L1313.12 1148L1437.5 1148Z" />
		<path class="shp22" d="M1164.26 567.31C1164.06 572.05 1163.93 576.8 1163.85 581.52C1162.15 677.87 1167.46 775.44 1168.07 872.59C1217.83 864.8 1268.12 860.51 1318.48 859.75C1322.62 859.69 1331.99 860.68 1342.68 861.68C1362.05 863.48 1385.74 865.28 1390.5 860.79C1400.51 851.35 1389.5 853.13 1390.23 840.83C1391.18 824.91 1383.53 811.87 1386.42 793.01C1389.81 770.84 1396.57 748.91 1400.46 726.75C1408.26 682.3 1412.96 637.31 1414.48 592.21C1415.84 552.21 1414.38 510.73 1397.18 474.59C1354.76 385.47 1218 387.08 1180.47 480.13C1169.36 507.69 1165.5 537.52 1164.26 567.31Z" />
		<path class="shp10" d="M1318.58 442.3L1281.44 509.99C1283.38 578.37 1285.32 646.76 1287.26 715.14C1288.16 746.65 1289.05 778.16 1289.95 809.68C1290.26 820.62 1290.53 831.57 1290.88 842.51C1291.03 847.42 1289.68 855.69 1292.48 859.7C1297.14 866.37 1311.29 866.33 1322.01 866.29C1325.28 866.28 1328.22 866.27 1330.49 866.45C1345.61 867.64 1360.95 868.87 1375.2 874.09C1384.68 877.57 1393.67 882.8 1403.67 884.21C1405.92 884.52 1408.43 884.57 1410.2 883.14C1412.17 881.55 1412.5 878.72 1412.69 876.19C1416.17 829.24 1416.24 780.84 1418.84 733.4C1420.89 696.08 1425.95 658.46 1424.17 621.1C1422.33 582.65 1416.31 544.42 1408.97 506.69C1404.62 484.35 1399.5 461.57 1387.21 442.43C1373.27 420.72 1353.54 412.02 1329.23 407.13C1320.65 405.4 1288.7 393.32 1294.03 412.84C1296.67 422.49 1312.07 434.55 1318.58 442.3ZM1237.77 448.66L1274.92 516.36C1274.14 516.36 1270.21 682.29 1269.89 693.49C1268.68 736.08 1267.47 778.68 1266.26 821.27C1265.93 833.11 1267.52 846.98 1265.2 858.62C1261.97 874.86 1244.86 871.66 1230.29 872.98C1198.41 875.85 1164.84 881.3 1132.88 879.68C1123.65 879.22 1135.79 686.78 1135.77 668.82C1135.71 604.23 1122.39 532.57 1155.2 474C1164.74 456.96 1181.57 429.63 1200.15 421.22C1217.46 413.38 1242.24 412.04 1261.03 407.65L1262.01 419.83L1237.77 448.66Z" />
		<path class="shp3" d="M1318.39 284.7C1324.24 294.95 1327.06 306.75 1327.58 318.54C1327.72 321.68 1327.93 325.29 1330.46 327.14C1333.18 329.13 1330.79 333.47 1332.86 330.82C1334.92 328.17 1341.93 318.97 1342.24 315.62C1342.98 307.79 1342.97 299.88 1342.21 292.05C1341.55 285.24 1340.15 278.12 1335.7 272.93C1333.05 269.85 1329.53 267.69 1326.05 265.59C1321.02 262.55 1315.83 259.48 1310.04 258.4C1300.07 256.54 1293.96 260.12 1302.75 267.07C1309.06 272.05 1314.39 277.68 1318.39 284.7Z" />
		<path class="shp1" d="M1256.09 418.41C1256.16 423.24 1255.17 428.24 1259.43 431.98C1261.47 433.78 1264.24 434.5 1266.93 434.93C1273.89 436.03 1281.09 435.52 1287.82 433.45C1290.59 432.59 1293.35 431.44 1295.44 429.43C1297.91 427.06 1298.03 424.81 1298.15 421.71C1298.29 418.08 1299.02 414.38 1299.5 410.69C1300.54 402.62 1301.01 394.49 1301.24 386.37C1313.19 384.32 1327.24 380.45 1331.33 367.94C1332.61 364 1332.66 359.71 1332.69 355.52C1332.81 338.18 1332.94 320.84 1333.07 303.5C1333.11 297.5 1333.13 291.32 1331.07 285.76C1327.47 275.99 1318.31 270.18 1309.33 266.51C1286.42 257.17 1259.72 257.54 1238.57 270.83C1232.94 274.37 1227.63 278.92 1224.39 285.1C1219.39 294.62 1220.02 306.38 1220.79 317.37C1221.51 327.52 1222.23 337.66 1222.94 347.81C1223.77 359.47 1225.52 372.9 1234.58 379.06C1239.39 382.34 1245.61 382.94 1249.75 387.17C1256.99 394.56 1253.54 405.6 1255.68 414.56C1255.98 415.81 1256.08 417.11 1256.09 418.41Z" />
		<path fill-rule="evenodd" class="shp3" d="M1335.8 365.61C1333.66 376.4 1328.44 386.71 1319.65 392.77C1309.7 399.64 1297.2 400.13 1285.38 400.41C1278.92 400.56 1272.45 400.71 1265.99 400.87C1249.63 401.25 1233.36 399.14 1224.94 381.91C1221.06 373.97 1219.82 364.73 1220.4 355.78C1220.55 353.32 1220.87 350.79 1222.03 348.66C1223.19 346.54 1225.4 344.91 1227.67 345.23C1230.57 345.64 1232.31 348.76 1234.18 351.19C1238.25 356.48 1245.45 359.43 1251.26 356.6C1252.98 355.76 1254.47 354.5 1255.95 353.22C1256.56 352.7 1257.17 352.17 1257.79 351.67C1263.94 346.72 1271.46 344.45 1278.99 343.47C1285.52 342.61 1295.13 340.21 1299.97 345.77C1302.8 349.01 1305.61 352.24 1308.43 355.48C1309.59 356.81 1310.79 358.16 1312.28 359.02C1313.83 359.9 1315.61 360.19 1317.36 360.21C1321.75 360.29 1326.68 358.27 1328.17 353.81C1328.82 351.87 1328.73 349.75 1328.8 347.69C1328.88 345.62 1329.2 343.44 1330.46 341.89C1335.29 335.97 1336.7 345.39 1336.89 348.6C1337.24 354.29 1336.9 360.04 1335.8 365.61ZM1291.24 368.6C1286.06 372.08 1280.63 372.12 1274.88 370.39C1271.92 369.5 1270.68 374.45 1273.63 375.34C1280.56 377.43 1287.42 377.2 1293.65 373.02C1296.24 371.28 1293.85 366.84 1291.24 368.6ZM1346.01 254.75C1346.54 254.76 1341.19 267.89 1340.51 269.02C1336.68 275.39 1335.63 273.81 1329.32 272.12C1316.17 268.59 1299.95 270.3 1286.65 272.15C1272.12 274.18 1257.59 278.32 1245.08 286.16C1237.23 291.08 1230.44 297.97 1226.06 306.15C1223.86 310.25 1222.27 314.7 1221.57 319.3C1220.43 323.9 1223.21 335.3 1223.27 340.14C1212.77 325.06 1206.82 301.34 1209.24 283.18C1211.77 264.16 1222.34 249.55 1238.82 239.77C1258.11 228.31 1277.63 229.98 1298.97 231.73C1301.25 231.92 1329.3 233.37 1329.32 235.44C1329.33 237.94 1329.34 240.43 1329.35 242.92C1333.53 243.62 1337.88 243.25 1341.88 241.85C1341.35 246.17 1340.5 250.45 1339.36 254.65C1341.58 254.69 1343.79 254.72 1346.01 254.75Z" />
		<path class="shp2" d="M1755.21 576.58L1278.64 623.96L802.07 576.58C788.66 575.25 777.26 586.34 778.09 599.9L797.97 1071.41C798.64 1082.19 806.91 1090.89 817.56 1091.98C895.97 1100.05 1201.97 1130.6 1236.28 1134.5C1238.02 1134.7 1239.53 1135.72 1240.34 1137.28C1242.64 1141.77 1250.91 1150.95 1278.64 1150.95C1306.38 1150.95 1314.65 1141.77 1316.95 1137.28C1317.75 1135.72 1319.26 1134.7 1321 1134.5C1355.31 1130.6 1661.31 1100.05 1739.72 1091.98C1750.38 1090.89 1758.65 1082.19 1759.31 1071.41L1779.2 599.9C1780.03 586.34 1768.62 575.25 1755.21 576.58Z" />
		<path class="shp6" d="M1755.21 568.78L1278.64 616.16L802.07 568.78C788.66 567.45 777.26 578.53 778.09 592.09L797.97 1063.61C798.64 1074.38 806.91 1083.09 817.56 1084.18C895.97 1092.25 1201.97 1122.79 1236.28 1126.7C1238.02 1126.89 1239.53 1127.92 1240.34 1129.48C1242.64 1133.97 1250.91 1143.15 1278.64 1143.15C1306.38 1143.15 1314.65 1133.97 1316.95 1129.48C1317.75 1127.92 1319.26 1126.89 1321 1126.7C1355.31 1122.79 1661.31 1092.25 1739.72 1084.18C1750.38 1083.09 1758.65 1074.38 1759.31 1063.61L1779.2 592.09C1780.03 578.53 1768.62 567.45 1755.21 568.78Z" />
		<path class="shp23" d="M1280.44 612.72C1060.88 465.89 839.53 532.36 839.53 532.36L839.53 1042.34C1145.54 980.26 1278.64 1108.86 1278.64 1108.86C1278.64 1108.86 1411.75 980.26 1717.76 1042.34L1717.76 532.36C1717.76 532.36 1499.99 465.89 1280.44 612.72Z" />
		<path class="shp24" d="M839.53 532.36C839.53 532.36 829.71 571.17 795.59 594.45L817.56 1081.7C817.56 1081.7 839.53 1064.51 839.53 1042.34L839.53 532.36ZM1717.75 532.36C1717.75 532.36 1727.58 571.17 1761.69 594.45L1739.72 1081.7C1739.72 1081.7 1717.75 1064.51 1717.75 1042.34L1717.75 532.36Z" />
		<path class="shp25" d="M817.56 1081.7C817.56 1081.7 1122.79 1011.85 1259.26 1134.91L1278.64 1134.91L1278.64 1108.86C1278.64 1108.86 1140.89 978.04 839.53 1042.34L817.56 1081.7ZM1739.72 1081.7C1739.72 1081.7 1434.49 1011.85 1298.03 1134.91L1278.64 1134.91L1278.64 1108.86C1278.64 1108.86 1416.4 978.04 1717.75 1042.34L1739.72 1081.7Z" />
		<path class="shp26" d="M1051.19 501.16C1024.73 498.54 998.49 497.48 973.49 497.23C961.96 497.12 867.19 500.73 867.19 503.96L867.19 648.15L867.19 1017.12C867.19 1013.88 962.18 1010.27 973.74 1010.4C1055.32 1011.26 1147 1026.2 1219.14 1066.03C1231.2 1072.68 1280.08 1098.86 1280.08 1117.27L1280.08 617.81C1280.08 607.63 1276.29 597.79 1269.31 590.33C1214.53 531.7 1131.91 509.15 1051.19 501.16Z" />
		<path class="shp22" d="M1508.97 501.16C1535.43 498.54 1561.68 497.48 1586.67 497.23C1598.2 497.12 1692.97 500.73 1692.97 503.96L1692.97 648.15L1692.97 1017.12C1692.97 1013.88 1597.98 1010.27 1586.42 1010.4C1504.83 1011.26 1413.16 1026.2 1341.02 1066.03C1328.96 1072.68 1280.08 1098.86 1280.08 1117.27L1280.08 617.81C1280.08 607.63 1283.87 597.79 1290.85 590.33C1345.62 531.7 1428.24 509.15 1508.97 501.16Z" />
		<g clip-path="url(#cp5)">
			<path fill-rule="evenodd" class="shp26" d="M1280.08 642.5L1280.08 617.81C1280.08 607.63 1283.87 597.79 1290.85 590.33C1345.62 531.7 1428.24 509.15 1508.97 501.16C1535.43 498.54 1561.68 497.48 1586.67 497.23C1586.85 497.23 1587.05 497.23 1587.26 497.23C1601.1 497.23 1692.97 500.78 1692.97 503.96L1692.97 667.23C1679.88 744.15 1678.11 829.87 1691.76 899.7C1692.16 899.73 1692.56 899.77 1692.97 899.8L1692.97 1017.12C1692.97 1013.93 1601.1 1010.39 1587.06 1010.39C1586.83 1010.39 1586.61 1010.39 1586.42 1010.4C1570.25 1010.57 1553.68 1011.29 1536.95 1012.65C1328.31 922.04 1287.31 700.2 1280.08 642.5ZM1341.4 1065.81C1341.28 1065.89 1341.15 1065.96 1341.02 1066.03C1341.15 1065.96 1341.28 1065.89 1341.4 1065.81ZM1342.19 1065.38C1342.11 1065.43 1342.02 1065.48 1341.94 1065.52C1342.02 1065.48 1342.11 1065.43 1342.19 1065.38ZM1344.24 1064.27C1344.17 1064.31 1344.11 1064.34 1344.05 1064.37C1344.11 1064.34 1344.17 1064.31 1344.24 1064.27ZM1345.15 1063.79C1345.11 1063.81 1345.07 1063.83 1345.03 1063.85C1345.07 1063.83 1345.1 1063.81 1345.15 1063.79ZM1341.53 1065.75C1341.62 1065.7 1341.7 1065.65 1341.79 1065.6C1341.7 1065.65 1341.62 1065.7 1341.53 1065.75ZM1342.33 1065.31C1342.44 1065.25 1342.55 1065.19 1342.65 1065.13C1342.54 1065.19 1342.44 1065.25 1342.33 1065.31ZM1342.75 1065.08C1342.86 1065.02 1342.98 1064.95 1343.09 1064.89C1342.98 1064.95 1342.86 1065.02 1342.75 1065.08ZM1343.26 1064.8C1343.33 1064.76 1343.4 1064.72 1343.47 1064.69C1343.4 1064.72 1343.33 1064.76 1343.26 1064.8ZM1343.66 1064.58C1343.72 1064.55 1343.79 1064.51 1343.85 1064.48C1343.79 1064.51 1343.72 1064.55 1343.66 1064.58ZM1344.65 1064.05C1344.69 1064.03 1344.73 1064.01 1344.77 1063.99C1344.73 1064.01 1344.69 1064.03 1344.65 1064.05ZM1345.4 1063.65C1345.44 1063.63 1345.48 1063.61 1345.51 1063.59C1345.48 1063.61 1345.44 1063.63 1345.4 1063.65ZM1345.79 1063.44C1345.79 1063.44 1345.79 1063.44 1345.8 1063.44C1345.79 1063.44 1345.79 1063.44 1345.79 1063.44Z" />
		</g>
		<g clip-path="url(#cp6)">
			<path class="shp27" d="M1293.01 1097.45C1293.21 1097.27 1293.4 1097.11 1293.59 1096.94L1293.59 1096.93C1293.4 1097.1 1293.21 1097.27 1293.02 1097.45C1293.01 1097.45 1293.02 1097.45 1293.01 1097.45Z" />
			<path fill-rule="evenodd" class="shp28" d="M1293.59 1096.94C1296.54 1094.33 1299.81 1091.76 1303.22 1089.26C1299.81 1091.76 1296.54 1094.33 1293.59 1096.93L1293.59 1096.94ZM1303.22 1089.26C1317.62 1078.72 1334.58 1069.58 1341.02 1066.03C1334.58 1069.58 1317.62 1078.72 1303.22 1089.26ZM1341.53 1065.75C1341.49 1065.77 1341.45 1065.79 1341.4 1065.81C1341.45 1065.79 1341.49 1065.77 1341.53 1065.75ZM1341.79 1065.6C1341.84 1065.58 1341.89 1065.55 1341.94 1065.52C1341.89 1065.55 1341.84 1065.58 1341.79 1065.6ZM1342.33 1065.31C1342.29 1065.33 1342.24 1065.36 1342.19 1065.38C1342.24 1065.36 1342.29 1065.33 1342.33 1065.31ZM1342.75 1065.08C1342.72 1065.09 1342.69 1065.11 1342.65 1065.13C1342.69 1065.11 1342.72 1065.1 1342.75 1065.08ZM1343.09 1064.89C1343.15 1064.86 1343.2 1064.83 1343.26 1064.8C1343.2 1064.83 1343.15 1064.86 1343.09 1064.89ZM1343.66 1064.58C1343.6 1064.62 1343.54 1064.65 1343.47 1064.69C1343.54 1064.65 1343.6 1064.62 1343.66 1064.58ZM1344.24 1064.27C1344.37 1064.2 1344.51 1064.12 1344.65 1064.05C1344.51 1064.12 1344.37 1064.2 1344.24 1064.27ZM1344.77 1063.99C1344.86 1063.94 1344.94 1063.9 1345.03 1063.85C1344.94 1063.9 1344.86 1063.94 1344.77 1063.99ZM1345.4 1063.65C1345.32 1063.69 1345.23 1063.74 1345.15 1063.79C1345.23 1063.74 1345.32 1063.7 1345.4 1063.65ZM1536.97 1012.68L1536.97 1012.66C1536.97 1012.66 1536.97 1012.66 1536.95 1012.65C1471.12 1018.01 1402.71 1033.23 1345.8 1063.44C1402.72 1033.23 1471.13 1018.03 1536.97 1012.68ZM1343.85 1064.48C1343.92 1064.45 1343.99 1064.41 1344.05 1064.37C1343.98 1064.41 1343.92 1064.45 1343.85 1064.48ZM1345.51 1063.59C1345.6 1063.54 1345.7 1063.49 1345.79 1063.44C1345.7 1063.49 1345.6 1063.54 1345.51 1063.59Z" />
			<path class="shp29" d="M1280.08 1117.27L1280.08 1117.27L1280.08 1117.27C1280.08 1111.18 1285.43 1104.25 1293.01 1097.45C1293.02 1097.45 1293.01 1097.45 1293.02 1097.45C1285.43 1104.24 1280.08 1111.18 1280.08 1117.27Z" />
			<path class="shp30" d="M1280.08 1117.27L1280.08 1117.27C1280.08 1111.18 1285.43 1104.25 1293.01 1097.45C1285.43 1104.25 1280.08 1111.18 1280.08 1117.27Z" />
			<path class="shp31" d="M1280.08 1117.27L1280.08 642.5C1287.31 700.2 1328.31 922.04 1536.97 1012.66C1471.12 1018.01 1402.71 1033.23 1345.8 1063.44C1345.79 1063.44 1345.79 1063.44 1345.79 1063.44C1345.7 1063.49 1345.6 1063.54 1345.51 1063.59C1345.48 1063.61 1345.44 1063.63 1345.4 1063.65C1345.32 1063.69 1345.23 1063.74 1345.15 1063.79C1345.11 1063.81 1345.07 1063.83 1345.03 1063.85C1344.94 1063.9 1344.86 1063.94 1344.77 1063.99C1344.73 1064.01 1344.69 1064.03 1344.65 1064.05C1344.51 1064.12 1344.37 1064.2 1344.24 1064.27C1344.17 1064.31 1344.11 1064.34 1344.05 1064.37C1343.99 1064.41 1343.92 1064.45 1343.85 1064.48C1343.79 1064.51 1343.72 1064.55 1343.66 1064.58C1343.6 1064.62 1343.54 1064.65 1343.47 1064.69C1343.4 1064.72 1343.33 1064.76 1343.26 1064.8C1343.2 1064.83 1343.15 1064.86 1343.09 1064.89C1342.98 1064.95 1342.86 1065.02 1342.75 1065.08C1342.72 1065.09 1342.69 1065.11 1342.65 1065.13C1342.55 1065.19 1342.44 1065.25 1342.33 1065.31C1342.29 1065.33 1342.24 1065.36 1342.19 1065.38C1342.11 1065.43 1342.02 1065.48 1341.94 1065.52C1341.89 1065.55 1341.84 1065.58 1341.79 1065.6C1341.7 1065.65 1341.62 1065.7 1341.53 1065.75C1341.49 1065.77 1341.45 1065.79 1341.4 1065.81C1341.28 1065.89 1341.15 1065.96 1341.02 1066.03C1332.95 1070.48 1308.38 1083.68 1293.01 1097.45C1285.43 1104.25 1280.08 1111.18 1280.08 1117.27" />
		</g>
		<path class="shp1" d="M2122.81 622.64C2122.12 622.34 2121.4 622.03 2120.67 621.94C2113.87 621.08 2109.81 624.71 2103.04 625.75C2101.98 625.91 2100.65 625.29 2099.25 624.67C2096.69 623.53 2093.9 622.39 2092.21 626.15C2091.25 628.3 2089.63 633.89 2087.6 638.48C2084.69 645.17 2076.91 651.89 2069.77 656.08C2041.69 672.55 2009.9 680.92 1978.2 688.22C1976.39 688.64 1974.5 689.04 1972.7 688.58C1969.49 687.75 1967.63 684.49 1966.06 681.56C1958.81 667.97 1950.3 655.06 1940.67 643.04C1932.08 632.32 1922.29 622.09 1909.92 616.12C1897.54 610.15 1882.09 609.1 1870.42 616.36C1861.68 621.8 1855.86 631.66 1855.34 641.93C1854.02 667.42 1887.59 683.62 1905.14 696.67C1921.75 709.01 1939.22 720.2 1957.39 730.1C1959.63 731.32 1961.96 732.55 1964.51 732.79C1967.22 733.05 1969.89 732.16 1972.47 731.28C2005.65 719.95 2037.64 705.75 2069.51 690.83C2078.27 686.73 2083.77 678.55 2091.9 674.83C2094.92 673.44 2098.15 673.5 2101.4 673.56C2103.71 673.61 2106 673.65 2108.25 673.17C2113.58 672.03 2120.31 669.17 2124.83 666.14C2133.77 660.17 2134.27 649.07 2135.67 639.43C2136 637.02 2136.25 635.4 2135.48 633.26C2134.23 629.78 2131.23 627.82 2128.31 625.78C2126.58 624.57 2124.75 623.49 2122.81 622.64Z" />
		<path class="shp12" d="M1902.47 687.15C1919.25 675.13 1936.02 663.12 1952.8 651.1C1951.72 651.87 1902.93 571.65 1899.87 566.97C1888.16 549.13 1875.89 530.72 1857.8 519.4C1819.17 495.22 1770.37 530.13 1785.21 574.88C1801.33 623.46 1837.35 669.97 1879.45 698.86C1880.36 699.49 1881.34 700.13 1882.44 700.22C1883.96 700.35 1885.34 699.42 1886.58 698.53C1891.88 694.74 1897.18 690.94 1902.47 687.15Z" />
		<path class="shp1" d="M1863.96 1311.05L1863.23 1362.84L1893.92 1363.25L1894.74 1305.83L1863.96 1311.05Z" />
		<path class="shp3" d="M1891.19 1355.14L1864.5 1363.96L1856.54 1372.53L1857.89 1392.83L1930.04 1398.44C1936.14 1389.56 1932.17 1377.52 1922 1374.03L1918.64 1372.87L1891.19 1355.14Z" />
		<path class="shp1" d="M1642.78 1261.4L1622.45 1309.05L1650.7 1321.07L1673.23 1268.25L1642.78 1261.4Z" />
		<path class="shp3" d="M1650.17 1321.96C1649.16 1320.84 1647.98 1319.78 1646.61 1318.78C1643.21 1316.3 1615.85 1301.8 1613.5 1308.34C1613.12 1309.4 1613.25 1310.56 1613.38 1311.68C1615.63 1330.49 1620.04 1349.03 1626.5 1366.83C1629.26 1374.45 1633.45 1382.88 1641.33 1384.78C1644.78 1385.61 1648.4 1385 1651.87 1384.22C1656.98 1383.06 1662 1381.53 1666.89 1379.66C1668.68 1378.97 1670.58 1378.13 1671.51 1376.45C1673.37 1373.1 1670.13 1369.12 1666.75 1367.31C1663.36 1365.51 1659.24 1364.21 1657.58 1360.75C1656.84 1359.2 1656.74 1357.43 1656.65 1355.71C1655.95 1342.97 1658.12 1330.74 1650.17 1321.96Z" />
		<path class="shp4" d="M1835.61 1071.03C1825.54 1117.08 1796.75 1150.15 1766.01 1184.01C1730.82 1222.76 1697.72 1263.4 1666.9 1305.7C1653.58 1300.15 1640.26 1294.59 1626.94 1289.04C1638.07 1224.33 1668.77 1164.97 1692.55 1103.77C1709.08 1061.25 1722.47 1016.28 1723.19 970.32C1723.55 947.47 1718.02 926.57 1715.05 904.34C1711.38 876.8 1711.17 848.58 1707.85 820.91C1706.74 811.64 1706.1 800.67 1713.24 794.64C1716.41 791.95 1720.6 790.82 1724.68 790.03C1876.16 760.69 1854.76 983.48 1835.61 1071.03ZM1712.21 829.58C1712.13 801.64 1715.54 774.72 1720.76 754.18C1763.85 751.87 1812.55 756.64 1855.16 765.29C1896.81 773.74 1922.79 782.81 1923.09 827.97C1923.65 911.08 1956.13 981.88 1970.16 1061.76C1978.31 1108.18 1964.22 1149.7 1948.62 1192.7C1930.76 1241.9 1915.55 1292.06 1903.09 1342.89C1888.65 1342.8 1874.22 1342.72 1859.79 1342.63C1845.54 1278.54 1851.42 1211.97 1850.21 1146.32C1849.37 1100.71 1844.7 1054.02 1827.93 1011.22C1809.51 964.18 1782.97 982.9 1752.51 955.62C1722.9 929.1 1712.35 877.83 1712.21 829.58Z" />
		<path class="shp5" d="M1761.14 509.74C1756.38 513.43 1752.2 517.88 1748.07 522.28C1744.37 526.23 1740.66 530.18 1736.96 534.13C1724.14 547.8 1717.8 568.05 1712.31 585.52C1683.38 677.47 1672.98 803.62 1691.76 899.7C1763 905.85 1845.46 887.89 1916.54 878.18C1923.45 877.24 1931.29 875.69 1934.87 869.7C1937.05 866.08 1937.11 861.61 1937.11 857.39C1937.1 796.39 1924.21 730.84 1912.12 670.71C1907.02 645.34 1900.73 620.18 1892.67 595.58C1884.14 569.54 1874.52 541.42 1854.55 521.72C1833.19 500.64 1792.28 490.23 1765.54 506.68C1764.01 507.62 1762.55 508.65 1761.14 509.74Z" />
		<path class="shp1" d="M1768.91 522.56C1767.62 514.26 1766.34 505.97 1765.05 497.67C1763.32 496.85 1761.67 495.93 1760.15 494.96C1730.44 475.99 1680.6 374.13 1759.8 351.32C1831.71 330.62 1827.97 429.55 1813.94 470.8C1811.54 477.86 1808.32 484.53 1803.57 490.31C1800.32 494.27 1799.59 493.52 1800.06 498.1C1800.51 502.54 1804.93 507.56 1805.93 512.24C1807 517.23 1806.6 522.76 1803.7 526.96C1801.93 529.54 1799.34 531.45 1796.57 532.92C1792.18 535.24 1787.08 536.53 1782.19 535.6C1776.38 534.5 1769.83 528.5 1768.91 522.56Z" />
		<path class="shp3" d="M1830.83 433.43C1824.82 453.74 1819.72 461.55 1812.55 470.69C1797.52 489.85 1810.01 421.94 1803.81 398.4C1803.34 396.6 1802.88 394.56 1803.85 392.99C1804.76 391.51 1806.61 390.96 1808.3 390.59C1838.59 384.04 1838.5 410.49 1830.83 433.43ZM1751.26 470.12C1746.4 476.95 1735.76 475.11 1728.26 471.35C1697.48 455.87 1679.36 418.62 1686.19 384.85C1691.91 356.6 1727.52 335.41 1734.73 370.42C1737.28 382.83 1729.72 400.03 1731.45 413.8C1733.92 433.48 1743.1 452.3 1751.26 470.12ZM1830.51 325.38C1833.96 326.74 1837.46 328.17 1841.16 329.62C1848.82 332.61 1854.36 333.62 1862.25 329.14C1864.51 327.86 1879.63 313.56 1876 310.59C1900.12 330.27 1880.28 359 1871.23 379.33C1865.13 393.04 1863.88 412.39 1850.17 421.34C1835.1 431.2 1824.75 418.74 1811.06 413.16C1798.99 408.23 1785.94 405.57 1773.65 401.18C1753.26 393.91 1722.93 381.13 1729.69 354.05C1737.57 322.42 1769.62 314.53 1798.41 316.95C1810.71 317.98 1820.35 321.36 1830.51 325.38Z" />
		<path class="shp2" d="M2152.81 933.8L2078.23 821.55L2078.23 440.24C2078.23 433.55 2086.92 430.93 2090.6 436.5L2152.81 530.11L2152.81 933.8Z" />
		<path class="shp22" d="M2149.48 533.83L2085.46 438.81L2059.02 444.29L2135.75 540.38L2135.75 937.19L2149.48 933.8L2149.48 533.83ZM1847.35 505.19L1893.03 488.59L2135.75 540.38L2135.75 924.4L1847.35 872.45L1847.35 505.19Z" />
		<path class="shp2" d="M2115.4 945.67L1832.36 906.51C1826.05 905.27 1821.5 899.73 1821.5 893.29L1821.5 517.07C1821.5 508.58 1829.26 502.2 1837.6 503.85L2115.4 541.97L2115.4 945.67Z" />
		<path class="shp6" d="M2152.81 530.11C2152.1 532.94 2145 537.29 2135.75 540.38C2125.73 543.73 2116.85 544.38 2115.5 541.93L2115.4 541.97L2115.4 944.62C2115.31 944.93 2115.31 945.22 2115.4 945.49L2115.4 945.67L2115.46 945.65C2116.58 948.24 2125.56 947.63 2135.75 944.23C2146.02 940.8 2153.62 935.83 2152.81 933.09L2152.81 530.11Z" />
		<path class="shp23" d="M2059.02 444.3L2059.02 524.01L2135.75 540.38L2059.02 444.3Z" />
		<path class="shp25" d="M2135.75 540.38L1914.84 482.92L1914.84 493.24L2135.75 540.38Z" />
		<path class="shp10" d="M1854.99 829.96L2088.19 862.22L2088.19 914.45L1854.99 882.19L1854.99 829.96Z" />
		<g clip-path="url(#cp7)">
			<path class="shp32" d="M2115.38 945.67L1935.3 920.76L1935.3 920.75L2115.38 945.67Z" />
			<path class="shp33" d="M1935.3 920.76L1832.36 906.52L1935.3 920.75L1935.3 920.76Z" />
			<path class="shp34" d="M2115.4 945.67L2115.38 945.67L1935.3 920.75L1832.36 906.51C1852.95 901.65 1872.09 895.04 1889.85 887.01L2088.19 914.45L2088.19 862.22L1958.66 844.3C2091.9 735.71 2115.4 541.97 2115.4 541.97L2115.4 944.62C2115.31 944.93 2115.31 945.22 2115.4 945.49L2115.4 945.67Z" />
			<path class="shp35" d="M2115.4 945.67L2115.4 945.49C2115.31 945.22 2115.31 944.93 2115.4 944.62L2115.4 541.97L2115.4 945.67" />
			<path class="shp36" d="M2088.19 914.45L1889.85 887.01C1915.54 875.41 1938.37 860.84 1958.66 844.3L2088.19 862.22L2088.19 914.45Z" />
		</g>
		<path class="shp1" d="M1998.52 790.03C1998.01 789.47 1997.47 788.9 1996.83 788.52C1990.94 785.02 1985.76 786.73 1979.15 784.99C1976.2 784.21 1973.76 776.75 1969.05 781.04C1967.31 782.62 1963.6 787.1 1959.92 790.5C1954.56 795.47 1944.76 798.53 1936.54 799.52C1904.21 803.43 1871.73 798.42 1839.75 792.46C1837.92 792.12 1836.03 791.74 1834.57 790.6C1831.95 788.55 1831.54 784.82 1831.28 781.52C1830.05 766.16 1827.4 750.93 1823.36 736.07C1819.76 722.81 1814.87 709.52 1805.9 699.11C1796.93 688.7 1783.18 681.58 1769.59 683.57C1759.41 685.07 1750.14 691.79 1745.55 701C1734.18 723.84 1758.49 752.1 1769.39 771.06C1779.69 789.01 1791.25 806.23 1803.96 822.56C1805.53 824.58 1807.18 826.64 1809.41 827.87C1811.8 829.19 1814.6 829.45 1817.32 829.66C1852.26 832.51 1887.26 832.25 1922.44 831.29C1932.11 831.02 1940.41 825.71 1949.35 825.55C1955.05 825.44 1959.6 829.46 1965.01 830.55C1970.36 831.63 1977.65 831.69 1983.02 830.72C1993.6 828.81 1998.48 818.84 2003.6 810.54C2004.88 808.48 2005.75 807.09 2005.9 804.82C2006.15 801.13 2004.16 798.13 2002.3 795.09C2001.2 793.29 1999.95 791.57 1998.52 790.03Z" />
		<path class="shp5" d="M1770.74 761.27C1790.91 756.94 1811.09 752.62 1831.26 748.29C1829.97 748.57 1817.24 655.55 1816.29 650.03C1812.68 629 1808.77 607.23 1796.7 589.62C1770.92 552.04 1712.25 564.58 1708.01 611.54C1703.4 662.52 1717.88 719.54 1744.95 762.83C1745.54 763.76 1746.18 764.74 1747.16 765.27C1748.5 765.99 1750.14 765.69 1751.63 765.37C1758 764 1764.37 762.63 1770.74 761.27Z" />
		<path class="shp3" d="M1048.58 1297.43C1046.06 1275.64 1035.14 1258.35 1014.97 1248.87C998.61 1241.19 980.21 1239.39 962.28 1237.09C922.35 1231.96 884.24 1226.84 843.92 1228.43C811.68 1229.69 791.81 1257.2 776.72 1284.33C767.21 1301.42 769.86 1309.44 781.83 1323.76C792.86 1336.96 806.26 1348.2 821.22 1356.7C850.86 1373.54 896.37 1369.38 929 1365.74C959.8 1362.31 989.95 1353.11 1017.42 1338.76C1035.1 1329.53 1051.03 1318.64 1048.58 1297.43ZM846.87 1356.64C841.52 1369.16 836.85 1381.98 832.87 1395C830.77 1401.89 828.84 1408.98 829.11 1416.18C829.73 1433.04 848.49 1445.26 860.76 1429.67C866.13 1422.84 870.44 1415.18 873.48 1407.04C877.98 1395.04 868.48 1402.03 860.46 1398.35C851.23 1394.1 851.45 1390.8 855.37 1382.15C860.42 1371 866.4 1363.73 865.68 1350.9C865.49 1347.36 864.49 1343.25 861.22 1341.86C858.74 1340.81 855.77 1341.83 853.81 1343.67C851.84 1345.51 850.67 1348.02 849.56 1350.47C848.65 1352.52 847.75 1354.58 846.87 1356.64Z" />
		<path class="shp37" d="M909.44 959.93C920.32 960.99 931.2 962.05 942.08 963.1C943.75 953.51 944.74 943.76 945.03 933.99C954.51 932.35 965.66 929.24 968.92 919.11C969.94 915.91 969.99 912.44 970.01 909.05C970.14 895 970.26 880.96 970.39 866.92C970.43 862.06 970.45 857.06 968.83 852.55C965.98 844.64 958.73 839.91 951.61 836.93C933.45 829.33 912.26 829.6 895.47 840.33C891 843.19 886.78 846.87 884.2 851.87C880.22 859.57 880.71 869.1 881.31 878C881.86 886.22 882.42 894.43 882.97 902.65C883.61 912.1 884.98 922.98 892.16 927.98C895.97 930.64 900.9 931.14 904.19 934.57C909.98 940.63 907.31 951.38 909.44 959.93Z" />
		<path class="shp3" d="M954.01 851.81C954.47 852.58 954.86 853.37 955.16 854.2C956.75 858.53 955.82 863.47 957.37 867.82C959.83 874.71 967.99 878.73 969.34 885.92C970.44 891.8 966.51 897.48 966.28 903.46C966.02 910 970.31 916.1 969.78 922.55C969.31 928.15 965.91 936.08 962.65 940.63C963.66 939.22 973.03 939.55 975.43 938.02C979.12 935.68 979.51 934.24 980.55 930.34C981.59 926.47 980.66 922.69 982.31 918.71C984.33 913.83 988.58 910.2 990 905.01C991.94 897.93 988.06 890.57 988.22 883.22C988.47 872.11 997.88 861.49 994.21 850.99C992.06 844.84 985.97 840.99 982.5 835.48C979.85 831.29 978.82 826.32 976.95 821.73C975.09 817.15 971.95 812.58 967.17 811.26C964.52 810.53 961.69 810.9 958.98 810.45C954.29 809.66 950.35 806.5 945.82 805.06C939.34 803 928.09 809.71 924.43 815.24C920.8 820.72 922.76 825.3 926.66 830.02C933.16 837.89 948.6 842.83 954.01 851.81ZM861.57 821.45C857.76 824.35 853.03 826.49 849.56 829.86C842.8 836.43 841.68 846.77 841.6 856.2C841.53 864.6 837.99 872.12 839.06 880.85C839.77 886.71 842.37 892.6 847.21 895.99C853.24 900.2 862.6 900.74 865.38 907.55C868.4 914.95 860.85 924.47 865.65 930.85C868.29 934.38 873.37 934.81 877.11 937.14C881.28 939.75 883.48 944.49 886.08 948.66C888.67 952.84 892.53 957 897.45 957.02C897.51 949.54 897.63 943.61 894.31 936.83C892.38 932.88 886.78 925.63 890.9 921.24C893.49 917.61 899.74 916.34 899.82 911.88C899.86 909.78 898.36 908.02 897.18 906.29C892.6 899.61 891.99 890.6 894.88 883.02C897.77 875.44 903.89 869.32 911.12 865.66C919.6 861.37 918.19 859.3 920.52 851.07C922.68 843.5 926.92 841.66 933.65 838.79C939.7 836.21 941.63 834.64 943.77 828.9C945.35 824.7 947.28 819.67 944.81 815.06C942.85 811.4 939.39 808.81 936.04 806.35C929.04 801.21 921.19 795.81 912.54 796.59C907.74 797.02 903.25 799.36 898.44 799.72C895.23 799.96 892.03 799.31 888.81 799.26C883.33 799.17 877.58 800.94 873.2 804.28C868.78 807.65 868.97 811.1 866.56 815.81C865.39 818.12 863.61 819.9 861.57 821.45ZM880.41 790.37C881.16 785.15 880.5 778.37 875.49 776.7C872.75 775.78 869.71 776.89 866.87 776.37C860.81 775.25 858.63 767.97 855.36 762.74C854.88 761.96 854.3 761.17 853.45 760.81C852.24 760.29 850.86 760.79 849.56 760.98C843.56 761.82 838.89 755.97 833.19 753.92C826.14 751.38 817.41 755.92 815.43 763.14C814.61 766.11 814.82 769.29 814.06 772.27C810.98 784.36 793.45 789.79 793.23 802.26C793.08 810.69 801.46 818.61 798.4 826.46C796.44 831.48 790.09 834.99 790.91 840.32C791.45 843.75 795.15 846.02 798.61 845.91C802.08 845.8 805.23 843.84 807.8 841.51C811.88 837.82 814.93 833.12 818.8 829.22C822.68 825.31 827.9 822.11 833.37 822.69C838.67 823.26 843.53 827.29 848.77 826.32C852.96 825.54 856.02 821.73 860.13 820.6C863.98 819.54 868.02 820.99 872.01 821.16C875.99 821.33 880.84 819.17 880.88 815.18C880.89 814.21 880.6 813.22 880.89 812.3C881.69 809.71 886.09 809.78 886.87 807.19C884.74 804.02 881.83 805.22 880.26 801.06C879.05 797.85 879.94 793.65 880.41 790.37Z" />
		<path class="shp22" d="M938.96 949.4C954.15 947.37 969.56 944.62 982.29 950.16C993.06 954.86 992.87 968.47 995.29 978.75C1003.26 1012.78 1009.25 1047.22 1013.94 1081.84C1016.18 1098.4 1020.05 1116.12 1019.96 1132.84C1019.88 1146.26 1016.52 1159.3 1017.55 1172.97C1018.35 1183.48 1022.81 1194.82 1032.43 1199.11C1037.27 1201.27 1042.83 1201.37 1047.68 1203.51C1052.53 1205.65 1056.69 1211.36 1054.25 1216.07C1053.09 1218.31 1050.76 1219.65 1048.56 1220.88C1036.56 1227.57 1024.56 1234.26 1012.57 1240.95C1003.41 1246.06 994.19 1251.19 984.32 1254.74C970.33 1259.76 955.37 1261.48 940.52 1262.23C902.18 1264.18 863.52 1259.94 826.51 1249.73C806.59 1244.22 787.34 1234.47 792.17 1211.93C797.15 1188.72 806.77 1165.57 817.14 1144.32C829.7 1118.6 833.43 1087.61 842.33 1060.46C851.34 1032.96 860.88 1005.63 870.49 978.32L870.6 978.01C874.11 968.03 875.55 958.16 883.28 950.06C893.87 938.98 898.96 947.79 910.99 950.04C919.71 951.68 929.29 950.69 938.96 949.4Z" />
		<path class="shp37" d="M976.25 1370.46C979.7 1370.64 983.16 1370.83 986.61 1371.01C990.37 1371.21 994.56 1371.27 997.35 1368.76C1000.77 1365.69 1000.38 1359.89 997.62 1356.23C994.86 1352.56 990.41 1350.6 986.04 1349.2C975.49 1345.82 964.33 1344.78 953.26 1344.35C952.15 1344.3 951 1344.27 949.97 1344.69C948.18 1345.41 947.16 1347.3 946.55 1349.14C940.27 1368.21 962.82 1369.74 976.25 1370.46ZM843.25 1402.93C843.06 1404.47 842.89 1406.1 843.55 1407.5C844.03 1408.52 844.91 1409.3 845.86 1409.91C852.99 1414.45 862.57 1409.56 868.03 1403.1C873.48 1396.65 877.18 1388.48 884.14 1383.69C900.07 1372.71 885.49 1352.62 868.84 1357.22C849.4 1362.6 845.32 1385.95 843.25 1402.93Z" />
		<path class="shp3" d="M1057.94 1299.46C1071.7 1289.35 1085.49 1277.89 1090.52 1260.86C1095.55 1243.84 1088.45 1219.79 1070.7 1209.97C1049.06 1198 1027.8 1212.71 1012.37 1226.6C980.76 1255.01 946.31 1280.14 912.63 1306.13C901.24 1314.91 861.75 1347.25 861.75 1347.25C860.67 1351.81 881.89 1393.05 887.52 1391.55C948.96 1375.3 1008.72 1335.62 1057.94 1299.46ZM748.69 1319.05C735.22 1312.49 721.67 1304.59 716.34 1288.84C711.02 1273.1 717.07 1247.18 733.76 1232.75C754.1 1215.15 774.89 1224.37 790.08 1234.28C821.19 1254.55 854.92 1270.78 887.94 1288.07C899.1 1293.92 937.87 1316.07 937.87 1316.07C939.05 1320.35 919.99 1367.15 914.56 1367.09C855.27 1366.75 796.88 1342.51 748.69 1319.05ZM953.08 1378.78C965.46 1384.8 978.16 1390.16 991.12 1394.82C997.97 1397.29 1005.03 1399.58 1012.32 1399.67C1029.37 1399.88 1042.64 1381.54 1027.5 1368.39C1020.88 1362.62 1013.35 1357.9 1005.29 1354.41C993.4 1349.28 999.98 1359.21 995.86 1367.13C991.12 1376.25 987.8 1375.86 979.25 1371.47C968.25 1365.81 961.21 1359.41 948.22 1359.5C944.63 1359.52 940.43 1360.33 938.87 1363.56C937.68 1366.01 938.57 1369.06 940.32 1371.13C942.08 1373.21 944.56 1374.52 946.98 1375.75C949.01 1376.78 951.04 1377.79 953.08 1378.78Z" />
		<path class="shp37" d="M1130.87 1151.71C1130.68 1150.9 1130.48 1150.06 1130.52 1149.25C1130.91 1141.74 1135.61 1138.05 1138.03 1130.96C1139.11 1127.79 1133.78 1121.04 1140.56 1119.34C1147.58 1117.58 1161.17 1118.77 1165.92 1112.34C1168.02 1109.49 1170.61 1105.76 1174.04 1106.61C1175.21 1106.9 1176.18 1107.72 1177.04 1108.56C1205.79 1136.36 1177.85 1169.85 1146.52 1168.8C1143.86 1168.71 1142.06 1168.66 1139.9 1167.42C1136.38 1165.4 1134.85 1161.78 1133.2 1158.23C1132.23 1156.13 1131.42 1153.95 1130.87 1151.71Z" />
		<path class="shp22" d="M1185.95 1156.72C1193.07 1159.7 1201.81 1156.68 1206.69 1150.71C1211.57 1144.73 1212.93 1136.42 1211.67 1128.81C1210.41 1121.2 1206.78 1114.17 1202.56 1107.71C1197.56 1100.05 1191.27 1092.69 1182.73 1089.44C1177.96 1087.62 1172.79 1087.2 1167.7 1087.09C1164.26 1087.02 1160.45 1087.22 1157.97 1089.61C1156.2 1091.32 1155.48 1093.83 1154.95 1096.24C1151.52 1111.89 1154.22 1114.17 1164.47 1124.57C1173.56 1133.8 1180.22 1145.2 1185.95 1156.72Z" />
		<path class="shp23" d="M714.04 985.37L714.04 961.35C714.04 961.35 842.87 949.38 920.35 1000.98L714.04 985.37Z" />
		<path class="shp22" d="M687.65 982.81L704.91 969.51C704.91 969.51 810.26 949.38 920.35 1000.97L920.35 1287.38C920.35 1287.38 845.7 1233.71 687.65 1254.79L687.65 982.81Z" />
		<path class="shp23" d="M1126.66 985.37L1126.66 961.35C1126.66 961.35 997.83 949.38 920.35 1000.98L1126.66 985.37Z" />
		<path class="shp22" d="M1153.05 982.81L1135.79 969.51C1135.79 969.51 1030.44 949.38 920.35 1000.97L920.35 1287.38C920.35 1287.38 995 1233.71 1153.05 1254.79L1153.05 982.81Z" />
		<path class="shp2" d="M920.37 1000.83C932.38 1000.18 941.51 997.32 942.01 993.86L942.21 993.63L942.03 993.56C942.24 993.51 942.44 993.46 942.65 993.41C946.06 991.89 962.15 988.66 967.05 987.61C967.39 987.54 967.74 987.46 968.08 987.39L968.28 987.34C981.93 983.9 995.77 981.36 1009.71 979.5C1062.61 971.22 1101.43 972.7 1123.27 975.9C1131.42 976.9 1139.38 978.55 1146.96 981.15C1148.35 981.62 1149.67 982.16 1150.89 982.81L1150.91 982.81L1150.91 982.82C1153.51 984.18 1155.72 986.02 1157.41 988.75C1159.67 992.42 1159.79 996 1159.79 1000.14L1159.79 1253.1C1159.79 1260.24 1153.88 1267.31 1146.86 1266.02C1103.67 1258.06 1068.49 1258.33 1041.43 1260.25C1012.91 1262.27 984.46 1266.6 956.85 1274.13C947.86 1276.58 936.6 1278.5 928.35 1282.94C927.56 1283.36 926.7 1283.67 925.79 1283.84C925.23 1283.95 924.65 1284.01 924.06 1284.01C923.36 1284.01 922.69 1283.93 922.04 1283.78C921.39 1283.54 920.72 1283.3 920.02 1283.06C917.05 1281.58 915 1278.5 915 1274.95L915 1007C915 1004.85 916.88 1002.78 920.37 1000.83ZM920.41 1000.83C908.41 1000.18 899.28 997.32 898.78 993.86L898.58 993.63L898.75 993.56C898.55 993.51 898.34 993.46 898.14 993.41C894.72 991.89 878.63 988.66 873.74 987.61C873.4 987.54 873.05 987.46 872.7 987.39L872.51 987.34C858.86 983.9 845.02 981.36 831.07 979.5C778.18 971.22 739.36 972.7 717.52 975.9C709.36 976.9 701.4 978.55 693.82 981.15C692.43 981.62 691.12 982.16 689.89 982.81L689.88 982.81L689.88 982.82C687.27 984.18 685.06 986.02 683.38 988.75C681.11 992.42 681 996 681 1000.14L681 1253.1C681 1260.24 686.9 1267.31 693.93 1266.02C737.11 1258.06 772.3 1258.33 799.35 1260.25C827.88 1262.27 856.33 1266.6 883.94 1274.13C892.93 1276.58 904.19 1278.5 912.44 1282.94C913.23 1283.36 914.09 1283.67 914.99 1283.84C915.55 1283.95 916.13 1284.01 916.72 1284.01C917.42 1284.01 918.1 1283.93 918.75 1283.78C919.39 1283.54 920.06 1283.3 920.76 1283.06C923.74 1281.58 925.79 1278.5 925.79 1274.95L925.79 1007C925.79 1004.85 923.9 1002.78 920.41 1000.83Z" />
		<g clip-path="url(#cp8)">
			<path class="shp38" d="M898.7 1277.85C897.14 1277.43 895.58 1277.03 894.02 1276.65C895.58 1277.03 897.14 1277.43 898.7 1277.85Z" />
			<path class="shp39" d="M714.04 1262.81L714.04 1262.81C714.77 1262.71 715.49 1262.61 716.21 1262.52C716.2 1262.52 716.2 1262.52 716.2 1262.52C715.49 1262.62 714.77 1262.71 714.04 1262.81Z" />
			<path class="shp38" d="M856.1 1267.64C852.22 1266.88 848.32 1266.18 844.41 1265.52C848.32 1266.18 852.22 1266.88 856.1 1267.64ZM844.41 1265.52C829.49 1263.03 814.43 1261.32 799.35 1260.25C790.04 1259.59 779.75 1259.12 768.51 1259.12C752.92 1259.12 735.48 1260.02 716.2 1262.52C716.2 1262.52 716.2 1262.52 716.21 1262.52C735.47 1260.02 752.9 1259.12 768.49 1259.12C779.74 1259.12 790.03 1259.59 799.35 1260.25C814.43 1261.32 829.49 1263.03 844.41 1265.52Z" />
			<path class="shp40" d="M898.7 1277.85C897.14 1277.43 895.58 1277.03 894.02 1276.65C890.53 1275.79 887.09 1274.99 883.94 1274.13C874.74 1271.62 865.45 1269.47 856.1 1267.64C852.22 1266.88 848.32 1266.18 844.41 1265.52C829.49 1263.03 814.43 1261.32 799.35 1260.25C790.03 1259.59 779.74 1259.12 768.49 1259.12C752.9 1259.12 735.47 1260.02 716.21 1262.52C715.49 1262.61 714.77 1262.71 714.05 1262.8C873 1211.72 898.7 1044.52 898.7 1044.52L898.74 1044.52L898.7 1277.85Z" />
		</g>
		<path class="shp6" d="M920.46 1000.29C908.44 1000.29 898.7 996.87 898.75 993.56L898.7 1279.95C898.7 1284.06 908.44 1287.38 920.46 1287.38C932.48 1287.38 942.22 1284.06 942.22 1279.95L942.21 993.63C941.15 997.41 932.47 1000.29 920.46 1000.29Z" />
		<g clip-path="url(#cp9)">
			<path fill-rule="evenodd" class="shp41" d="M916.66 1000.17C917.2 1000.2 917.76 1000.23 918.32 1000.25C917.76 1000.23 917.2 1000.2 916.66 1000.17ZM913.04 999.84C913.04 999.84 913.04 999.84 913.03 999.84C914.2 999.98 915.41 1000.09 916.66 1000.17C915.41 1000.09 914.2 999.98 913.04 999.84ZM913.03 999.84C913.03 999.84 913.03 999.84 913.03 999.84C913.03 999.84 913.03 999.84 913.03 999.84C913.03 999.84 913.03 999.84 913.03 999.84ZM912.99 999.83C912.98 999.83 912.98 999.83 912.97 999.83C912.99 999.83 913.01 999.84 913.03 999.84C913.02 999.84 913 999.84 912.99 999.83ZM912.97 999.83C912.97 999.83 912.97 999.83 912.96 999.83C912.96 999.83 912.96 999.83 912.97 999.83C912.97 999.83 912.97 999.83 912.97 999.83ZM912.92 999.83C912.92 999.83 912.91 999.82 912.91 999.82C912.89 999.82 912.88 999.82 912.86 999.82C905.02 998.83 899.33 996.4 898.79 993.96C898.79 993.93 898.78 993.89 898.78 993.86L898.77 993.85C898.76 993.79 898.76 993.72 898.75 993.65L898.75 993.56C898.55 993.51 898.34 993.46 898.14 993.41C894.98 992 880.95 989.13 875.01 987.88C880.95 989.13 894.98 992 898.14 993.4C898.34 993.46 898.55 993.51 898.75 993.56L898.78 993.85L898.78 993.86L898.8 993.97C899.35 996.42 905.08 998.85 912.96 999.83C912.95 999.83 912.94 999.83 912.92 999.83ZM898.75 993.83L898.58 993.64L898.75 993.8L898.75 993.83Z" />
			<path class="shp42" d="M681.46 993.61C681.8 991.97 682.38 990.37 683.38 988.75C682.38 990.37 681.8 991.97 681.46 993.61Z" />
			<path class="shp41" d="M873.74 987.61C873.4 987.54 873.05 987.46 872.7 987.39C873.05 987.46 873.39 987.54 873.74 987.61Z" />
			<path class="shp42" d="M684.25 987.48C685.25 986.16 686.39 985.08 687.65 984.18C686.39 985.08 685.25 986.16 684.25 987.48Z" />
			<path fill-rule="evenodd" class="shp41" d="M872.51 987.34C858.86 983.9 845.02 981.36 831.07 979.5C845.02 981.36 858.86 983.9 872.51 987.34ZM687.65 984.18C688.36 983.67 689.1 983.22 689.88 982.82C689.1 983.22 688.36 983.67 687.65 984.18ZM689.88 982.81L689.89 982.81C691.12 982.16 692.43 981.62 693.82 981.15C696.6 980.19 699.43 979.37 702.3 978.66C699.43 979.37 696.6 980.19 693.82 981.15C692.43 981.62 691.12 982.16 689.89 982.81L689.88 982.81ZM830.39 979.4C801.7 974.94 777.17 973.36 757.27 973.36C777.17 973.36 801.7 974.94 830.39 979.4Z" />
			<path class="shp43" d="M681 1004.9L681 1000.14C681 997.83 681.04 995.69 681.46 993.61C681.8 991.97 682.38 990.37 683.38 988.75C683.66 988.3 683.95 987.88 684.25 987.48C685.25 986.16 686.39 985.08 687.65 984.18C688.36 983.67 689.1 983.22 689.88 982.82L689.88 982.81L689.88 982.81L689.89 982.81C691.12 982.16 692.43 981.62 693.82 981.15C696.6 980.19 699.43 979.37 702.3 978.66C707.26 977.43 712.35 976.53 717.52 975.9C727.39 974.45 740.73 973.36 757.27 973.36C777.17 973.36 801.7 974.94 830.39 979.4C830.62 979.43 830.85 979.47 831.07 979.5C845.02 981.36 858.86 983.9 872.51 987.34L872.7 987.39C873.05 987.46 873.4 987.54 873.74 987.61C874.1 987.69 874.53 987.78 875.01 987.88C880.95 989.13 894.98 992 898.14 993.41C898.34 993.46 898.55 993.51 898.75 993.56L898.66 993.6L898.57 993.63L898.58 993.64L898.75 993.83L898.75 998.31C898.55 998.26 898.34 998.21 898.14 998.16C894.72 996.64 878.63 993.42 873.74 992.37C873.39 992.29 873.05 992.22 872.7 992.14L872.51 992.1C858.86 988.66 845.02 986.11 831.07 984.26C802.08 979.72 777.32 978.11 757.26 978.11C740.73 978.11 727.39 979.21 717.52 980.65C709.37 981.66 701.4 983.3 693.82 985.9C692.43 986.38 691.12 986.92 689.89 987.56L689.88 987.57L689.88 987.57C687.27 988.94 685.06 990.78 683.38 993.51C681.11 997.17 681 1000.76 681 1004.9ZM898.79 993.96C898.79 993.93 898.78 993.89 898.77 993.85L898.78 993.86C898.78 993.89 898.79 993.93 898.79 993.96Z" />
			<path class="shp44" d="M1157.09 988.25C1155.94 986.55 1154.59 985.21 1153.05 984.12C1154.59 985.2 1155.94 986.55 1157.09 988.25Z" />
			<path class="shp45" d="M921.6 1000.27C921.69 1000.27 921.77 1000.27 921.85 1000.27C921.77 1000.27 921.69 1000.27 921.6 1000.27Z" />
			<path fill-rule="evenodd" class="shp41" d="M921.85 1000.27C932.13 1000.08 939.72 997.74 941.77 994.59C941.89 994.35 941.97 994.1 942.01 993.86L942.21 993.63L942.03 993.56L942.21 993.63L942.01 993.86C941.97 994.1 941.9 994.34 941.78 994.58C939.74 997.74 932.14 1000.08 921.85 1000.27ZM942.03 993.56C942.24 993.51 942.44 993.46 942.65 993.4C946.06 991.89 962.15 988.66 967.05 987.61C967.33 987.55 967.62 987.49 967.9 987.42C967.62 987.49 967.33 987.55 967.05 987.61C962.15 988.66 946.06 991.89 942.65 993.41C942.44 993.46 942.24 993.51 942.03 993.56ZM968.28 987.34C981.93 983.9 995.77 981.36 1009.71 979.5C1038.7 974.96 1063.46 973.36 1083.51 973.36C1063.46 973.36 1038.7 974.96 1009.71 979.5C995.77 981.36 981.93 983.9 968.28 987.34ZM1153.05 984.12C1152.37 983.64 1151.65 983.21 1150.91 982.82L1150.91 982.81L1150.91 982.82C1151.66 983.21 1152.37 983.64 1153.05 984.12ZM1150.91 982.81L1150.89 982.81C1149.67 982.16 1148.35 981.62 1146.96 981.15C1148.35 981.62 1149.67 982.16 1150.89 982.81L1150.91 982.81ZM1146.79 981.09C1141.59 979.31 1136.21 977.99 1130.72 977.01C1136.21 977.99 1141.59 979.31 1146.79 981.09Z" />
			<path class="shp43" d="M1159.78 1004.05C1159.76 1000.27 1159.52 996.92 1157.41 993.51C1155.72 990.78 1153.51 988.94 1150.91 987.57L1150.91 987.57L1150.89 987.56C1149.67 986.92 1148.35 986.38 1146.96 985.9C1139.38 983.3 1131.42 981.66 1123.27 980.65C1113.4 979.21 1100.06 978.11 1083.52 978.11C1063.46 978.11 1038.7 979.72 1009.71 984.26C995.77 986.11 981.93 988.66 968.28 992.1L968.08 992.14C967.74 992.22 967.39 992.29 967.05 992.37C962.15 993.42 946.06 996.64 942.65 998.16C942.5 998.2 942.36 998.24 942.21 998.27L942.21 993.63C942.12 993.96 941.98 994.27 941.78 994.58C941.9 994.34 941.97 994.1 942.01 993.86L942.21 993.63L942.03 993.56C942.24 993.51 942.44 993.46 942.65 993.41C946.06 991.89 962.15 988.66 967.05 987.61C967.33 987.55 967.62 987.49 967.9 987.42C967.96 987.41 968.02 987.4 968.08 987.39L968.28 987.34C981.93 983.9 995.77 981.36 1009.71 979.5C1038.7 974.96 1063.46 973.36 1083.51 973.36C1100.05 973.36 1113.4 974.45 1123.27 975.9C1125.77 976.2 1128.26 976.57 1130.72 977.01C1136.21 977.99 1141.59 979.31 1146.79 981.09C1146.85 981.11 1146.91 981.13 1146.96 981.15C1148.35 981.62 1149.67 982.16 1150.89 982.81L1150.91 982.81L1150.91 982.82C1151.65 983.21 1152.37 983.64 1153.05 984.12C1154.59 985.21 1155.94 986.55 1157.09 988.25C1157.19 988.41 1157.3 988.58 1157.41 988.75C1159.52 992.16 1159.76 995.51 1159.78 999.29L1159.78 1004.05Z" />
			<path fill-rule="evenodd" class="shp41" d="M920.46 1000.29C920.5 1000.29 920.54 1000.29 920.58 1000.29C920.54 1000.29 920.5 1000.29 920.46 1000.29ZM920.39 1000.29C920.38 1000.29 920.37 1000.29 920.36 1000.29C920.37 1000.29 920.38 1000.29 920.39 1000.29ZM920.59 1000.29C920.63 1000.28 920.66 1000.28 920.7 1000.28C920.66 1000.28 920.63 1000.28 920.59 1000.29ZM920.32 1000.28C920.31 1000.28 920.3 1000.28 920.29 1000.28C920.3 1000.28 920.31 1000.28 920.32 1000.28ZM920.25 1000.28C920.24 1000.28 920.23 1000.28 920.21 1000.28C920.23 1000.28 920.24 1000.28 920.25 1000.28ZM920.72 1000.28C920.76 1000.28 920.8 1000.28 920.83 1000.28C920.8 1000.28 920.76 1000.28 920.72 1000.28ZM920.18 1000.28C920.17 1000.28 920.15 1000.28 920.14 1000.28C920.15 1000.28 920.17 1000.28 920.18 1000.28ZM920.11 1000.28C920.1 1000.28 920.09 1000.28 920.07 1000.28C920.09 1000.28 920.1 1000.28 920.11 1000.28ZM920.85 1000.28C920.89 1000.28 920.93 1000.28 920.96 1000.28C920.93 1000.28 920.89 1000.28 920.85 1000.28ZM920.04 1000.28C920.03 1000.28 920.02 1000.28 920.01 1000.28C920.02 1000.28 920.03 1000.28 920.04 1000.28ZM920.98 1000.28C921.1 1000.28 921.22 1000.28 921.35 1000.28C921.22 1000.28 921.1 1000.28 920.98 1000.28ZM919.98 1000.28C919.96 1000.28 919.95 1000.28 919.94 1000.28C919.95 1000.28 919.96 1000.28 919.98 1000.28ZM919.91 1000.28C919.89 1000.28 919.88 1000.28 919.87 1000.28C919.88 1000.28 919.89 1000.28 919.91 1000.28ZM919.84 1000.28C919.83 1000.28 919.81 1000.28 919.8 1000.28C919.82 1000.28 919.83 1000.28 919.84 1000.28ZM919.77 1000.28C919.76 1000.28 919.74 1000.28 919.73 1000.28C919.74 1000.28 919.76 1000.28 919.77 1000.28ZM919.7 1000.28C919.69 1000.28 919.68 1000.28 919.67 1000.28C919.68 1000.28 919.69 1000.28 919.7 1000.28ZM919.64 1000.28C919.62 1000.28 919.61 1000.28 919.59 1000.28C919.61 1000.28 919.62 1000.28 919.64 1000.28ZM921.35 1000.28C921.37 1000.28 921.39 1000.28 921.4 1000.28C921.39 1000.28 921.37 1000.28 921.35 1000.28Z" />
			<path class="shp45" d="M921.4 1000.28C921.42 1000.28 921.45 1000.28 921.47 1000.28C921.45 1000.28 921.42 1000.28 921.4 1000.28Z" />
			<path class="shp41" d="M919.57 1000.28C919.56 1000.28 919.54 1000.28 919.53 1000.28C919.54 1000.28 919.56 1000.28 919.57 1000.28Z" />
			<path class="shp45" d="M921.48 1000.28C921.52 1000.28 921.56 1000.28 921.6 1000.27C921.56 1000.28 921.52 1000.28 921.48 1000.28Z" />
			<path class="shp41" d="M919.5 1000.28C919.49 1000.28 919.47 1000.28 919.46 1000.28C919.47 1000.28 919.49 1000.28 919.5 1000.28ZM919.43 1000.28C919.42 1000.27 919.41 1000.27 919.4 1000.27C919.41 1000.27 919.42 1000.27 919.43 1000.28ZM919.36 1000.27C919.35 1000.27 919.34 1000.27 919.32 1000.27C919.34 1000.27 919.35 1000.27 919.36 1000.27ZM919.3 1000.27C919.3 1000.27 919.29 1000.27 919.29 1000.27C919.29 1000.27 919.3 1000.27 919.3 1000.27Z" />
			<path class="shp45" d="M919.29 1000.27C919.28 1000.27 919.27 1000.27 919.25 1000.27C919.27 1000.27 919.28 1000.27 919.29 1000.27ZM919.24 1000.27C919.22 1000.27 919.2 1000.27 919.18 1000.27C919.2 1000.27 919.22 1000.27 919.24 1000.27ZM919.18 1000.27C919.16 1000.27 919.14 1000.27 919.12 1000.27C919.14 1000.27 919.16 1000.27 919.18 1000.27ZM919.1 1000.27C919.06 1000.27 919.02 1000.27 918.98 1000.27C919.02 1000.27 919.06 1000.27 919.1 1000.27ZM918.98 1000.27C918.93 1000.27 918.88 1000.26 918.83 1000.26C918.88 1000.26 918.93 1000.27 918.98 1000.27Z" />
			<path class="shp41" d="M918.83 1000.26C918.79 1000.26 918.75 1000.26 918.72 1000.26C918.75 1000.26 918.79 1000.26 918.83 1000.26ZM918.72 1000.26C918.7 1000.26 918.68 1000.26 918.66 1000.26C918.68 1000.26 918.7 1000.26 918.72 1000.26ZM918.65 1000.26C918.64 1000.26 918.62 1000.26 918.6 1000.26C918.62 1000.26 918.64 1000.26 918.65 1000.26ZM918.58 1000.26C918.52 1000.25 918.45 1000.25 918.39 1000.25C918.45 1000.25 918.52 1000.25 918.58 1000.26ZM918.39 1000.25C918.37 1000.25 918.35 1000.25 918.33 1000.25C918.35 1000.25 918.37 1000.25 918.39 1000.25Z" />
			<path fill-rule="evenodd" class="shp46" d="M920.46 1005.04C918.57 1005.04 916.74 1004.96 915 1004.8L915 1000.05C916.08 1000.14 917.19 1000.21 918.32 1000.25C918.32 1000.25 918.32 1000.25 918.33 1000.25C918.35 1000.25 918.37 1000.25 918.39 1000.25C918.39 1000.25 918.39 1000.25 918.39 1000.25C918.45 1000.25 918.52 1000.25 918.58 1000.26C918.59 1000.26 918.6 1000.26 918.6 1000.26C918.62 1000.26 918.64 1000.26 918.65 1000.26C918.65 1000.26 918.65 1000.26 918.66 1000.26C918.68 1000.26 918.7 1000.26 918.72 1000.26C918.75 1000.26 918.79 1000.26 918.83 1000.26C918.88 1000.26 918.93 1000.27 918.98 1000.27C919.02 1000.27 919.06 1000.27 919.1 1000.27C919.11 1000.27 919.11 1000.27 919.12 1000.27C919.14 1000.27 919.16 1000.27 919.18 1000.27C919.18 1000.27 919.18 1000.27 919.18 1000.27C919.2 1000.27 919.22 1000.27 919.24 1000.27C919.24 1000.27 919.25 1000.27 919.25 1000.27C919.27 1000.27 919.28 1000.27 919.29 1000.27C919.29 1000.27 919.3 1000.27 919.3 1000.27C919.31 1000.27 919.31 1000.27 919.32 1000.27C919.34 1000.27 919.35 1000.27 919.36 1000.27C919.37 1000.27 919.38 1000.27 919.4 1000.27C919.41 1000.27 919.42 1000.27 919.43 1000.28C919.44 1000.28 919.45 1000.28 919.46 1000.28C919.47 1000.28 919.49 1000.28 919.5 1000.28C919.51 1000.28 919.52 1000.28 919.53 1000.28C919.54 1000.28 919.56 1000.28 919.57 1000.28C919.58 1000.28 919.59 1000.28 919.59 1000.28C919.61 1000.28 919.62 1000.28 919.64 1000.28C919.65 1000.28 919.66 1000.28 919.67 1000.28C919.68 1000.28 919.69 1000.28 919.7 1000.28C919.71 1000.28 919.72 1000.28 919.73 1000.28C919.74 1000.28 919.76 1000.28 919.77 1000.28C919.78 1000.28 919.79 1000.28 919.8 1000.28C919.81 1000.28 919.83 1000.28 919.84 1000.28C919.85 1000.28 919.86 1000.28 919.87 1000.28C919.88 1000.28 919.89 1000.28 919.91 1000.28C919.92 1000.28 919.93 1000.28 919.94 1000.28C919.95 1000.28 919.96 1000.28 919.98 1000.28C919.99 1000.28 920 1000.28 920.01 1000.28C920.02 1000.28 920.03 1000.28 920.04 1000.28C920.05 1000.28 920.06 1000.28 920.07 1000.28C920.09 1000.28 920.1 1000.28 920.11 1000.28C920.12 1000.28 920.13 1000.28 920.14 1000.28C920.15 1000.28 920.17 1000.28 920.18 1000.28C920.19 1000.28 920.2 1000.28 920.21 1000.28C920.23 1000.28 920.24 1000.28 920.25 1000.28C920.26 1000.28 920.28 1000.28 920.29 1000.28C920.3 1000.28 920.31 1000.28 920.32 1000.28C920.33 1000.29 920.35 1000.29 920.36 1000.29C920.37 1000.29 920.38 1000.29 920.39 1000.29C920.41 1000.29 920.43 1000.29 920.46 1000.29C920.5 1000.29 920.54 1000.29 920.58 1000.29C920.58 1000.29 920.59 1000.29 920.59 1000.29C920.63 1000.28 920.66 1000.28 920.7 1000.28C920.71 1000.28 920.71 1000.28 920.72 1000.28C920.76 1000.28 920.8 1000.28 920.83 1000.28C920.84 1000.28 920.84 1000.28 920.85 1000.28C920.89 1000.28 920.93 1000.28 920.96 1000.28C920.97 1000.28 920.97 1000.28 920.98 1000.28C921.1 1000.28 921.22 1000.28 921.35 1000.28C921.35 1000.28 921.35 1000.28 921.35 1000.28C921.37 1000.28 921.39 1000.28 921.4 1000.28C921.42 1000.28 921.45 1000.28 921.47 1000.28C921.48 1000.28 921.48 1000.28 921.48 1000.28C921.52 1000.28 921.56 1000.28 921.6 1000.27C921.69 1000.27 921.77 1000.27 921.85 1000.27C932.14 1000.08 939.74 997.74 941.78 994.58C941.98 994.27 942.12 993.96 942.21 993.63L942.21 998.27C942.15 998.29 942.09 998.3 942.03 998.31L942.21 998.39L942.01 998.61C941.97 998.86 941.89 999.1 941.77 999.34C939.63 1002.64 931.44 1005.04 920.46 1005.04ZM915 1000.05C914.69 1000.02 914.39 999.99 914.09 999.96C914.39 999.99 914.69 1000.02 915 1000.05L915 1000.05ZM913.04 999.84C913.39 999.88 913.74 999.92 914.09 999.96C913.74 999.92 913.39 999.88 913.04 999.84ZM898.75 993.8L898.75 993.83L898.75 998.31L898.75 993.8ZM913.03 999.84C913.02 999.84 913 999.84 912.99 999.83C913 999.84 913.02 999.84 913.03 999.84ZM912.97 999.83C912.95 999.83 912.94 999.83 912.92 999.83C912.94 999.83 912.95 999.83 912.97 999.83ZM912.91 999.82C912.89 999.82 912.88 999.82 912.86 999.82C912.88 999.82 912.89 999.82 912.91 999.82Z" />
		</g>
		<g clip-path="url(#cp10)">
			<path fill-rule="evenodd" class="shp47" d="M915 1287.15C905.63 1286.32 898.7 1283.41 898.7 1279.95L898.75 998.31C898.75 998.31 898.75 998.31 898.75 998.31L898.78 998.61L898.78 998.61L898.8 998.72C899.39 1001.38 906.09 1004.01 915 1004.8L915 1287.15ZM898.75 993.8L898.75 993.61C898.75 993.63 898.75 993.64 898.75 993.66L898.75 993.8Z" />
			<path fill-rule="evenodd" class="shp48" d="M912.86 999.82C905.03 998.83 899.34 996.41 898.8 993.97C898.8 993.97 898.8 993.97 898.8 993.97C899.34 996.41 905.03 998.83 912.86 999.82ZM898.8 993.97C898.8 993.97 898.79 993.96 898.79 993.96C898.8 993.96 898.8 993.97 898.8 993.97ZM898.75 993.66L898.75 993.65C898.76 993.72 898.76 993.79 898.77 993.85C898.76 993.79 898.76 993.72 898.75 993.66ZM913.04 999.84C913.04 999.84 913.04 999.84 913.03 999.84C913.04 999.84 913.04 999.84 913.04 999.84ZM912.99 999.83C912.98 999.83 912.97 999.83 912.97 999.83C912.97 999.83 912.98 999.83 912.99 999.83ZM912.92 999.83C912.92 999.83 912.91 999.82 912.91 999.82C912.91 999.82 912.92 999.83 912.92 999.83Z" />
			<path class="shp49" d="M898.8 993.97C898.79 993.93 898.78 993.89 898.77 993.85C898.78 993.89 898.79 993.93 898.79 993.96C898.8 993.96 898.8 993.97 898.8 993.97Z" />
			<path class="shp50" d="M915 1004.8C906.09 1004.01 899.39 1001.38 898.8 998.72L898.78 998.61L898.78 998.61L898.75 998.31C898.75 998.31 898.75 998.31 898.75 998.31L898.75 993.8L898.75 993.66C898.76 993.72 898.76 993.79 898.77 993.85C898.78 993.89 898.79 993.93 898.8 993.97C899.34 996.41 905.03 998.83 912.86 999.82C912.88 999.82 912.89 999.82 912.91 999.82C912.91 999.82 912.92 999.83 912.92 999.83C912.94 999.83 912.95 999.83 912.97 999.83C912.97 999.83 912.98 999.83 912.99 999.83C913 999.84 913.02 999.84 913.03 999.84C913.04 999.84 913.04 999.84 913.04 999.84C913.68 999.92 914.33 999.99 915 1000.05L915 1004.8Z" />
		</g>
		<path class="shp6" d="M1120.62 1007.49C1099.58 1004.41 1062.19 1002.98 1011.24 1010.96C1001.55 1012.25 984.68 1015.69 975.91 1017.54C972.62 1018.23 970.27 1021.13 970.27 1024.5L970.27 1082.34C970.27 1086.89 974.47 1090.25 978.91 1089.28C999.61 1084.77 1021.86 1078.47 1047.49 1076.91C1069.42 1075.57 1091.16 1074.93 1124.07 1079.38C1128.34 1079.96 1132.14 1076.65 1132.14 1072.34L1132.14 1015.3C1132.14 1011.83 1129.63 1008.85 1126.2 1008.29C1124.35 1007.98 1122.49 1007.72 1120.62 1007.49Z" />
		<path class="shp37" d="M721.44 1124.09C721.64 1123.28 721.83 1122.44 721.79 1121.64C721.41 1114.12 716.71 1110.44 714.29 1103.34C713.21 1100.17 718.54 1093.42 711.76 1091.72C704.74 1089.96 691.15 1091.15 686.4 1084.72C684.3 1081.88 681.71 1078.14 678.28 1078.99C677.1 1079.28 676.14 1080.1 675.27 1080.94C646.53 1108.74 674.47 1142.23 705.8 1141.18C708.46 1141.09 710.25 1141.04 712.42 1139.8C715.94 1137.79 717.47 1134.16 719.11 1130.61C720.09 1128.51 720.9 1126.33 721.44 1124.09Z" />
		<path class="shp22" d="M666.36 1129.1C659.24 1132.08 650.5 1129.06 645.62 1123.09C640.75 1117.11 639.39 1108.8 640.65 1101.19C641.91 1093.58 645.54 1086.55 649.75 1080.09C654.75 1072.44 661.05 1065.07 669.59 1061.82C674.35 1060.01 679.52 1059.59 684.62 1059.48C688.06 1059.4 691.86 1059.6 694.34 1061.99C696.11 1063.7 696.83 1066.21 697.36 1068.62C700.8 1084.27 698.1 1086.55 687.85 1096.95C678.76 1106.18 672.1 1117.58 666.36 1129.1Z" />
		<path class="shp1" d="M1425.39 553.93C1424.8 553.54 1424.19 553.14 1423.75 552.65C1419.71 548.07 1420.7 543.75 1418.23 538.48C1417.13 536.13 1409.77 534.64 1413.25 530.52C1414.53 529 1418.31 525.68 1421.09 522.46C1426.14 516.61 1421.42 508.11 1426.69 501.54C1431.21 495.89 1447.51 490.67 1453.23 498.97C1455.37 502.09 1452.39 507.11 1452.85 510.49C1453.55 515.69 1457.74 519.15 1459.63 523.98C1461.31 528.26 1462.26 534.2 1462.01 538.63C1461.5 547.37 1452.66 552 1445.44 556.71C1443.64 557.89 1442.43 558.69 1440.3 558.96C1436.84 559.4 1433.76 557.99 1430.65 556.67C1428.81 555.89 1427.03 554.98 1425.39 553.93Z" />
		<path class="shp10" d="M1472.05 529C1478.86 525.71 1482.31 517.34 1481.09 509.88C1479.86 502.42 1474.65 496.04 1468.25 492.03C1461.84 488.02 1454.33 486.13 1446.85 485.04C1437.99 483.74 1428.51 483.59 1420.59 487.74C1416.17 490.06 1412.51 493.59 1409.12 497.25C1406.84 499.73 1404.51 502.65 1404.66 506.02C1404.77 508.43 1406.15 510.59 1407.57 512.54C1416.82 525.2 1420.25 524.7 1434.53 523.92C1447.19 523.23 1459.88 525.74 1472.05 529Z" />
		<path class="shp1" d="M1112.47 541.25C1113.12 540.97 1113.79 540.67 1114.3 540.26C1119.03 536.41 1118.78 531.98 1122.07 527.19C1123.55 525.05 1131.05 524.79 1128.3 520.15C1127.28 518.44 1124.09 514.55 1121.89 510.92C1117.86 504.32 1123.91 496.71 1119.8 489.36C1116.26 483.04 1101.04 475.22 1094.04 482.47C1091.41 485.19 1093.52 490.64 1092.51 493.9C1090.97 498.91 1086.27 501.64 1083.61 506.09C1081.25 510.04 1079.34 515.74 1078.86 520.15C1077.93 528.85 1085.89 534.87 1092.24 540.71C1093.82 542.16 1094.89 543.15 1096.94 543.77C1100.29 544.78 1103.56 543.88 1106.84 543.09C1108.78 542.63 1110.69 542.03 1112.47 541.25Z" />
		<path class="shp10" d="M1070.54 509C1064.37 504.64 1062.33 495.82 1064.76 488.66C1067.19 481.51 1073.39 476.07 1080.36 473.16C1087.34 470.26 1095.05 469.62 1102.61 469.77C1111.56 469.95 1120.94 471.35 1128.08 476.75C1132.05 479.77 1135.09 483.84 1137.82 488.02C1139.67 490.83 1141.48 494.1 1140.78 497.4C1140.28 499.76 1138.57 501.66 1136.85 503.35C1125.64 514.32 1122.35 513.26 1108.38 510.15C1096.01 507.4 1083.08 507.78 1070.54 509Z" />
	</g>
</svg>