<svg xmlns="http://www.w3.org/2000/svg" viewBox="0 0 2338 2338" width="2338" height="2338">
	<defs>
		<clipPath clipPathUnits="userSpaceOnUse" id="cp1">
			<path d="M0 0L2338 0L2338 2338L0 2338Z" />
		</clipPath>
	</defs>
	<style>
		tspan { white-space:pre }
		.shp0 { fill: #616e7d } 
		.shp1 { fill: #aad4c8 } 
	</style>
	<g clip-path="url(#cp1)">
		<path class="shp0" d="M491.73 488.63L491.73 1812.83C491.73 1822.6 495.67 1832.13 502.53 1839.04C509.44 1845.93 518.98 1849.87 528.75 1849.87L1824.3 1849.87L1824.3 1775.79L565.77 1775.79L565.77 488.63L491.73 488.63Z" />
		<path class="shp1" d="M1790.02 957.09C1820.81 957.09 1845.77 932.14 1845.77 901.36L1845.77 671.65C1845.77 656.98 1839.84 642.64 1829.46 632.26C1819.1 621.88 1804.73 615.94 1790.02 615.94L1577.07 615.94C1546.28 615.94 1521.31 640.87 1521.31 671.65C1521.31 702.44 1546.28 727.39 1577.07 727.39L1650.65 727.39L1257.42 1191.69L1255.4 1052.1C1255.05 1028.87 1240.31 1008.26 1218.46 1000.44C1196.62 992.59 1172.15 999.14 1157.13 1016.87L642.1 1624.99C622.18 1648.48 625.08 1683.65 648.59 1703.55C672.08 1723.44 707.24 1720.52 727.15 1697.03L1146.04 1202.41L1148.08 1342.01C1148.41 1365.23 1163.11 1385.84 1185 1393.68C1206.83 1401.5 1231.32 1394.94 1246.32 1377.23L1734.32 801.06L1734.32 901.36C1734.32 932.14 1759.29 957.09 1790.02 957.09Z" />
	</g>
</svg>