<svg xmlns="http://www.w3.org/2000/svg" viewBox="0 0 150 130" width="150" height="130">
	<defs>
		<clipPath clipPathUnits="userSpaceOnUse" id="cp1">
			<path d="M-446 -224L596 -224L596 818L-446 818Z" />
		</clipPath>
	</defs>
	<style>
		tspan { white-space:pre }
		.shp0 { fill: #3b4040 } 
	</style>
	<g clip-path="url(#cp1)">
		<path fill-rule="evenodd" class="shp0" d="M307.66 251.8L238.45 296.04L238.45 207.56L307.66 251.8ZM-56.38 71.83L-91.84 112.7C-94.02 115.22 -97.09 116.5 -100.19 116.5C-102.75 116.5 -105.33 115.62 -107.42 113.8C-112.03 109.8 -112.53 102.82 -108.53 98.21L-79.36 64.59L-108.55 30.95C-112.55 26.34 -112.06 19.36 -107.45 15.36C-102.84 11.36 -95.86 11.85 -91.86 16.46L-56.38 57.35C-52.78 61.5 -52.78 67.67 -56.38 71.83ZM-94.22 71.83L-129.67 112.7C-131.86 115.22 -134.93 116.5 -138.02 116.5C-140.59 116.5 -143.17 115.62 -145.26 113.8C-149.87 109.8 -150.36 102.82 -146.37 98.21L-117.2 64.59L-146.39 30.95C-150.39 26.34 -149.9 19.36 -145.29 15.36C-140.68 11.36 -133.7 11.85 -129.7 16.46L-94.22 57.35C-90.61 61.5 -90.61 67.67 -94.22 71.83ZM-222.42 74.21L-254.72 111.44C-257.62 114.79 -261.71 116.5 -265.82 116.5C-269.23 116.5 -272.66 115.32 -275.44 112.91C-281.57 107.59 -282.23 98.32 -276.91 92.19L-265.71 79.28L-343.7 79.28C-351.81 79.28 -358.39 72.7 -358.39 64.59C-358.39 56.48 -351.81 49.9 -343.7 49.9L-265.71 49.9L-276.93 36.97C-282.25 30.85 -281.59 21.57 -275.46 16.25C-269.34 10.94 -260.06 11.59 -254.74 17.72L-222.42 54.96C-217.63 60.48 -217.63 68.69 -222.42 74.21ZM146.28 254.92L105.06 291.93C102.65 294.1 98.81 292.38 98.81 289.14L98.81 265.35L27.74 265.35C25.67 265.35 23.99 263.67 23.99 261.61L23.99 242C23.99 239.92 25.67 238.25 27.74 238.25L98.81 238.25L98.81 214.46C98.81 211.22 102.65 209.51 105.06 211.67L146.28 248.68C148.14 250.35 148.14 253.26 146.28 254.92ZM-45.29 251.81L-76.61 287.91L-97.76 287.91L-66.43 251.81L-97.76 215.69L-76.63 215.69L-45.29 251.81ZM-75.15 251.81L-106.47 287.91L-127.62 287.91L-96.29 251.81L-127.62 215.69L-106.49 215.69L-75.15 251.81ZM-105 251.81L-136.34 287.91L-157.48 287.91L-126.15 251.81L-157.48 215.69L-136.35 215.69L-105 251.81ZM507.93 251.8C507.93 278.12 486.59 299.46 460.27 299.46C433.95 299.46 412.62 278.12 412.62 251.8C412.62 225.48 433.95 204.14 460.27 204.14C486.59 204.14 507.93 225.48 507.93 251.8ZM479.35 251.8L448.05 231.8L448.05 271.8L479.35 251.8ZM136.58 64.58L35.09 116.5L65.8 64.58L35.09 12.66L136.58 64.58ZM-244.94 636.93L-244.94 630.52L-352.01 630.52L-352.01 621.96L-244.94 621.96L-244.94 615.55L-225.21 626.24L-244.94 636.93Z" />
	</g>
</svg>