<svg xmlns="http://www.w3.org/2000/svg" viewBox="0 0 1440 960" width="1440" height="960">
	<defs>
		<clipPath clipPathUnits="userSpaceOnUse" id="cp1">
			<path d="M-1156 -36L1513 -36L1513 1008L-1156 1008Z" />
		</clipPath>
		<clipPath clipPathUnits="userSpaceOnUse" id="cp2">
			<path d="M1511.65 1007.81L-50.86 1007.81L-50.86 -33.86L1511.65 -33.86L1511.65 1007.81Z" />
		</clipPath>
		<clipPath clipPathUnits="userSpaceOnUse" id="cp3">
			<path d="M-64.3 1026.44L825.35 1026.44L825.35 301.66L-64.3 301.66L-64.3 1026.44Z" />
		</clipPath>
	</defs>
	<style>
		tspan { white-space:pre }
		.shp0 { fill: #fee6f1 } 
		.shp1 { fill: #fff1f7 } 
		.shp2 { fill: #8da6c6 } 
		.shp3 { fill: #84a1c1 } 
		.shp4 { fill: #246996 } 
		.shp5 { fill: #23608b } 
		.shp6 { fill: #225881 } 
		.shp7 { fill: #23638e } 
		.shp8 { fill: #792515 } 
		.shp9 { fill: #ffb87b } 
		.shp10 { fill: #71371a } 
		.shp11 { fill: #ffa932 } 
		.shp12 { fill: #ff7d26 } 
		.shp13 { fill: #462a37 } 
		.shp14 { fill: #4c1d22 } 
		.shp15 { fill: #452d37 } 
		.shp16 { fill: #393155 } 
		.shp17 { fill: #711613 } 
		.shp18 { fill: #286a86 } 
		.shp19 { fill: #b5bfc2 } 
		.shp20 { fill: #432d3f } 
		.shp21 { fill: #a18783 } 
		.shp22 { fill: #ff9128 } 
		.shp23 { fill: #fd6921 } 
		.shp24 { fill: #ead3e5 } 
		.shp25 { fill: #6c2113 } 
		.shp26 { fill: #631513 } 
		.shp27 { fill: #e45f21 } 
		.shp28 { fill: #2d2239 } 
		.shp29 { fill: #22395f } 
		.shp30 { fill: #20487a } 
		.shp31 { fill: #292e4e } 
		.shp32 { fill: #2a273f } 
	</style>
	<g clip-path="url(#cp1)">
		<g clip-path="url(#cp2)">
			<path class="shp0" d="M1511.65 1008L-50.86 1008L-50.86 -33.67L1511.65 -33.67L1511.65 1008Z" />
			<path class="shp1" d="M1511.65 346.23C1417.31 341.08 1311.87 335.99 1317.83 348.53C1327.58 369.04 1349.87 390.58 1305.29 392.63C1260.71 394.69 1127.19 407.09 1071.23 401.87C1015.27 396.64 931.9 347.5 848.29 356.73C764.7 365.96 806.5 384.43 717.33 393.66C628.16 402.89 437.27 405.97 460.96 419.3C484.65 432.64 831.58 423.41 819.04 435.72C806.5 448.02 746.59 470.59 768.88 478.8C791.17 487 1337.33 520.85 1291.35 500.34C1245.38 479.82 1157.6 464.44 1223.08 462.39C1288.58 460.33 1390.29 450.08 1393.08 464.44C1395.85 478.8 1322.02 495.21 1418.15 505.46C1444.38 508.26 1477.25 510.91 1511.65 513.05L1511.65 346.23ZM-50.86 49.36C-31.41 50.63 -18.67 52.12 -16.82 53.87C-10.95 59.42 -37.39 66.1 -50.86 72.09L-50.86 81.88C-49.84 82.12 -48.72 82.36 -47.47 82.59C-8.46 89.77 306.42 69.25 337.08 83.61C367.73 97.97 98.82 110.28 154.55 120.54C210.29 130.8 1167.83 107.46 1203.71 108.23C1239.58 109 1252.46 98.49 1228.77 91.3C1205.1 84.12 869.31 91.3 862.35 83.1C855.38 74.89 915.29 74.89 912.5 64.64C909.71 54.38 594.83 54.38 532.13 59.51C469.44 64.64 401.16 48.22 424.85 29.76C448.54 11.3 227 22.58 187.99 20.53C148.98 18.48 235.36 4.12 247.9 -20.5C254.15 -32.76 102.7 -34.59 -50.86 -33.33L-50.86 49.36Z" />
			<path fill-rule="evenodd" class="shp1" d="M1050.63 187.29C1075.69 185.04 954.29 175.57 938.46 173.32C927.85 171.81 1274.65 173.13 1511.65 174.97L1511.65 201.12C1499.08 201.34 1489.25 201.8 1483.42 202.61C1457.96 206.15 1484.38 207.62 1511.65 209.98L1511.65 215.32C1393.69 217.85 975.31 217 954.29 221.54C929.23 226.94 988.6 230.55 1016.31 238.21C1044.02 245.87 569 247.67 533.37 246.77C497.75 245.87 505.66 240.91 530.73 232.8C552.29 225.83 88.18 220.19 -50.86 215.31L-50.86 209.36C-35.77 209.38 -22.29 209.74 -22.8 209.81C1.25 209.55 583.01 204.8 611.22 202.61C640.25 200.36 518.86 194.5 532.05 188.19C545.25 181.88 1025.54 189.54 1050.63 187.29ZM-22.8 209.81C-23.49 209.82 -23.72 209.82 -23.46 209.82C-23.07 209.82 -22.85 209.82 -22.8 209.81Z" />
			<path class="shp2" d="M464.46 655.43C591.91 604.69 853.96 502.27 872.01 510.69C895.92 521.85 945.35 526.64 945.35 526.64C945.35 526.64 1048.98 423 1071.29 421.41C1093.62 419.81 1178.13 430.97 1198.85 416.62C1219.56 402.28 1335.96 249.22 1363.06 231.68C1390.17 214.15 1527.33 481.75 1527.35 481.8L726.99 1038.34L464.46 771.31L464.46 655.43Z" />
			<path class="shp3" d="M1064.06 423.86C1066.96 422.41 1069.42 421.54 1071.29 421.41C1093.62 419.81 1178.13 430.97 1198.85 416.62C1219.56 402.28 1335.96 249.22 1363.06 231.68C1363.92 231.13 1364.88 230.86 1365.92 230.86L1365.96 230.86L1308.85 363.21L1308.06 424.59L1253.85 506.7C1253.85 506.7 1214.79 440.53 1204.44 439.73C1194.06 438.94 1100 443.72 1093.62 439.73C1089.13 436.92 1073.08 428.54 1064.06 423.86ZM821.92 521.59C849.19 513.07 867.67 508.67 872.01 510.69C895.92 521.85 945.35 526.64 945.35 526.64C945.35 526.64 997.06 474.92 1035.29 443.99C1030.54 447.99 974.17 529.34 974.17 529.34L1037.81 557.71C1037.81 557.71 875.99 572.86 872 564.89C869.03 558.94 837.66 533.92 821.92 521.59Z" />
			<path class="shp4" d="M891.14 729.12C902.3 716.37 1135.69 485.91 1154.21 486.78C1172.73 487.66 1243.48 523.45 1253.06 529.83C1262.62 536.21 1375.08 356 1388.58 346.48C1402.06 336.96 1466.71 354.45 1476.27 354.45C1481.44 354.45 1504.75 337.24 1527.35 318.39L1527.35 1038.34L726.99 1038.34L891.14 729.12Z" />
			<path class="shp5" d="M1527.35 481.8C1470.52 511.63 1410.71 551.71 1395.35 588.73C1368.25 654.1 1365.06 685.99 1309.25 719.47C1253.46 752.95 1063.35 791.86 999.77 821.83C936.19 851.8 822.98 952.24 813.41 961.81C806.41 968.81 792.2 1014.39 793.24 1038.34L1527.35 1038.34L1527.35 481.8Z" />
			<path class="shp6" d="M1527.35 481.8C1470.52 511.63 1410.71 551.71 1395.35 588.73C1368.25 654.1 1365.06 685.99 1309.25 719.47C1263.79 746.75 1129.15 777.64 1046.44 804.36C1039.94 826.3 1043.23 849.81 1029.73 877.56C1001.71 935.14 1354.29 910.85 1384.58 888.53C1414.88 866.21 1341.52 807.22 1335.15 781.71C1328.77 756.2 1467.48 710.76 1455.52 667.71C1443.56 624.67 1433.21 611.12 1445.17 574.45C1457.13 537.78 1527.33 481.82 1527.35 481.8Z" />
			<path class="shp7" d="M1253.06 529.83C1243.48 523.45 1172.73 487.66 1154.21 486.78L1235.52 544.96C1235.52 544.96 1235.52 579.23 1235.52 584.02C1235.52 585.72 1244.96 594.14 1257.13 604.26C1279 622.47 1309.65 646.2 1309.65 646.2C1309.65 646.2 1291.52 618.19 1279.85 593.96C1273.37 580.49 1268.87 568.19 1270.58 562.49C1275.38 546.55 1286.52 525.82 1300.08 513.07C1309.87 503.86 1336.67 435.26 1350.83 397.81C1312.71 453.64 1259.5 534.13 1253.06 529.83ZM1452.35 371.17C1455.73 371.17 1463.48 374.85 1472.31 379.75C1488.48 388.73 1508.25 401.79 1511.33 403.86C1512.79 404.83 1519.19 393.19 1527.35 376.56L1527.35 318.39C1504.75 337.24 1481.44 354.45 1476.27 354.45C1473.42 354.45 1465.67 352.9 1455.83 350.97C1432.71 346.43 1398.04 339.8 1388.58 346.48C1388.58 346.48 1442.77 371.17 1452.35 371.17Z" />
			<path class="shp8" d="M356.75 379.15C373.87 384.12 409.75 395.64 420.15 395.47C430.55 395.3 491.45 404.61 500.13 413.31C508.81 422 512.79 514.55 506.57 523.24C500.34 531.94 481.35 535.66 477.69 518.89C474.04 502.12 456.47 446.22 456.47 446.22C409.34 453.26 414.78 456.41 368.91 446.54C350.84 481.22 309.39 537.17 285.39 576.52C269.44 602.66 251.04 620.03 250.92 620.13C250.75 620.28 231.5 616.51 234.75 609.68C236.63 605.73 243.19 585.97 252.56 559.73C259.43 540.51 268.43 516.78 275.03 498.4C290.62 454.92 322.61 397.16 322.61 397.16L356.75 379.15Z" />
			<path class="shp9" d="M407.19 170.01C427.69 190.36 404.94 247.09 377.81 233.99C363.67 227.15 346.01 201.07 357.45 178.09C368.89 155.11 407.19 170.01 407.19 170.01Z" />
			<path class="shp10" d="M452.18 179.72C450.35 177.32 438.62 168.09 435.59 167.11C432.56 166.12 412.95 166.62 412.65 167.43C412.35 168.23 410.67 168.32 414.09 171.33C417.5 174.34 430.97 177.34 430.43 178.29C429.89 179.23 420.22 181.84 421.71 183.25C423.37 185.33 438.9 186.87 441.72 187.35C444.54 187.83 452.18 179.72 452.18 179.72ZM239.68 362.75C238.25 364.14 240.18 371.88 238.76 379.35C237.35 386.83 237.92 393.05 235.66 392.36C233.4 391.67 232.89 384.47 232.89 384.47C232.89 384.47 228.77 388.34 225.49 393.33C223.04 397.05 207.19 397.04 216.18 377C217.86 373.27 226.53 357.27 229.49 355.15C231.61 353.63 236.31 361.46 239.68 362.75Z" />
			<path class="shp11" d="M395.45 228.55C395.97 236 400.1 239.57 400.1 239.57C400.1 239.57 456.33 215.05 455.45 211.32C454.57 207.59 442.29 190.04 441.09 186.16C439.88 182.28 445.07 172.03 455.26 175.76C465.46 179.48 489.56 217.31 483.42 227.62C477.28 237.93 426.36 267.86 414.89 279.97C418.01 286.18 420.62 292.3 421.82 296.79C423.94 304.66 418.46 311.19 413.13 313.65C401.89 373.43 421.09 388.75 420.15 395.47C419.73 398.51 291.71 449.69 309.01 413.79C326.31 377.89 315.54 282.43 315.54 282.43C315.54 282.43 290.78 303.94 284.43 310.77C278.07 317.6 243 366.74 239.53 366.05C236.06 365.35 227.85 362.02 228.24 356.43C222.92 354.88 272.25 274.36 280.69 270.63C285.02 268.71 299.16 248.73 317.97 240.86C335.75 233.42 358.38 238.02 358.38 238.02L363.54 221.33L395.45 228.55Z" />
			<path class="shp12" d="M401.84 197.8C402.08 199.04 402.43 199.66 399.11 209.91C393.75 226.46 396.39 228.15 382.31 238.32C368.13 248.57 362.61 240.8 342.3 247.95C322 255.09 317.37 264.4 318.37 260.99C319.37 257.57 323.88 249.01 323.88 249.01L306.49 259.75C319 249.39 312.89 230.89 349.12 212.23C362.67 205.26 362.1 198.74 362.1 198.74L401.84 197.8Z" />
			<path class="shp13" d="M415.71 183.05C413.81 178.08 410.97 168.45 403.65 163.79C396.34 159.13 365.49 150.91 357.62 156.03C349.75 161.15 335.03 172.8 339.06 174.97C343.1 177.15 347.04 177.92 347.72 178.85C348.41 179.79 349.23 193.76 352.66 196.24C356.1 198.73 376.67 201.99 393.6 195.47C410.54 188.95 415.71 183.05 415.71 183.05Z" />
			<path class="shp14" d="M420.8 189.1C420.04 191.59 402.25 205.55 381.4 211.93C365.41 216.82 343.5 213.86 351.1 194.05C351.1 194.05 365.88 198.73 383.66 190.97C401.44 183.2 406.6 171.44 414.65 173.83C422.69 176.21 420.8 189.1 420.8 189.1ZM424.07 272.38L414.89 279.97L369.51 334.41L374.3 363.62L424.07 272.38ZM407.37 236.1L385.6 256.32L376.14 238.78L396.38 233.39L407.37 236.1Z" />
			<path class="shp15" d="M390.18 239.71C383.12 231.95 353.48 215.48 335.03 220.92C316.58 226.36 292.77 232.26 291.86 245.92C290.95 259.59 283.13 272.05 290.56 280.7C298.01 289.36 279.49 340.02 281.01 361.75C282.53 383.49 286.97 407.44 314.41 411C341.84 414.55 371.79 396.66 380.94 386.35C390.08 376.04 390.18 239.71 390.18 239.71Z" />
			<path class="shp16" d="M323.51 232.07C323.51 232.07 352.44 227.17 356.61 228.71C360.77 230.25 328.28 336.31 356.75 379.15C348.95 387.53 294.08 409.22 284.18 383.13C274.28 357.05 291.32 249.18 300.72 241.41C310.11 233.65 323.51 232.07 323.51 232.07Z" />
			<path class="shp14" d="M340.96 168.37C344.11 168.37 346.86 171.07 347.09 174.39C347.32 177.71 344.95 180.41 341.8 180.41C338.65 180.41 335.91 177.71 335.68 174.39C335.44 171.07 337.81 168.37 340.96 168.37Z" />
			<path class="shp17" d="M509.43 507C504.01 511.63 475.3 509.67 475.79 511.54C471.39 512.03 480.76 544.38 480.32 548.95C480.16 550.57 479.83 553.55 480.56 556.25C481.29 558.95 501.63 559.76 506.4 558.41C511.18 557.06 512.67 555.17 512.67 555.17C512.67 555.17 514.4 556.79 517.65 556.79C520.89 556.79 535.93 555.17 540.04 552.19C544.16 549.22 541.88 539.75 532.54 537.59C523.19 535.43 512.93 535.84 511.39 532.99C509.84 530.14 512.74 508.15 509.43 507ZM248.34 571.64C249.64 576.53 253.14 580.63 279.03 587.98C280.07 594.64 269.21 614.31 269.31 615.74C269.41 617.16 277.11 615.5 282.22 620.71C287.33 625.93 285.41 632.34 281.75 634.23C278.08 636.13 262.55 637.79 256.4 638.03C253.32 638.15 251.48 638.03 250.19 637.91C248.91 637.79 248.19 637.67 247.37 637.79C245.73 638.03 231.48 637.79 227.45 634.47C223.43 631.15 225.99 616.92 228.88 610.76C231.77 604.59 242.37 573.62 248.34 571.64Z" />
			<path class="shp18" d="M288.32 239.55C287.67 243.59 278.63 270.01 285.38 277.44C292.12 284.87 337.36 283.65 344.66 268.13C351.96 252.6 347.81 228.69 357.12 228.69C366.44 228.69 389.24 247.65 390.18 241.39C391.11 235.12 389.33 231.79 387.05 230.24C384.76 228.69 362.68 219.37 354.19 217.82C345.7 216.26 330.77 215.95 312.99 223.72C295.21 231.48 288.32 239.55 288.32 239.55Z" />
			<path class="shp19" d="M393.73 294.83C389.27 293.28 362.85 283.96 356.74 289.86C350.63 295.76 347.84 349.17 353.49 354.46C359.14 359.74 386.36 367.19 391.53 356.63C396.69 346.07 393.73 294.83 393.73 294.83Z" />
			<path class="shp18" d="M352.14 295.14C352.14 295.14 354.13 299.18 364.46 304.77C374.79 310.36 394.78 314.24 395.97 311.29C397.16 308.34 397.46 294.83 394.64 292.35C391.83 289.86 369.79 283.34 361.84 285.05C353.88 286.76 352.14 295.14 352.14 295.14Z" />
			<path class="shp20" d="M336.89 389.62C330.07 392.11 322.31 394.21 314.84 395.11C301.17 396.76 288.46 394.42 284.18 383.13C287.67 396.03 294.85 406.91 310.53 410.33C311.76 410.6 313.06 410.82 314.41 411C314.65 411.03 314.89 411.06 315.13 411.09C342.37 414.23 371.88 396.57 380.94 386.35C381.28 385.97 381.6 385.42 381.91 384.71C380.14 382.63 377.63 380.52 374.16 379.3C365.58 376.25 356.75 379.15 356.75 379.15C354.17 381.92 346.44 386.15 336.89 389.62Z" />
			<path class="shp19" d="M287.71 307.47C287.71 307.47 279.53 345.41 281.3 365.46C282.34 377.24 318.2 367.33 330.72 361.79C337.13 358.96 335.51 356.8 336.68 349.2C339.23 332.73 340.71 297.86 333.02 296.29C323.71 294.38 287.71 307.47 287.71 307.47Z" />
			<path class="shp18" d="M332.48 290.48C329.07 290.64 289.42 294.16 286.06 299.39C282.69 304.61 278.75 319.92 282.79 326.6C286.83 333.28 328.04 326.97 331.19 320.91C334.34 314.86 333.1 301.66 335.68 298.55C338.26 295.45 341.21 295.45 340.28 293.27C339.35 291.1 332.48 290.48 332.48 290.48Z" />
			<path class="shp21" d="M318.62 358.24C308.3 361.35 290.55 363.74 281.33 364.49L281.22 364.5C281.24 364.78 281.26 365.06 281.29 365.33L281.3 365.42L281.3 365.46C281.32 365.7 281.36 365.93 281.41 366.15C283.2 374.18 303.21 370.74 318.26 366.24C323.24 364.75 327.68 363.14 330.72 361.79C337.13 358.96 335.51 356.8 336.68 349.2C338.88 334.94 340.29 306.9 335.65 298.6C333.33 301.52 334.15 312.79 331.88 319.28C331.77 334.15 329.32 354.45 321.16 357.4C320.38 357.69 319.53 357.96 318.62 358.24ZM360.62 342.03C359.82 335.35 360.55 315.18 361.43 303.04C357.46 300.62 355.11 298.6 353.77 297.2C349.9 313.58 348.86 350.13 353.49 354.46C356.46 357.24 365.42 360.62 373.98 361.66C374.42 361.71 374.86 361.76 375.3 361.8C379.25 362.16 383.05 361.99 386.06 360.99C386.93 360.7 387.73 360.34 388.44 359.91C387.76 359.73 387.02 359.54 386.22 359.32C383.91 358.7 381.11 357.88 377.99 356.87C377 356.55 375.98 356.21 374.93 355.85C374.23 355.61 373.56 355.37 372.92 355.15C364.21 352.13 361.67 350.85 360.62 342.03Z" />
			<path class="shp22" d="M417.25 284.88L394.57 326.47C394.51 339.18 393.83 351.93 391.53 356.63C390.85 358.02 389.79 359.09 388.44 359.91C387.73 360.34 386.93 360.7 386.06 360.99C384.98 372.2 383.63 380.82 381.91 384.71C381.6 385.42 381.28 385.97 380.94 386.35C371.88 396.57 342.37 414.23 315.13 411.09C314.89 411.06 314.65 411.03 314.41 411C313.06 410.82 311.76 410.6 310.53 410.33C310.05 411.54 309.54 412.69 309.01 413.79C306.87 418.24 306.96 421.35 308.76 423.38C309.89 424.65 311.68 425.5 314.02 425.99C337.36 420.95 365.06 409.72 376.43 403.83C384.81 399.49 389.05 394.86 391.73 389.45C395.95 380.92 396.31 370.44 402.9 356.01C405.09 351.21 407.38 347.45 409.63 344.51C409.85 335.81 410.88 325.62 413.13 313.65C418.46 311.19 423.94 304.66 421.82 296.79C420.94 293.5 419.3 289.32 417.25 284.88ZM396.81 301.66L414.89 279.97C426.36 267.86 477.28 237.93 483.42 227.62C489.56 217.31 465.46 179.48 455.26 175.76C453.62 175.16 452.12 174.92 450.74 174.96C455.09 181.68 472.69 200.5 473.66 208.65C474.8 218.28 467.12 228.52 446.56 240.95C434.02 248.53 415.93 259.7 401.56 268.45C401.62 260.72 401.06 250.82 397.92 244.88L390.11 252.13C390.04 261.37 389.87 274.93 389.52 289.94C392.07 290.87 393.95 291.73 394.64 292.35C396.05 293.59 396.68 297.6 396.81 301.66Z" />
			<path class="shp23" d="M253.08 631.77C241.59 632.05 232.05 630.25 225.41 628.52C225.55 631.21 226.16 633.4 227.45 634.47C231.48 637.79 245.73 638.03 247.37 637.79C249.01 637.55 250.25 638.27 256.4 638.03C262.55 637.79 278.08 636.13 281.75 634.23C283.56 633.29 284.94 631.25 285.26 628.8C277.83 629.88 265.26 631.46 253.08 631.77ZM480.56 556.25C481.29 558.95 501.63 559.76 506.4 558.41C511.18 557.06 512.67 555.17 512.67 555.17C512.67 555.17 514.4 556.79 517.65 556.79C520.89 556.79 535.93 555.17 540.04 552.19C541.49 551.15 542.15 549.3 541.99 547.25C539.34 548.26 535.47 549.61 530.34 551.03C519.68 553.98 514.31 550.41 512.73 550.1C511.16 549.79 511.2 550.41 506.53 552.43C501.86 554.45 486.62 551.96 483.62 551.19C482.21 550.82 481.1 550.66 480.17 550.71C480.06 552.31 480.05 554.35 480.56 556.25Z" />
			<path fill-rule="evenodd" class="shp24" d="M281.13 583.22C280.12 584.75 279.1 586.25 278.09 587.71C279.1 586.25 280.12 584.75 281.13 583.22ZM284.96 577.21C284.95 577.23 284.94 577.25 284.93 577.26C284.94 577.25 284.95 577.23 284.96 577.21ZM285.29 576.69C285.28 576.7 285.26 576.73 285.25 576.74C285.26 576.72 285.28 576.7 285.29 576.69ZM409.16 452.79C412.46 452.79 415.64 452.56 419.13 452.15C415.64 452.56 412.46 452.79 409.16 452.79ZM419.13 452.15C426.1 451.32 434.28 449.73 447.03 447.69C434.28 449.73 426.1 451.32 419.13 452.15ZM456.59 446.63C456.6 446.64 456.6 446.65 456.6 446.66C456.6 446.65 456.6 446.64 456.59 446.63ZM281.15 583.19C281.17 583.16 281.19 583.13 281.21 583.09C281.19 583.13 281.17 583.16 281.15 583.19ZM281.26 583.02C281.28 582.99 281.3 582.96 281.32 582.94C281.3 582.96 281.28 582.99 281.26 583.02ZM281.39 582.82C281.4 582.81 281.41 582.8 281.41 582.79C281.41 582.8 281.4 582.81 281.39 582.82ZM284.48 578C284.49 577.99 284.49 577.97 284.5 577.97C284.49 577.97 284.49 577.99 284.48 578ZM284.59 577.81C284.6 577.81 284.6 577.8 284.61 577.79C284.6 577.8 284.6 577.81 284.59 577.81ZM284.71 577.63C284.71 577.62 284.71 577.62 284.72 577.61C284.71 577.62 284.71 577.62 284.71 577.63ZM285.04 577.09C285.05 577.07 285.06 577.05 285.07 577.04C285.06 577.05 285.05 577.07 285.04 577.09ZM285.14 576.92C285.16 576.9 285.17 576.88 285.18 576.86C285.17 576.88 285.16 576.9 285.14 576.92ZM248.34 571.64C248.43 571.39 248.52 571.13 248.61 570.87C248.52 571.13 248.43 571.39 248.34 571.64ZM252.56 559.73C253.6 556.83 254.68 553.84 255.79 550.78C254.68 553.84 253.6 556.83 252.56 559.73ZM475.84 511.36C470.43 490.84 458.04 451.26 456.6 446.66C458.04 451.26 470.43 490.84 475.84 511.36ZM409.15 452.79C409.14 452.79 409.13 452.79 409.12 452.79C409.13 452.79 409.14 452.79 409.15 452.79ZM447.3 447.64C447.56 447.6 447.83 447.56 448.09 447.52C447.83 447.56 447.56 447.6 447.3 447.64ZM448.14 447.51C448.25 447.49 448.35 447.48 448.46 447.46C448.35 447.48 448.25 447.49 448.14 447.51ZM448.62 447.43C448.65 447.43 448.68 447.42 448.7 447.42C448.68 447.42 448.65 447.43 448.62 447.43ZM449.28 447.33C449.49 447.3 449.69 447.26 449.9 447.23C449.69 447.26 449.49 447.3 449.28 447.33ZM372.15 447.23C372.11 447.22 372.08 447.21 372.04 447.2C372.08 447.21 372.11 447.22 372.15 447.23ZM450.21 447.18C450.28 447.17 450.34 447.16 450.41 447.15C450.34 447.16 450.28 447.17 450.21 447.18ZM371.56 447.1C371.43 447.07 371.3 447.05 371.16 447.02C371.3 447.05 371.43 447.07 371.56 447.1ZM451.63 446.96C451.66 446.96 451.69 446.95 451.72 446.95C451.69 446.95 451.66 446.96 451.63 446.96ZM370.78 446.94C370.73 446.92 370.69 446.92 370.65 446.91C370.69 446.92 370.73 446.92 370.78 446.94ZM451.99 446.91C452.1 446.89 452.21 446.87 452.33 446.85C452.21 446.87 452.1 446.89 451.99 446.91ZM370.5 446.88C370.42 446.86 370.34 446.84 370.26 446.82C370.34 446.84 370.42 446.86 370.5 446.88ZM370.22 446.82C370.16 446.8 370.1 446.79 370.03 446.77C370.1 446.79 370.16 446.8 370.22 446.82ZM452.71 446.8C452.81 446.78 452.9 446.76 453 446.75C452.9 446.76 452.81 446.78 452.71 446.8ZM369.92 446.75C369.74 446.71 369.55 446.67 369.36 446.63C369.55 446.67 369.74 446.71 369.92 446.75ZM453.4 446.69C453.84 446.62 454.28 446.55 454.73 446.49C454.28 446.55 453.84 446.62 453.4 446.69ZM456.59 446.63C456.58 446.59 456.57 446.55 456.56 446.51C456.57 446.55 456.58 446.59 456.59 446.63ZM456.55 446.5C456.54 446.48 456.54 446.45 456.53 446.42C456.54 446.45 456.54 446.48 456.55 446.5ZM456.53 446.41C456.52 446.39 456.51 446.37 456.51 446.35C456.51 446.37 456.52 446.39 456.53 446.41ZM455.33 446.4C455.38 446.39 455.43 446.38 455.49 446.37C455.43 446.38 455.38 446.39 455.33 446.4ZM456.5 446.34C456.5 446.33 456.5 446.33 456.5 446.32C456.5 446.33 456.5 446.33 456.5 446.34ZM456.5 446.32C456.49 446.31 456.49 446.3 456.49 446.3C456.49 446.3 456.49 446.31 456.5 446.32ZM456.49 446.29C456.49 446.29 456.49 446.29 456.49 446.29C456.49 446.29 456.49 446.29 456.49 446.29ZM456.48 446.28C456.48 446.27 456.48 446.27 456.48 446.26C456.48 446.27 456.48 446.27 456.48 446.28ZM456.15 446.27C456.26 446.26 456.36 446.24 456.47 446.22C456.47 446.22 456.47 446.23 456.47 446.23C456.47 446.23 456.47 446.22 456.47 446.22C456.36 446.24 456.26 446.26 456.15 446.27ZM456.47 446.25C456.47 446.24 456.47 446.24 456.47 446.23C456.47 446.24 456.47 446.24 456.47 446.25Z" />
			<path class="shp25" d="M278.09 587.71C254.2 580.85 249.99 576.84 248.53 572.3L248.53 572.3C248.52 572.27 248.51 572.24 248.5 572.21C248.5 572.2 248.5 572.2 248.49 572.19C248.49 572.19 248.49 572.19 248.49 572.18C248.49 572.17 248.49 572.17 248.49 572.16L248.49 572.16C248.48 572.14 248.48 572.12 248.47 572.1C248.47 572.1 248.47 572.1 248.47 572.1C248.47 572.09 248.46 572.09 248.46 572.08C248.46 572.07 248.46 572.07 248.46 572.07C248.46 572.06 248.45 572.05 248.45 572.05C248.45 572.05 248.45 572.04 248.45 572.04C248.45 572.04 248.45 572.03 248.45 572.02C248.44 572.02 248.44 572.02 248.44 572.01C248.44 572.01 248.44 572 248.44 571.99C248.44 571.99 248.44 571.99 248.43 571.99C248.43 571.98 248.43 571.97 248.43 571.97C248.43 571.96 248.43 571.96 248.43 571.96C248.42 571.95 248.42 571.94 248.42 571.94C248.42 571.93 248.42 571.93 248.42 571.93C248.41 571.92 248.41 571.91 248.41 571.9C248.41 571.9 248.41 571.9 248.41 571.9C248.41 571.89 248.41 571.89 248.4 571.88C248.4 571.88 248.4 571.87 248.4 571.87C248.4 571.87 248.4 571.86 248.4 571.86C248.4 571.85 248.39 571.85 248.39 571.84C248.39 571.84 248.39 571.84 248.39 571.84C248.39 571.83 248.39 571.82 248.39 571.81C248.38 571.81 248.38 571.81 248.38 571.8C248.38 571.8 248.38 571.79 248.38 571.79C248.38 571.78 248.37 571.78 248.37 571.77C248.37 571.77 248.37 571.76 248.37 571.76C248.37 571.76 248.37 571.75 248.37 571.75C248.37 571.75 248.36 571.74 248.36 571.73C248.36 571.73 248.36 571.73 248.36 571.72C248.36 571.72 248.36 571.71 248.35 571.7C248.35 571.7 248.35 571.69 248.35 571.69C248.35 571.67 248.34 571.66 248.34 571.64C248.43 571.39 248.52 571.13 248.61 570.87C249.86 567.31 251.18 563.59 252.56 559.73C253.6 556.83 254.68 553.84 255.79 550.78C301.5 531.46 344.81 440.16 344.81 440.16L340.17 423.81C340.37 423.89 369.36 435.94 400.51 435.94C406.22 435.94 412.02 435.53 417.71 434.57C454.54 428.36 470.62 418.42 470.62 418.42L492.79 510.19C491.62 510.25 490.44 510.31 489.29 510.35C486.18 510.47 483.24 510.54 480.91 510.65C480.89 510.65 480.88 510.65 480.87 510.65C480.87 510.65 480.86 510.65 480.86 510.65C478.09 510.79 476.18 510.98 475.84 511.36C470.43 490.84 458.04 451.26 456.6 446.66C456.6 446.66 456.6 446.66 456.6 446.66C456.6 446.65 456.6 446.64 456.59 446.63C456.59 446.63 456.59 446.63 456.59 446.63C456.58 446.59 456.57 446.55 456.56 446.51C456.55 446.51 456.55 446.51 456.55 446.5C456.54 446.48 456.54 446.45 456.53 446.42C456.53 446.42 456.53 446.42 456.53 446.41C456.52 446.39 456.51 446.37 456.51 446.35C456.5 446.35 456.5 446.34 456.5 446.34C456.5 446.33 456.5 446.33 456.5 446.32C456.5 446.32 456.5 446.32 456.5 446.32C456.49 446.31 456.49 446.3 456.49 446.3C456.49 446.3 456.49 446.3 456.49 446.29C456.49 446.29 456.49 446.29 456.49 446.29C456.49 446.29 456.49 446.29 456.48 446.28C456.48 446.27 456.48 446.27 456.48 446.26C456.48 446.26 456.47 446.26 456.47 446.25C456.47 446.24 456.47 446.24 456.47 446.23C456.47 446.23 456.47 446.23 456.47 446.23C456.47 446.23 456.47 446.22 456.47 446.22C456.36 446.24 456.26 446.26 456.15 446.27C455.93 446.31 455.71 446.34 455.49 446.37C455.43 446.38 455.38 446.39 455.33 446.4C455.13 446.43 454.93 446.46 454.73 446.49C454.28 446.55 453.84 446.62 453.4 446.69C453.27 446.71 453.14 446.73 453 446.75C452.9 446.76 452.81 446.78 452.71 446.8C452.58 446.81 452.45 446.84 452.33 446.85C452.21 446.87 452.1 446.89 451.99 446.91C451.9 446.92 451.8 446.94 451.72 446.95C451.69 446.95 451.66 446.96 451.63 446.96C451.22 447.02 450.81 447.09 450.41 447.15C450.34 447.16 450.28 447.17 450.21 447.18C450.11 447.2 450 447.22 449.9 447.23C449.69 447.26 449.49 447.3 449.28 447.33C449.09 447.36 448.89 447.39 448.7 447.42C448.68 447.42 448.65 447.43 448.62 447.43C448.57 447.44 448.51 447.45 448.46 447.46C448.35 447.48 448.25 447.49 448.14 447.51C448.12 447.51 448.11 447.51 448.09 447.52C447.83 447.56 447.56 447.6 447.3 447.64C447.21 447.66 447.12 447.67 447.03 447.69C427.91 450.75 419.05 452.79 409.16 452.79C409.16 452.79 409.15 452.79 409.15 452.79C409.14 452.79 409.13 452.79 409.12 452.79C400.3 452.78 390.65 451.16 372.15 447.23C372.11 447.22 372.08 447.21 372.04 447.2C371.88 447.17 371.72 447.14 371.56 447.1C371.43 447.07 371.3 447.05 371.16 447.02C371.04 446.99 370.91 446.96 370.78 446.94C370.73 446.92 370.69 446.92 370.65 446.91C370.6 446.9 370.55 446.89 370.5 446.88C370.42 446.86 370.34 446.84 370.26 446.82C370.25 446.82 370.24 446.82 370.22 446.82C370.16 446.8 370.1 446.79 370.03 446.77C370 446.77 369.96 446.76 369.92 446.75C369.74 446.71 369.55 446.67 369.36 446.63C369.21 446.6 369.06 446.57 368.91 446.54C350.84 481.22 309.39 537.17 285.39 576.52C285.36 576.57 285.32 576.63 285.29 576.69C285.28 576.7 285.26 576.73 285.25 576.74C285.23 576.78 285.21 576.82 285.18 576.86C285.17 576.88 285.16 576.9 285.14 576.92C285.12 576.96 285.1 577 285.07 577.04C285.06 577.05 285.05 577.07 285.04 577.09C285.01 577.13 284.99 577.17 284.96 577.21C284.95 577.23 284.94 577.25 284.93 577.26C284.86 577.38 284.79 577.5 284.72 577.61C284.71 577.62 284.71 577.62 284.71 577.63C284.67 577.69 284.64 577.74 284.61 577.79C284.6 577.8 284.6 577.81 284.59 577.81C284.56 577.86 284.53 577.91 284.5 577.97C284.49 577.97 284.49 577.99 284.48 578C283.46 579.63 282.44 581.23 281.41 582.79C281.41 582.8 281.4 582.81 281.39 582.82C281.37 582.86 281.34 582.9 281.32 582.94C281.3 582.96 281.28 582.99 281.26 583.02C281.25 583.04 281.23 583.07 281.21 583.09C281.19 583.13 281.17 583.16 281.15 583.19C281.14 583.2 281.14 583.21 281.13 583.22C280.12 584.75 279.1 586.25 278.09 587.71Z" />
			<path fill-rule="evenodd" class="shp26" d="M489.29 510.35C486.18 510.47 483.24 510.54 480.91 510.65C483.24 510.54 486.18 510.47 489.29 510.35ZM278.09 587.71C254.2 580.85 249.99 576.84 248.53 572.3C249.99 576.84 254.2 580.85 278.09 587.71C278.09 587.71 278.09 587.71 278.09 587.71ZM248.4 571.88C248.41 571.89 248.41 571.89 248.41 571.9C248.41 571.89 248.41 571.89 248.4 571.88ZM480.86 510.65C480.86 510.65 480.87 510.65 480.87 510.65C480.87 510.65 480.86 510.65 480.86 510.65ZM248.53 572.3C248.52 572.27 248.51 572.24 248.5 572.21C248.51 572.24 248.52 572.27 248.53 572.3ZM248.5 572.21C248.5 572.2 248.5 572.2 248.49 572.19C248.5 572.2 248.5 572.2 248.5 572.21ZM248.49 572.18C248.49 572.17 248.49 572.17 248.49 572.16C248.49 572.17 248.49 572.17 248.49 572.18ZM248.49 572.16C248.48 572.14 248.48 572.12 248.47 572.1C248.48 572.12 248.48 572.14 248.49 572.16ZM248.47 572.1C248.47 572.09 248.46 572.09 248.46 572.08C248.46 572.09 248.47 572.09 248.47 572.1ZM248.46 572.07C248.46 572.06 248.45 572.05 248.45 572.05C248.45 572.05 248.46 572.06 248.46 572.07ZM248.45 572.04C248.45 572.04 248.45 572.03 248.45 572.02C248.45 572.03 248.45 572.04 248.45 572.04ZM248.44 572.01C248.44 572.01 248.44 572 248.44 571.99C248.44 572 248.44 572.01 248.44 572.01ZM248.43 571.99C248.43 571.98 248.43 571.98 248.43 571.97C248.43 571.97 248.43 571.98 248.43 571.99ZM248.43 571.96C248.42 571.95 248.42 571.94 248.42 571.94C248.42 571.94 248.42 571.95 248.43 571.96ZM248.42 571.93C248.41 571.92 248.41 571.91 248.41 571.9C248.41 571.91 248.41 571.92 248.42 571.93ZM248.4 571.87C248.4 571.87 248.4 571.86 248.4 571.86C248.4 571.86 248.4 571.87 248.4 571.87ZM248.39 571.84C248.39 571.84 248.39 571.84 248.39 571.84C248.39 571.84 248.39 571.84 248.39 571.84ZM248.39 571.81C248.38 571.81 248.38 571.81 248.38 571.8C248.38 571.81 248.38 571.81 248.39 571.81ZM248.38 571.79C248.38 571.78 248.37 571.78 248.37 571.77C248.37 571.78 248.38 571.78 248.38 571.79ZM248.37 571.76C248.37 571.76 248.37 571.75 248.37 571.75C248.37 571.75 248.37 571.76 248.37 571.76ZM248.36 571.73C248.36 571.73 248.36 571.73 248.36 571.72C248.36 571.73 248.36 571.73 248.36 571.73ZM248.35 571.7C248.35 571.7 248.35 571.69 248.35 571.69C248.35 571.69 248.35 571.7 248.35 571.7Z" />
			<path class="shp24" d="M284.1 623.18C284.06 623.11 284.02 623.04 283.98 622.97C284.02 623.04 284.06 623.11 284.1 623.18ZM283.97 622.96C283.96 622.95 283.96 622.94 283.95 622.93C283.96 622.94 283.96 622.95 283.97 622.96ZM283.31 621.97C283.3 621.97 283.3 621.97 283.3 621.97C283.3 621.97 283.3 621.97 283.31 621.97ZM283.28 621.94C283.27 621.93 283.27 621.92 283.26 621.91C283.27 621.92 283.27 621.93 283.28 621.94ZM283.24 621.88C283.23 621.87 283.21 621.85 283.2 621.84C283.21 621.85 283.23 621.87 283.24 621.88ZM283.19 621.82C283.18 621.81 283.16 621.79 283.15 621.77C283.16 621.79 283.18 621.81 283.19 621.82ZM283.15 621.77C282.87 621.41 282.56 621.06 282.22 620.71C282.56 621.06 282.87 621.41 283.15 621.77Z" />
			<path class="shp26" d="M259.74 628.02C255.79 628.02 252.27 627.36 250 625.56C248.69 624.51 248.24 622.43 248.39 619.65C248.89 610.45 256.08 593.66 260.89 582C265.04 583.69 270.59 585.56 278.09 587.71C278.4 587.8 278.71 587.89 279.03 587.98C279.08 588.28 279.1 588.6 279.1 588.95C279.11 596.34 269.29 614.23 269.31 615.72C269.31 615.73 269.31 615.73 269.31 615.74C269.41 617.16 277.11 615.5 282.22 620.71C282.56 621.06 282.87 621.41 283.15 621.77C283.15 621.77 283.15 621.77 283.15 621.77C283.16 621.79 283.18 621.81 283.19 621.82C283.2 621.83 283.2 621.84 283.2 621.84C283.21 621.85 283.23 621.87 283.24 621.88C283.24 621.89 283.25 621.9 283.26 621.91C283.27 621.92 283.27 621.93 283.28 621.94C283.29 621.95 283.3 621.96 283.3 621.97C283.3 621.97 283.3 621.97 283.31 621.97C283.54 622.29 283.76 622.61 283.95 622.93C283.96 622.94 283.96 622.95 283.97 622.96C283.97 622.96 283.97 622.97 283.98 622.97C284.02 623.04 284.06 623.11 284.1 623.18C280.76 624.34 269.05 628.02 259.74 628.02Z" />
			<path class="shp24" d="M475.84 511.36L475.84 511.36L475.84 511.36L475.84 511.36C475.84 511.36 475.84 511.36 475.84 511.36Z" />
			<path class="shp25" d="M475.84 511.36L475.84 511.36C476.18 510.98 478.09 510.79 480.86 510.65C478.09 510.79 476.18 510.98 475.84 511.36ZM480.87 510.65C480.88 510.65 480.89 510.65 480.91 510.65C480.89 510.65 480.88 510.65 480.87 510.65ZM489.29 510.35C490.44 510.31 491.62 510.25 492.79 510.19C491.62 510.26 490.44 510.31 489.29 510.35Z" />
			<path class="shp26" d="M500.7 553.2C496.74 553.2 491.91 552.63 488.31 552.07C488.31 552.07 488.3 552.07 488.3 552.07L488.3 552.07C486.14 551.73 484.43 551.4 483.62 551.19C482.39 550.87 481.38 550.71 480.52 550.7C480.51 550.7 480.49 550.7 480.48 550.7C480.48 550.7 480.47 550.7 480.47 550.7C480.42 550.7 480.37 550.7 480.31 550.7C480.26 550.7 480.22 550.71 480.17 550.71C480.21 550.03 480.28 549.43 480.32 548.95C480.33 548.84 480.34 548.72 480.34 548.58C480.33 544 474.62 523.15 474.61 514.9C474.61 512.89 474.95 511.63 475.79 511.54L475.84 511.36C475.84 511.36 475.84 511.36 475.84 511.36C476.18 510.98 478.09 510.79 480.86 510.65C480.86 510.65 480.87 510.65 480.87 510.65C480.88 510.65 480.89 510.65 480.91 510.65C483.24 510.54 486.18 510.47 489.29 510.35C490.44 510.31 491.62 510.26 492.79 510.19L497.3 529.65L502.74 553.14C502.13 553.18 501.49 553.2 500.83 553.2C500.81 553.2 500.79 553.2 500.78 553.2C500.75 553.2 500.72 553.2 500.7 553.2Z" />
			<path fill-rule="evenodd" class="shp27" d="M500.69 553.2C496.73 553.2 491.91 552.63 488.31 552.07C491.91 552.63 496.74 553.2 500.7 553.2C500.72 553.2 500.75 553.2 500.78 553.2C500.75 553.2 500.72 553.2 500.69 553.2ZM488.3 552.07L488.3 552.07L488.3 552.07ZM480.31 550.7C480.37 550.7 480.42 550.7 480.47 550.7C480.42 550.7 480.37 550.7 480.31 550.7ZM480.52 550.7C480.51 550.7 480.49 550.7 480.48 550.7C480.49 550.7 480.51 550.7 480.52 550.7Z" />
			<path class="shp22" d="M228.23 356.46C227.9 361.82 235.47 365.09 239.12 365.95L239.53 366.05C242.61 366.67 270.72 327.84 281.35 314.45C282.09 308.46 284.16 302.33 286.06 299.39C287.05 292.56 288.15 285.93 289.31 279.72C287.54 279.09 286.19 278.33 285.38 277.44C283.7 275.59 283 272.56 282.9 269C282 269.81 281.26 270.38 280.69 270.63C280.04 270.92 279.15 271.66 278.05 272.79C279.21 280.12 281.11 289.09 281.01 290.4C280.85 292.57 252.86 332.01 245 343.81C242.25 347.93 236.84 351.82 230.8 355.12C229.95 355.58 229.1 356.03 228.23 356.46Z" />
		</g>
		<g clip-path="url(#cp3)">
			<path class="shp28" d="M-61.76 537.98C-49.26 537.98 -38.99 547.53 -37.85 559.73C-31.67 560.24 -26.56 564.52 -24.82 570.27C-21.66 567.3 -17.42 565.49 -12.75 565.49C-3.02 565.49 4.88 573.38 4.88 583.12C4.88 585.64 4.34 588.05 3.38 590.22C7.66 584.16 14.72 580.21 22.7 580.21C35.26 580.21 45.53 590.01 46.28 602.38C50.81 602.83 54.8 605.07 57.55 608.38C58.92 607.99 60.36 607.79 61.85 607.79C70.6 607.79 77.7 614.89 77.7 623.64C77.7 625.27 77.45 626.84 77 628.32C81.32 626.05 86.24 624.76 91.47 624.76C104.38 624.76 115.45 632.61 120.2 643.79C126.55 644.92 132.16 648.19 136.25 652.84C138.96 647.01 144.86 642.97 151.71 642.97C161.03 642.97 168.6 650.45 168.76 659.74C170 659.42 171.29 659.25 172.64 659.25C179.17 659.25 184.77 663.3 187.04 669.02C187.58 668.96 188.11 668.93 188.66 668.93C189.89 668.93 191.09 669.09 192.23 669.38C207.14 670.34 219.14 682.04 220.54 696.83L-74.57 696.83L-74.57 541.68C-70.86 539.34 -66.47 537.98 -61.76 537.98Z" />
			<path class="shp29" d="M83.48 720.34C83.48 720.34 90.75 706.42 87.58 677.27C84.41 648.12 69.78 627.4 68.9 630.47C68.02 633.55 65.88 644.13 67.54 678.48C69.2 712.83 83.48 720.34 83.48 720.34Z" />
			<path class="shp30" d="M69.12 630.2L69.11 630.2L68.9 630.47C68.02 633.55 65.88 644.13 67.54 678.48C69.2 712.83 83.48 720.34 83.48 720.34L69.12 630.2Z" />
			<path class="shp29" d="M84.11 709.99C84.11 709.99 96.09 699.82 104.12 671.63C112.15 643.43 106.38 618.73 104.41 621.24C102.44 623.76 96.47 632.76 85.09 665.21C73.71 697.66 84.11 709.99 84.11 709.99Z" />
			<path class="shp30" d="M104.71 621.07L104.71 621.07L104.41 621.24C102.44 623.76 96.47 632.76 85.09 665.21C73.71 697.66 84.11 709.99 84.11 709.99L104.71 621.07Z" />
			<path class="shp29" d="M80.15 715.8C80.15 715.8 95.18 711.21 113.71 688.5C132.25 665.78 136.74 640.81 133.94 642.35C131.13 643.88 122.09 649.78 98.78 675.07C75.48 700.36 80.15 715.8 80.15 715.8Z" />
			<path class="shp30" d="M134.29 642.31L134.28 642.3L133.94 642.35C131.13 643.88 122.09 649.78 98.78 675.07C75.48 700.36 80.15 715.8 80.15 715.8L134.29 642.31Z" />
			<path class="shp29" d="M43.71 737.95C43.71 737.95 33.43 718.27 37.91 677.09C42.39 635.9 63.06 606.63 64.3 610.97C65.54 615.32 68.58 630.26 66.23 678.8C63.88 727.34 43.71 737.95 43.71 737.95Z" />
			<path class="shp30" d="M64 610.58L64 610.58L64.01 610.58C64.14 610.64 64.25 610.77 64.3 610.97C65.54 615.32 68.58 630.26 66.23 678.8C63.88 727.34 43.71 737.95 43.71 737.95L64 610.58Z" />
			<path class="shp29" d="M46.62 720.91C46.62 720.91 29.69 706.54 18.35 666.69C7.01 626.85 15.16 591.95 17.94 595.51C20.73 599.07 29.16 611.77 45.24 657.63C61.32 703.48 46.62 720.91 46.62 720.91Z" />
			<path class="shp30" d="M17.51 595.26L17.52 595.26L17.94 595.51C20.73 599.07 29.16 611.77 45.24 657.63C61.32 703.48 46.62 720.91 46.62 720.91L17.51 595.26Z" />
			<path class="shp29" d="M45.74 730.09C45.74 730.09 24.5 723.6 -1.69 691.51C-27.89 659.41 -34.23 624.14 -30.26 626.3C-26.3 628.47 -13.52 636.8 19.4 672.53C52.33 708.27 45.74 730.09 45.74 730.09Z" />
			<path class="shp30" d="M-30.76 626.25L-30.75 626.24L-30.26 626.3C-26.3 628.47 -13.52 636.8 19.4 672.53C52.33 708.27 45.74 730.09 45.74 730.09L-30.76 626.25Z" />
			<path class="shp29" d="M158.54 683.94C158.54 683.94 165.81 670.01 162.64 640.86C159.47 611.71 144.84 590.99 143.96 594.07C143.08 597.14 140.93 607.72 142.6 642.07C144.26 676.42 158.54 683.94 158.54 683.94Z" />
			<path class="shp30" d="M144.17 593.79L144.17 593.79L143.96 594.07C143.08 597.14 140.93 607.72 142.6 642.07C144.26 676.42 158.54 683.94 158.54 683.94L144.17 593.79Z" />
			<path class="shp29" d="M159.17 673.59C159.17 673.59 171.15 663.42 179.18 635.22C187.2 607.02 181.44 582.32 179.47 584.84C177.5 587.36 171.53 596.35 160.15 628.8C148.77 661.26 159.17 673.59 159.17 673.59Z" />
			<path class="shp30" d="M179.77 584.66L179.76 584.66L179.47 584.84C177.5 587.36 171.53 596.35 160.15 628.8C148.77 661.26 159.17 673.59 159.17 673.59L179.77 584.66Z" />
			<path class="shp29" d="M155.2 679.4C155.2 679.4 170.23 674.81 188.77 652.09C207.31 629.38 211.8 604.41 208.99 605.94C206.19 607.47 197.14 613.37 173.84 638.66C150.54 663.95 155.2 679.4 155.2 679.4Z" />
			<path class="shp30" d="M209.34 605.9L209.34 605.9L208.99 605.94C206.19 607.47 197.14 613.37 173.84 638.66C150.54 663.95 155.2 679.4 155.2 679.4L209.34 605.9Z" />
			<path class="shp29" d="M118.76 701.54C118.76 701.54 108.49 681.86 112.96 640.68C117.44 599.5 138.12 570.22 139.36 574.57C140.6 578.91 143.64 593.86 141.29 642.39C138.94 690.93 118.76 701.54 118.76 701.54Z" />
			<path class="shp30" d="M139.05 574.17L139.06 574.18L139.06 574.18C139.2 574.23 139.3 574.36 139.36 574.57C140.6 578.91 143.64 593.86 141.29 642.39C138.94 690.93 118.76 701.54 118.76 701.54L139.05 574.17Z" />
			<path class="shp29" d="M121.67 684.5C121.67 684.5 104.75 670.13 93.41 630.29C82.07 590.45 90.22 555.54 93 559.1C95.78 562.66 104.21 575.37 120.29 621.22C136.37 667.08 121.67 684.5 121.67 684.5Z" />
			<path class="shp30" d="M92.57 558.85L92.57 558.85L92.57 558.85L93 559.1C95.78 562.66 104.21 575.37 120.29 621.22C136.37 667.08 121.67 684.5 121.67 684.5L92.57 558.85Z" />
			<path class="shp29" d="M120.79 693.68C120.79 693.68 99.56 687.19 73.36 655.1C47.17 623.01 40.83 587.73 44.79 589.9C48.76 592.06 61.54 600.39 94.46 636.13C127.39 671.86 120.79 693.68 120.79 693.68Z" />
			<path class="shp30" d="M44.3 589.84L44.3 589.84L44.3 589.84L44.79 589.9C48.76 592.06 61.54 600.39 94.46 636.13C127.39 671.86 120.79 693.68 120.79 693.68L44.3 589.84Z" />
			<path class="shp29" d="M0.45 714.89C0.45 714.89 7.73 700.96 4.56 671.81C1.39 642.67 -13.25 621.95 -14.13 625.02C-15 628.1 -17.15 638.67 -15.49 673.03C-13.82 707.38 0.45 714.89 0.45 714.89Z" />
			<path class="shp30" d="M-13.91 624.74L-13.91 624.74L-14.13 625.02C-15 628.1 -17.15 638.67 -15.49 673.03C-13.82 707.38 0.45 714.89 0.45 714.89L-13.91 624.74Z" />
			<path class="shp29" d="M1.09 704.54C1.09 704.54 13.07 694.37 21.09 666.17C29.12 637.97 23.35 613.27 21.38 615.79C19.41 618.31 13.44 627.3 2.06 659.76C-9.32 692.21 1.09 704.54 1.09 704.54Z" />
			<path class="shp30" d="M21.69 615.61L21.68 615.61L21.38 615.79C19.41 618.31 13.44 627.3 2.06 659.76C-9.32 692.21 1.09 704.54 1.09 704.54L21.69 615.61Z" />
			<path class="shp29" d="M-2.88 710.35C-2.88 710.35 12.15 705.76 30.69 683.04C49.23 660.33 53.72 635.36 50.91 636.89C48.1 638.43 39.06 644.32 15.76 669.61C-7.55 694.91 -2.88 710.35 -2.88 710.35Z" />
			<path class="shp30" d="M51.26 636.85L51.26 636.85L50.91 636.89C48.1 638.43 39.06 644.32 15.76 669.61C-7.55 694.91 -2.88 710.35 -2.88 710.35L51.26 636.85Z" />
			<path class="shp29" d="M-39.32 732.5C-39.32 732.5 -49.6 712.82 -45.12 671.63C-40.64 630.45 -19.96 601.17 -18.72 605.52C-17.48 609.86 -14.45 624.81 -16.8 673.35C-19.14 721.88 -39.32 732.5 -39.32 732.5Z" />
			<path class="shp30" d="M-19.03 605.12L-19.02 605.13C-18.88 605.19 -18.78 605.31 -18.72 605.52C-17.48 609.86 -14.45 624.81 -16.8 673.35C-19.14 721.88 -39.32 732.5 -39.32 732.5L-19.03 605.12Z" />
			<path class="shp29" d="M-36.41 715.45C-36.41 715.45 -53.34 701.08 -64.68 661.24C-76.02 621.4 -67.87 586.49 -65.09 590.05C-62.3 593.61 -53.87 606.32 -37.79 652.17C-21.71 698.03 -36.41 715.45 -36.41 715.45Z" />
			<path class="shp30" d="M-65.52 589.8L-65.51 589.8L-65.09 590.05C-62.3 593.61 -53.87 606.32 -37.79 652.17C-21.71 698.03 -36.41 715.45 -36.41 715.45L-65.52 589.8Z" />
			<path class="shp29" d="M-37.29 724.64C-37.29 724.64 -58.52 718.15 -84.72 686.05C-110.91 653.96 -117.26 618.68 -113.29 620.85C-109.33 623.01 -96.55 631.34 -63.62 667.08C-30.7 702.81 -37.29 724.64 -37.29 724.64Z" />
			<path class="shp30" d="M-113.79 620.79L-113.78 620.79L-113.78 620.79L-113.29 620.85C-109.33 623.01 -96.55 631.34 -63.62 667.08C-30.7 702.81 -37.29 724.64 -37.29 724.64L-113.79 620.79Z" />
			<path class="shp29" d="M564.75 533.79C564.75 533.79 451.66 552.91 435.86 560.4C420.06 567.88 268.9 640.18 255.42 636.07C241.94 631.95 191.76 627.59 191.76 627.59L-47.68 715.62L-47.68 1026.44L655.73 1026.44C657.93 978.71 669.42 719.96 660.37 710.9C650.39 700.93 605.49 666.83 603.83 656.02C602.16 645.21 564.75 533.79 564.75 533.79Z" />
			<path class="shp31" d="M193.65 871.38L-7.18 701.64L-9.13 701.45L-47.68 715.62L-47.68 958.86L193.65 871.38ZM440.86 1026.44C406.03 938.83 348.34 795.71 348.34 795.71L193.65 871.38L210.65 1026.44L440.86 1026.44ZM347.72 795.71L469.12 687.61L435.86 560.4C420.06 567.88 268.9 640.18 255.42 636.07L347.72 795.71Z" />
			<path class="shp32" d="M580.41 856.07C593.72 854.41 654.31 820.29 654.31 820.29C708.74 897.82 743.26 950.75 784.23 1026.44L552.65 1026.44C561.84 944.28 579.29 824.65 580.41 856.07Z" />
			<path class="shp31" d="M469.12 687.61L552.27 883.02L650.23 1026.44L655.73 1026.44C657.88 979.88 668.86 732.73 661.01 712.04L469.12 687.61Z" />
			<path class="shp28" d="M-33.89 649.14C-4.2 649.14 20.19 671.82 22.91 700.8C37.59 702.01 49.73 712.18 53.86 725.83C61.35 718.79 71.43 714.48 82.52 714.48C105.64 714.48 124.39 733.23 124.39 756.35C124.39 762.35 123.12 768.06 120.85 773.22C131.01 758.84 147.77 749.45 166.72 749.45C196.55 749.45 220.95 772.72 222.74 802.1C233.49 803.18 242.97 808.5 249.51 816.36C252.76 815.45 256.18 814.96 259.72 814.96C280.51 814.96 297.36 831.81 297.36 852.6C297.36 856.47 296.78 860.2 295.69 863.72C305.97 858.33 317.66 855.27 330.06 855.27C360.73 855.27 387.04 873.91 398.3 900.46C413.39 903.14 426.72 910.92 436.43 921.97C442.86 908.12 456.89 898.52 473.16 898.52C495.3 898.52 513.28 916.29 513.64 938.34C516.59 937.58 519.67 937.17 522.85 937.17C538.39 937.17 551.67 946.8 557.08 960.4C558.34 960.26 559.62 960.18 560.92 960.18C563.85 960.18 566.68 960.56 569.39 961.26C604.82 963.52 633.31 991.31 636.64 1026.44L-64.31 1026.44L-64.31 657.92C-55.5 652.36 -45.07 649.14 -33.89 649.14Z" />
		</g>
	</g>
</svg>