<svg xmlns="http://www.w3.org/2000/svg" viewBox="0 0 983 952" width="983" height="952">
	<defs>
		<clipPath clipPathUnits="userSpaceOnUse" id="cp1">
			<path d="M0 0L983 0L983 952L0 952Z" />
		</clipPath>
	</defs>
	<style>
		tspan { white-space:pre }
		.shp0 { fill: #ecefee } 
		.shp1 { fill: #d8dfde } 
		.shp2 { fill: #18bbab } 
		.shp3 { fill: #035c4c } 
		.shp4 { fill: #8e9a9a } 
		.shp5 { fill: #023a30 } 
		.shp6 { fill: #00b192 } 
		.shp7 { fill: #00231f } 
		.shp8 { fill: #011614 } 
		.shp9 { fill: #034c40 } 
		.shp10 { fill: #017965 } 
		.shp11 { fill: #132a31 } 
		.shp12 { fill: #3d4546 } 
		.shp13 { fill: #383f41 } 
		.shp14 { fill: #023f35 } 
		.shp15 { fill: #011917 } 
		.shp16 { fill: #a5b1b0 } 
		.shp17 { fill: #002721 } 
		.shp18 { fill: #fafafa } 
		.shp19 { fill: #ffffff } 
		.shp20 { fill: #688286 } 
		.shp21 { fill: #4fcac3 } 
		.shp22 { fill: #e8ecea } 
		.shp23 { fill: #0e2228 } 
		.shp24 { fill: #0ab6a1 } 
		.shp25 { fill: #b3bebc } 
		.shp26 { fill: #c2cbc9 } 
		.shp27 { fill: #3ec4b5 } 
		.shp28 { fill: #bfc8c7 } 
		.shp29 { fill: #fefefe } 
		.shp30 { fill: #64d0ca } 
		.shp31 { fill: #2c5862 } 
		.shp32 { fill: #21424b } 
		.shp33 { fill: #fcfdfd } 
		.shp34 { fill: #bec7c6 } 
		.shp35 { fill: #06b59c } 
		.shp36 { fill: #dae0de } 
		.shp37 { fill: #0eb8a4 } 
		.shp38 { fill: #e1e6e4 } 
		.shp39 { fill: #ff9da7 } 
		.shp40 { fill: #ff8991 } 
		.shp41 { fill: #00977d } 
		.shp42 { fill: #f4f5f4 } 
		.shp43 { fill: #00b296 } 
	</style>
	<g clip-path="url(#cp1)">
		<path class="shp0" d="M837.94 468.22C1029.63 578.89 1029.63 758.32 837.93 869C646.24 979.67 335.45 979.67 143.77 869C-47.92 758.32 -47.92 578.89 143.77 468.22C335.46 357.55 646.25 357.55 837.94 468.22Z" />
		<path class="shp1" d="M772.76 766.94C740.57 748.36 740.57 718.23 772.76 699.64C804.94 681.06 857.13 681.06 889.31 699.65C921.5 718.23 921.5 748.36 889.31 766.94C857.13 785.52 804.94 785.52 772.76 766.94ZM118.08 769.52L33.41 720.64C28.64 717.88 28.64 713.41 33.41 710.66L525.89 426.32C530.66 423.57 538.4 423.57 543.18 426.32L627.85 475.2C632.62 477.96 632.62 482.43 627.85 485.18L135.37 769.52C130.59 772.27 122.86 772.27 118.08 769.52Z" />
		<path class="shp2" d="M422.42 682.4L495.2 640.31C502.71 635.98 506.46 630.3 506.46 624.63C506.46 618.95 506.49 614.5 506.49 614.5L430.97 571.92C426.97 569.61 423.73 563.99 423.73 559.37L423.73 469.63L296.6 543.09L296.59 632.83C296.59 637.45 299.83 643.07 303.84 645.38L368.08 682.4C383.08 691.06 407.41 691.06 422.42 682.4Z" />
		<path class="shp3" d="M395.25 688.9C385.41 688.9 375.58 686.73 368.08 682.4L327.11 658.8L327.11 648.72L319.63 644.38L327.11 648.7L327.13 648.69L368.07 672.28C375.57 676.61 385.41 678.78 395.24 678.78C395.66 678.78 396.07 678.77 396.49 678.76L396.49 688.82C405.9 688.66 415.23 686.56 422.43 682.38L450.85 665.96L422.42 682.4C414.91 686.73 405.08 688.9 395.25 688.9ZM402.35 678.4C409.7 677.6 416.72 675.56 422.41 672.28L471.86 643.71L422.43 672.3C416.73 675.58 409.7 677.62 402.35 678.4ZM506.48 617.12C506.48 616.27 506.48 615.59 506.48 615.14C506.48 615.02 506.49 614.89 506.49 614.77C506.49 615.17 506.48 615.99 506.48 617.12ZM310.01 638.28C308.5 636.74 307.24 634.79 306.41 632.74C307.24 634.78 308.5 636.74 310.01 638.28Z" />
		<path class="shp4" d="M327.11 658.8L303.81 645.38C299.84 643.08 296.58 637.47 296.58 632.83L296.58 621.61L296.59 621.6L296.59 632.83C296.59 637.45 299.83 643.07 303.84 645.38L327.11 658.8L327.11 658.8Z" />
		<path class="shp5" d="M327.11 658.8L303.84 645.38C299.83 643.07 296.59 637.45 296.59 632.83L296.59 621.6L305.36 616.54L305.36 627.78C305.36 629.37 305.74 631.08 306.41 632.74C307.24 634.79 308.5 636.74 310.01 638.28C310.81 639.1 311.69 639.8 312.6 640.33L319.63 644.38L327.11 648.72L327.11 658.8Z" />
		<path class="shp2" d="M305.36 627.78C305.36 632.4 308.6 638.02 312.6 640.33L368.07 672.28C383.07 680.94 407.4 680.94 422.41 672.28L495.23 630.2C510.24 621.54 510.24 607.5 495.24 598.84L439.74 566.86C435.74 564.55 432.49 558.94 432.49 554.32L432.49 484.2L305.36 557.66L305.36 627.78Z" />
		<path class="shp6" d="M395.24 678.78C385.41 678.78 375.57 676.61 368.07 672.28L327.13 648.69L454.5 575.4L454.5 575.39L439.74 566.86C435.74 564.55 432.49 558.94 432.49 554.32C432.49 558.94 435.74 564.55 439.74 566.86L495.24 598.84C502.74 603.17 506.49 608.84 506.49 614.52C506.49 614.73 506.49 614.93 506.48 615.14C506.48 614.73 506.48 614.51 506.48 614.51C506.48 620.2 502.71 625.89 495.22 630.2L471.86 643.71L422.41 672.28C416.72 675.56 409.7 677.6 402.35 678.4C400.41 678.6 398.45 678.72 396.49 678.74L396.49 678.76C396.07 678.77 395.66 678.78 395.24 678.78Z" />
		<path class="shp7" d="M327.11 648.7L319.63 644.38L316.73 642.71L327.13 648.69L327.11 648.7ZM310.04 638.31C310.03 638.3 310.02 638.29 310.01 638.28C308.5 636.74 307.24 634.78 306.41 632.74C306.35 632.59 306.29 632.44 306.24 632.29C307.06 634.51 308.41 636.66 310.04 638.31Z" />
		<path fill-rule="evenodd" class="shp8" d="M316.73 642.71L312.6 640.33L319.63 644.38L316.73 642.71ZM310.62 638.87C310.42 638.69 310.23 638.5 310.04 638.31C310.03 638.3 310.02 638.29 310.01 638.28C310.21 638.48 310.41 638.68 310.62 638.87ZM312.6 640.33C311.92 639.93 311.25 639.44 310.62 638.87C311.25 639.44 311.92 639.93 312.6 640.33ZM306.24 632.29C305.68 630.77 305.36 629.23 305.36 627.78L305.36 616.54L305.36 616.54L305.36 627.78C305.36 629.37 305.74 631.08 306.41 632.74C306.35 632.59 306.29 632.44 306.24 632.29Z" />
		<path class="shp9" d="M327.13 648.69L316.73 642.71L312.6 640.33C311.7 639.81 310.84 639.12 310.04 638.31C308.41 636.66 307.06 634.51 306.24 632.29C305.68 630.77 305.36 629.23 305.36 627.78L305.36 616.54L432.49 543.14L432.49 554.32C432.49 558.94 435.74 564.55 439.74 566.86L454.5 575.39L454.5 575.4L327.13 648.69Z" />
		<path class="shp2" d="M506.48 614.51C506.48 614.51 506.48 618.94 506.48 624.63C506.48 630.32 502.71 635.97 495.22 640.32L422.43 682.38C415.23 686.56 405.9 688.66 396.49 688.82L396.49 678.74C405.9 678.62 415.23 676.44 422.43 672.3L495.22 630.2C502.71 625.89 506.48 620.2 506.48 614.51Z" />
		<path class="shp10" d="M396.49 688.82L396.49 678.74C405.9 678.62 415.23 676.44 422.43 672.3L495.22 630.2C502.71 625.89 506.48 620.2 506.48 614.51C506.48 614.51 506.48 618.94 506.48 624.63C506.48 630.32 502.71 635.97 495.22 640.32L422.43 682.38C415.23 686.56 405.9 688.66 396.49 688.82Z" />
		<path class="shp2" d="M101.23 714.94C105.92 717.64 113.78 717.5 118.78 714.61C181.29 678.53 547.95 466.84 610.45 430.76C615.45 427.87 619.5 420.85 619.5 415.07L619.5 17.34C619.5 11.56 615.7 4.68 611 1.97C606.31 -0.74 598.45 -0.59 593.45 2.3L101.8 286.15C96.8 289.04 92.74 296.06 92.74 301.84L92.74 699.57C92.74 705.35 96.54 712.23 101.23 714.94ZM118.79 714.6L610.45 430.75C615.45 427.86 619.5 420.84 619.5 415.06L619.5 17.32C619.5 11.55 615.45 9.21 610.45 12.1L118.79 295.95C113.79 298.84 109.74 305.86 109.74 311.64L109.73 709.37C109.73 715.15 113.79 717.49 118.79 714.6Z" />
		<path class="shp10" d="M109.73 682.75L109.74 311.64C109.74 310.9 109.8 310.14 109.93 309.37C110.14 308.12 110.5 306.84 111 305.59C111.94 303.2 113.36 300.9 115.06 299.03C116.2 297.78 117.46 296.72 118.79 295.96L290.96 196.55L610.45 12.1C611.9 11.26 613.27 10.86 614.49 10.86C614.56 10.86 614.62 10.86 614.69 10.86C615.09 10.88 615.47 10.94 615.83 11.03C615.83 11.04 615.84 11.04 615.84 11.04C615.84 11.04 615.84 11.04 615.84 11.04C618.06 11.66 619.5 13.88 619.5 17.32L619.5 77.74L602.5 87.56L602.5 42.59C602.5 40.13 601.27 38.71 599.49 38.71C598.76 38.71 597.94 38.95 597.06 39.45L132.16 307.86C129.16 309.6 126.72 313.81 126.72 317.28L126.72 637.39C126.72 639.85 127.94 641.27 129.73 641.27C130.46 641.27 131.28 641.03 132.15 640.53L171.04 618.08L171.04 647.35L109.73 682.75" />
		<path class="shp2" d="M117.45 724.94C112.43 727.16 105.49 727.07 101.22 724.6C96.54 721.89 92.73 715.02 92.73 709.21L92.73 673L109.72 682.83L109.72 719.04C109.72 724.31 113.06 726.7 117.45 724.94Z" />
		<path class="shp10" d="M109.45 726.53C106.41 726.53 103.45 725.89 101.22 724.6C96.54 721.89 92.73 715.02 92.73 709.21L92.73 673L109.72 682.83L109.72 719.04C109.72 723.16 111.75 725.51 114.74 725.51C115.58 725.51 116.49 725.32 117.45 724.94C115.06 726 112.22 726.53 109.45 726.53Z" />
		<path class="shp2" d="M109.72 682.83L109.73 719.03C109.73 724.8 113.79 727.14 118.79 724.26L610.45 440.4C615.45 437.52 619.5 430.49 619.5 424.72L619.5 388.44L109.72 682.83Z" />
		<path class="shp6" d="M109.73 682.82L109.73 682.75L109.73 682.82L109.72 682.83" />
		<path class="shp9" d="M109.73 682.82L109.73 682.75L171.04 647.35L171.04 647.41L109.73 682.82Z" />
		<path class="shp6" d="M114.74 725.49C111.77 725.49 109.73 723.12 109.73 719.03L109.73 682.82L109.73 682.82L171.04 647.41L171.04 662.19C171.04 664.65 172.1 666.84 173.71 667.7C173.83 667.76 174.08 667.9 174.42 668.09C176.24 669.12 180.41 671.54 181.81 672.29C182.3 672.56 182.84 672.7 183.41 672.7C184.07 672.7 184.77 672.51 185.51 672.09L603.53 430.61L608.65 441.44L432.49 543.14L305.36 616.54L305.36 616.54L296.59 621.6L296.58 621.61L118.79 724.26C117.33 725.1 115.96 725.49 114.74 725.49Z" />
		<path class="shp2" d="M126.72 637.39L126.72 317.28C126.72 313.81 129.16 309.6 132.16 307.86L597.06 39.45C600.07 37.72 602.5 39.12 602.5 42.59L602.51 362.71C602.51 366.17 600.08 370.39 597.08 372.12L132.15 640.53C129.15 642.26 126.72 640.86 126.72 637.39Z" />
		<path class="shp11" d="M126.72 637.39L126.72 317.28C126.72 313.81 129.16 309.6 132.16 307.86L597.06 39.45C600.07 37.72 602.5 39.12 602.5 42.59L602.51 362.71C602.51 366.17 600.08 370.39 597.08 372.12L132.15 640.53C129.15 642.26 126.72 640.86 126.72 637.39Z" />
		<path class="shp2" d="M364.61 547.15C359.92 549.86 356.11 556.45 356.11 561.87C356.11 567.29 359.92 569.49 364.61 566.78C369.3 564.07 373.11 557.48 373.11 552.06C373.11 546.64 369.3 544.44 364.61 547.15Z" />
		<path class="shp12" d="M92.74 502.77L92.74 301.84L92.74 502.76L92.74 502.77Z" />
		<path class="shp13" d="M92.74 673L92.73 673L92.74 502.77L92.74 502.76L92.74 673Z" />
		<path class="shp14" d="M109.72 682.83L92.74 673L92.74 502.76L92.74 301.84C92.74 298.95 93.78 295.73 95.41 292.89L105.16 298.51L112.39 302.68C112.39 302.68 112.39 302.68 112.39 302.68C111.85 303.61 111.39 304.59 111 305.59C110.5 306.84 110.13 308.12 109.93 309.37C109.8 310.14 109.73 310.89 109.72 311.63L109.72 682.83Z" />
		<path class="shp15" d="M109.93 309.37C110.13 308.12 110.5 306.84 111 305.59C110.5 306.84 110.14 308.12 109.93 309.37Z" />
		<path fill-rule="evenodd" class="shp16" d="M95.41 292.88L95.4 292.87C96 291.86 96.67 290.89 97.41 290C96.67 290.89 96 291.86 95.41 292.88ZM98.87 288.4C99.48 287.81 100.11 287.28 100.77 286.81C100.11 287.28 99.48 287.81 98.87 288.4ZM615.76 6.51C614.41 4.61 612.79 3.02 611.05 2C612.79 3.01 614.41 4.61 615.76 6.51ZM607.8 0.67C606.22 0.25 604.49 0.03 602.74 0.03C601.31 0.03 599.86 0.18 598.47 0.46C599.86 0.17 601.31 0.03 602.74 0.03C604.49 0.03 606.22 0.24 607.8 0.67ZM98.85 288.42C98.85 288.42 98.86 288.41 98.86 288.41C98.86 288.41 98.85 288.42 98.85 288.42Z" />
		<path class="shp6" d="M112.39 302.68L105.16 298.51L95.41 292.88C96 291.86 96.67 290.89 97.41 290C97.87 289.44 98.35 288.91 98.85 288.42C98.85 288.42 98.86 288.41 98.86 288.41C98.86 288.41 98.87 288.4 98.87 288.4C99.48 287.81 100.11 287.28 100.77 286.81C101.11 286.57 101.46 286.35 101.81 286.15L593.45 2.3C594.93 1.45 596.65 0.83 598.47 0.46C599.86 0.18 601.31 0.03 602.74 0.03C604.49 0.03 606.22 0.25 607.8 0.67C608.96 0.99 610.05 1.42 611.01 1.98C611.02 1.99 611.04 1.99 611.05 2C612.79 3.02 614.41 4.61 615.76 6.51C617.7 9.25 619.07 12.64 619.41 15.84C619.05 13.24 617.73 11.57 615.84 11.04C615.84 11.04 615.84 11.04 615.84 11.04C615.84 11.04 615.83 11.04 615.83 11.03C615.47 10.94 615.09 10.88 614.69 10.86C614.62 10.86 614.55 10.86 614.49 10.86C613.27 10.86 611.89 11.25 610.44 12.09L290.96 196.55L118.79 295.95C117.46 296.72 116.2 297.78 115.06 299.03C114.07 300.12 113.17 301.35 112.39 302.68Z" />
		<path fill-rule="evenodd" class="shp9" d="M115.06 299.03C116.2 297.78 117.46 296.72 118.79 295.95L290.96 196.55L118.79 295.96C117.46 296.72 116.2 297.78 115.06 299.03ZM615.83 11.03C615.47 10.94 615.09 10.88 614.69 10.86C615.09 10.88 615.47 10.94 615.83 11.03ZM615.84 11.04C615.84 11.04 615.84 11.04 615.84 11.04C615.84 11.04 615.84 11.04 615.84 11.04Z" />
		<path class="shp17" d="M112.39 302.68L105.16 298.51L112.39 302.68C112.39 302.68 112.39 302.68 112.39 302.68Z" />
		<path class="shp2" d="M645.94 64.78C644.76 64.07 643.14 64.09 641.32 65.14L177.39 333.03C173.88 335.06 171.04 339.97 171.04 344.02L171.05 662.19C171.05 664.65 172.1 666.83 173.72 667.7C174.76 668.26 180.21 671.43 181.83 672.3C182.87 672.86 184.14 672.88 185.51 672.09L649.42 404.1C652.93 402.08 655.78 397.16 655.78 393.11L655.78 73.41C655.78 71.32 655.02 69.87 653.81 69.24C652.67 68.64 647.11 65.48 645.94 64.78Z" />
		<path class="shp18" d="M183.41 671.66C181.64 671.66 180.2 669.48 180.2 666.79L180.2 348.62C180.2 344.98 182.86 340.36 186.02 338.53L649.95 70.64C650.78 70.17 651.58 69.92 652.26 69.92C653.81 69.92 654.74 71.22 654.74 73.41L654.74 393.11C654.74 396.76 652.07 401.37 648.91 403.19L184.99 671.19C184.44 671.5 183.91 671.66 183.41 671.66Z" />
		<path fill-rule="evenodd" class="shp1" d="M655.78 73.41L655.78 393.11C655.78 397.16 652.93 402.08 649.42 404.1L185.51 672.09C184.77 672.51 184.07 672.7 183.41 672.7C180.93 672.7 179.16 669.99 179.16 666.79L179.16 348.62C179.16 344.57 182 339.65 185.5 337.63L649.43 69.74C650.45 69.15 651.41 68.87 652.27 68.87C654.35 68.87 655.78 70.53 655.78 73.41ZM650.47 71.55L186.54 339.43C183.67 341.09 181.24 345.3 181.24 348.62L181.24 666.79C181.24 668.83 182.25 670.62 183.41 670.62C183.73 670.62 184.08 670.51 184.47 670.29L648.38 402.29C651.26 400.63 653.69 396.43 653.69 393.11L653.69 73.41C653.69 72.49 653.51 70.96 652.27 70.96C651.91 70.96 651.31 71.06 650.47 71.55Z" />
		<path class="shp0" d="M173.71 667.7C174.4 668.06 179.34 670.88 181.5 672.11C180.04 671.07 179.27 669.29 179.16 666.78L179.16 369.38L171.04 364.63L171.04 662.19C171.04 664.65 172.1 666.84 173.71 667.7Z" />
		<path class="shp2" d="M655.77 73.36C655.75 69.35 652.92 67.73 649.43 69.74L185.5 337.63C182 339.65 179.16 344.57 179.16 348.62L179.16 369.38L655.77 94.19L655.77 73.36Z" />
		<path class="shp19" d="M641.32 65.14C642.33 64.56 643.28 64.29 644.13 64.29C644.8 64.29 645.41 64.46 645.94 64.77C646.06 64.84 646.23 64.95 646.44 65.07C646.23 64.95 646.06 64.85 645.94 64.78C645.42 64.46 644.81 64.29 644.13 64.29C643.28 64.29 642.34 64.56 641.32 65.14Z" />
		<path class="shp20" d="M174.45 335.56C175.33 334.51 176.33 333.64 177.39 333.03C176.33 333.65 175.33 334.52 174.45 335.56Z" />
		<path class="shp21" d="M181.05 342.31L172.97 337.67C173.41 336.92 173.91 336.21 174.45 335.56C175.33 334.52 176.33 333.65 177.39 333.03L641.32 65.14C642.34 64.56 643.28 64.29 644.13 64.29C644.81 64.29 645.42 64.46 645.94 64.78C646.06 64.85 646.23 64.95 646.44 65.07C648.13 66.07 652.32 68.44 653.6 69.14C653.41 69.06 653.21 68.99 652.99 68.95C652.76 68.9 652.52 68.87 652.26 68.87C651.41 68.87 650.45 69.16 649.43 69.74L389.46 219.86L185.5 337.63C183.77 338.63 182.19 340.35 181.05 342.31Z" />
		<path class="shp22" d="M181.05 342.31C182.19 340.35 183.77 338.63 185.5 337.63L389.46 219.86L185.5 337.63C183.77 338.63 182.19 340.35 181.05 342.31ZM653.64 69.16C653.54 69.11 653.44 69.07 653.34 69.04C653.23 69 653.11 68.97 652.99 68.95C653.21 68.99 653.41 69.06 653.6 69.14C653.61 69.14 653.62 69.15 653.64 69.16Z" />
		<path class="shp21" d="M181.05 342.31L181.05 342.31C182.19 340.35 183.77 338.63 185.5 337.63L389.46 219.86L185.51 337.63C183.78 338.64 182.19 340.35 181.05 342.31ZM653.68 69.18C653.57 69.13 653.46 69.08 653.34 69.04C653.44 69.07 653.54 69.11 653.64 69.16C653.65 69.16 653.66 69.17 653.68 69.18Z" />
		<path class="shp23" d="M171.04 364.63L171.04 364.63L171.04 344.01C171.04 343.82 171.05 343.62 171.06 343.43C171.05 343.63 171.04 343.83 171.04 344.02L171.04 364.63Z" />
		<path class="shp24" d="M179.16 369.38L171.04 364.63L171.04 344.02C171.04 343.83 171.05 343.63 171.06 343.43C171.19 341.53 171.91 339.49 172.97 337.67L181.03 342.34C179.87 344.33 179.16 346.59 179.16 348.62L179.16 369.38Z" />
		<path class="shp25" d="M179.16 369.38L179.16 369.38L179.16 348.62C179.16 346.59 179.87 344.33 181.03 342.34L181.03 342.34C179.87 344.33 179.16 346.59 179.16 348.62L179.16 369.38Z" />
		<path class="shp26" d="M179.16 369.38L171.04 364.65L171.04 364.63L171.04 364.63L179.16 369.38L179.16 369.38Z" />
		<path class="shp24" d="M179.16 369.38L179.16 348.62C179.16 346.59 179.87 344.33 181.03 342.34L181.04 342.34C181.04 342.33 181.05 342.32 181.05 342.31L181.06 342.32C179.88 344.31 179.16 346.57 179.16 348.63L179.16 369.38Z" />
		<path class="shp27" d="M181.03 342.34L172.97 337.67L181.05 342.31C181.04 342.32 181.04 342.33 181.03 342.34Z" />
		<path class="shp28" d="M181.03 342.34L181.03 342.34C181.04 342.33 181.04 342.32 181.05 342.31C181.04 342.32 181.04 342.33 181.03 342.34Z" />
		<path class="shp27" d="M181.04 342.34L181.03 342.34C181.04 342.33 181.04 342.32 181.05 342.31L181.05 342.31C181.05 342.32 181.04 342.33 181.04 342.34Z" />
		<path class="shp2" d="M557.94 313.19L280.08 473.61C277.51 475.09 275.44 478.69 275.44 481.64L275.44 561.3C275.44 564.26 277.51 567.85 280.08 569.33L288.2 574C290.76 575.47 294.91 575.47 297.47 573.99L575.3 413.59C577.86 412.11 579.94 408.51 579.94 405.56L579.97 325.88C579.98 322.92 577.9 319.33 575.33 317.85L567.22 313.18C564.65 311.71 560.5 311.71 557.94 313.19Z" />
		<path fill-rule="evenodd" class="shp29" d="M280.08 473.61L346.31 435.37L280.07 473.61C278.8 474.34 277.65 475.61 276.81 477.04L276.81 477.04C277.65 475.6 278.8 474.35 280.08 473.61ZM575.33 317.84L567.21 313.17C565.94 312.44 564.27 312.08 562.61 312.08C562.6 312.08 562.59 312.08 562.59 312.08C564.26 312.08 565.94 312.45 567.22 313.18L575.33 317.85C577.63 319.18 579.54 322.21 579.91 324.95C579.92 325.01 579.93 325.07 579.94 325.12C579.64 322.34 577.69 319.19 575.33 317.84Z" />
		<path class="shp30" d="M294.2 487.09L276.81 477.04C277.65 475.6 278.8 474.35 280.08 473.61L346.31 435.37L557.94 313.2C559.21 312.46 560.89 312.08 562.56 312.08C562.57 312.08 562.58 312.08 562.59 312.08C564.26 312.08 565.94 312.45 567.22 313.18L575.33 317.85C577.63 319.18 579.54 322.21 579.91 324.95C579.65 323.43 578.7 322.56 577.41 322.56C576.78 322.56 576.08 322.77 575.33 323.2L297.48 483.62C296.2 484.34 295.04 485.63 294.2 487.09Z" />
		<path class="shp11" d="M296.69 574.36C294.12 575.46 290.52 575.33 288.21 574L280.09 569.33C277.52 567.85 275.44 564.25 275.44 561.3L275.44 481.65C275.44 480.15 275.98 478.5 276.81 477.04L294.2 487.09C293.35 488.54 292.83 490.17 292.83 491.65L292.83 571.32C292.83 573.98 294.5 575.2 296.69 574.36Z" />
		<path class="shp2" d="M297.47 483.62L575.34 323.2C577.9 321.72 579.98 322.92 579.97 325.88L579.94 405.56C579.94 408.51 577.86 412.11 575.3 413.59L297.47 573.99C294.91 575.47 292.84 574.27 292.84 571.31L292.84 491.66C292.84 488.7 294.91 485.1 297.47 483.62Z" />
		<path class="shp31" d="M484.28 355.72L280.07 473.61C278.8 474.34 277.65 475.61 276.81 477.04L294.2 487.09C295.04 485.63 296.2 484.34 297.48 483.62L501.64 365.74L484.28 355.72Z" />
		<path class="shp32" d="M501.64 365.75L297.47 483.62C294.91 485.1 292.84 488.7 292.84 491.66L292.84 571.31C292.84 574.27 294.91 575.47 297.47 573.99L501.64 456.12L501.64 365.75Z" />
		<path class="shp2" d="M344.56 473.92L449.91 413.1C454.28 410.57 457.82 412.36 457.82 417.1C457.82 421.83 454.28 427.71 449.91 430.23L344.57 491.05C340.2 493.57 336.66 491.78 336.65 487.05C336.65 482.32 340.19 476.44 344.56 473.92Z" />
		<path fill-rule="evenodd" class="shp18" d="M366.15 494.05L366.46 494.11C366.54 494.21 366.59 494.36 366.59 494.58L366.59 506.44C366.59 507.64 366.49 508.77 366.29 509.85C366.1 510.92 365.81 511.92 365.41 512.85C365.03 513.77 364.54 514.58 363.95 515.3C363.36 516.01 362.69 516.59 361.92 517.03C361.14 517.49 360.45 517.69 359.88 517.65C359.29 517.61 358.81 517.35 358.42 516.89C358.03 516.42 357.74 515.75 357.55 514.9C357.36 514.05 357.26 513.02 357.26 511.82L357.26 499.96C357.26 499.75 357.31 499.54 357.39 499.34C357.48 499.13 357.58 499 357.7 498.93L359.02 498.17L359.33 498.22C359.42 498.32 359.46 498.48 359.46 498.69L359.46 510.41C359.46 511.2 359.52 511.84 359.64 512.33C359.76 512.82 359.93 513.18 360.14 513.41C360.36 513.65 360.62 513.76 360.92 513.75C361.23 513.74 361.56 513.62 361.92 513.42C362.27 513.21 362.61 512.94 362.92 512.6C363.23 512.25 363.49 511.84 363.71 511.36C363.93 510.87 364.09 510.32 364.22 509.69C364.35 509.06 364.41 508.35 364.41 507.55L364.41 495.84C364.41 495.62 364.45 495.42 364.54 495.21C364.62 495.01 364.73 494.87 364.85 494.8L366.15 494.05ZM374.32 505.27C374.32 505.06 374.28 504.91 374.2 504.82C374.13 504.73 373.99 504.68 373.81 504.67C373.62 504.67 373.36 504.7 373.05 504.76C372.73 504.83 372.33 504.91 371.84 505C371.36 505.08 370.97 505.06 370.66 504.96C370.34 504.85 370.09 504.66 369.9 504.38C369.71 504.11 369.58 503.75 369.5 503.3C369.43 502.85 369.39 502.34 369.39 501.76C369.39 501.18 369.46 500.57 369.61 499.92C369.77 499.27 369.99 498.65 370.27 498.05C370.56 497.45 370.91 496.89 371.32 496.39C371.74 495.88 372.21 495.47 372.74 495.16C373.27 494.86 373.75 494.69 374.16 494.66C374.58 494.63 374.94 494.71 375.23 494.88C375.52 495.06 375.75 495.33 375.91 495.69C376.08 496.05 376.17 496.45 376.19 496.9C376.2 497.11 376.16 497.32 376.07 497.52C375.98 497.73 375.87 497.87 375.75 497.94L374.5 498.66L374.13 498.71L373.86 498.51L373.47 498.37C373.31 498.36 373.07 498.45 372.74 498.64C372.41 498.82 372.12 499.07 371.88 499.39C371.63 499.71 371.5 500.09 371.5 500.54C371.5 500.75 371.53 500.91 371.59 501.02L371.93 501.21C372.1 501.23 372.34 501.22 372.64 501.17C372.93 501.12 373.32 501.05 373.8 500.95C374.76 500.76 375.44 500.94 375.84 501.49C376.24 502.04 376.44 502.9 376.44 504.05C376.44 504.63 376.35 505.24 376.19 505.89C376.03 506.53 375.79 507.16 375.48 507.77C375.17 508.39 374.79 508.95 374.34 509.47C373.89 509.99 373.38 510.41 372.82 510.74C372.24 511.07 371.74 511.24 371.3 511.26C370.86 511.27 370.49 511.17 370.19 510.96C369.88 510.75 369.65 510.45 369.49 510.06C369.32 509.67 369.23 509.25 369.22 508.8C369.21 508.59 369.26 508.38 369.35 508.17C369.44 507.97 369.54 507.83 369.66 507.76L370.92 507.04L371.28 507.03L371.56 507.33L371.99 507.55C372.17 507.57 372.45 507.48 372.82 507.27L373.32 506.92L373.81 506.45C373.95 506.28 374.07 506.1 374.17 505.9C374.27 505.69 374.32 505.49 374.32 505.27ZM378.56 499.61C378.56 498.53 378.66 497.46 378.84 496.4C379.03 495.34 379.29 494.36 379.64 493.45C379.99 492.55 380.41 491.75 380.9 491.06C381.39 490.37 381.94 489.85 382.55 489.5C383.16 489.15 383.71 489.03 384.21 489.14C384.7 489.25 385.12 489.54 385.47 490C385.81 490.47 386.08 491.09 386.27 491.88C386.46 492.67 386.56 493.55 386.56 494.54L386.56 495.84C386.56 496.05 386.51 496.26 386.42 496.46C386.34 496.66 386.24 496.8 386.11 496.87L380.68 500.01C380.68 500.46 380.73 500.81 380.84 501.09C380.94 501.37 381.08 501.58 381.25 501.71C381.42 501.84 381.62 501.9 381.85 501.88C382.08 501.86 382.31 501.79 382.55 501.65C382.9 501.45 383.18 501.22 383.4 500.97C383.62 500.72 383.79 500.46 383.94 500.19C384.06 499.96 384.15 499.8 384.23 499.7L384.54 499.44L385.84 498.68L386.16 498.73C386.25 498.83 386.29 498.99 386.28 499.21C386.27 499.49 386.18 499.88 386.03 500.4C385.87 500.91 385.63 501.46 385.32 502.05C385 502.64 384.62 503.21 384.15 503.76C383.7 504.32 383.16 504.77 382.55 505.12C381.94 505.47 381.39 505.6 380.9 505.51C380.41 505.42 379.99 505.13 379.64 504.63C379.29 504.14 379.03 503.47 378.84 502.62C378.66 501.77 378.56 500.77 378.56 499.61ZM382.55 492.97C382.24 493.15 381.97 493.39 381.75 493.68C381.53 493.97 381.34 494.29 381.19 494.64C381.03 494.99 380.92 495.35 380.84 495.71C380.75 496.08 380.7 496.41 380.68 496.71L384.36 494.59C384.34 494.31 384.3 494.04 384.24 493.75C384.18 493.46 384.08 493.23 383.94 493.05C383.81 492.87 383.63 492.76 383.41 492.72C383.18 492.69 382.9 492.77 382.55 492.97ZM393.1 487.17C392.45 487.55 391.98 488.07 391.69 488.75C391.4 489.43 391.26 490.35 391.26 491.5L391.26 499.02C391.26 499.24 391.22 499.45 391.13 499.65C391.04 499.85 390.94 499.99 390.82 500.06L389.59 500.77L389.28 500.72C389.19 500.62 389.14 500.46 389.14 500.25L389.14 486.76C389.14 486.55 389.19 486.34 389.28 486.14C389.36 485.93 389.47 485.8 389.59 485.73L390.82 485.01L391.13 485.07C391.22 485.17 391.26 485.33 391.26 485.54L391.26 486.21C391.54 485.58 391.84 485.05 392.16 484.61C392.48 484.18 392.9 483.81 393.42 483.51L394.16 483.09L394.47 483.14C394.55 483.24 394.6 483.4 394.6 483.61L394.6 485.52C394.6 485.74 394.55 485.94 394.47 486.15C394.38 486.35 394.28 486.49 394.16 486.56L393.1 487.17ZM408.64 486.15L408.95 486.21C409.04 486.31 409.08 486.47 409.08 486.68L409.08 488.74C409.08 488.95 409.04 489.16 408.95 489.36C408.86 489.56 408.76 489.7 408.64 489.77L401.51 493.89L401.2 493.83C401.12 493.73 401.07 493.57 401.07 493.36L401.07 474.67C401.07 474.46 401.12 474.25 401.2 474.04C401.29 473.84 401.39 473.7 401.51 473.63L402.83 472.87L403.14 472.93C403.23 473.03 403.27 473.19 403.27 473.4L403.27 489.25L408.64 486.15ZM415.04 470.74C415.63 470.4 416.17 470.25 416.66 470.3C417.14 470.35 417.56 470.56 417.91 470.94C418.26 471.31 418.55 471.82 418.75 472.47C418.97 473.12 419.09 473.88 419.12 474.75C419.13 474.92 419.14 475.14 419.14 475.41C419.14 475.67 419.14 475.95 419.14 476.21C419.14 476.49 419.14 476.75 419.14 477.01C419.14 477.27 419.13 477.49 419.12 477.67C419.08 478.58 418.95 479.49 418.75 480.38C418.54 481.27 418.26 482.1 417.91 482.87C417.56 483.64 417.14 484.33 416.66 484.94C416.17 485.55 415.63 486.02 415.04 486.37C414.44 486.71 413.9 486.86 413.42 486.81C412.94 486.76 412.52 486.55 412.16 486.19C411.81 485.82 411.53 485.31 411.33 484.66C411.12 484.01 410.99 483.25 410.95 482.39C410.94 482.22 410.93 482.01 410.93 481.75C410.92 481.49 410.92 481.23 410.92 480.96C410.92 480.69 410.92 480.42 410.93 480.15C410.93 479.87 410.94 479.65 410.95 479.47C410.98 478.56 411.11 477.66 411.32 476.77C411.53 475.87 411.81 475.03 412.16 474.25C412.52 473.47 412.94 472.78 413.42 472.17C413.9 471.56 414.44 471.09 415.04 470.74ZM417.01 476.11C416.97 475.54 416.89 475.09 416.77 474.76C416.64 474.44 416.49 474.21 416.31 474.09C416.12 473.96 415.92 473.92 415.7 473.96C415.49 474 415.26 474.08 415.04 474.21C414.81 474.34 414.59 474.52 414.37 474.73C414.15 474.94 413.95 475.22 413.77 475.55C413.58 475.89 413.43 476.3 413.3 476.76C413.18 477.23 413.1 477.77 413.07 478.39C413.06 478.55 413.05 478.75 413.04 478.98C413.04 479.22 413.03 479.46 413.03 479.71C413.03 479.96 413.04 480.2 413.04 480.44C413.05 480.68 413.06 480.87 413.07 481C413.1 481.57 413.18 482.02 413.3 482.35C413.43 482.67 413.58 482.89 413.77 483.02C413.95 483.15 414.15 483.19 414.37 483.15C414.59 483.11 414.81 483.02 415.04 482.89C415.26 482.76 415.49 482.59 415.7 482.38C415.92 482.17 416.12 481.89 416.31 481.56C416.49 481.22 416.64 480.81 416.77 480.35C416.89 479.88 416.97 479.34 417.01 478.72C417.02 478.58 417.02 478.39 417.02 478.15C417.02 477.9 417.02 477.66 417.02 477.41C417.02 477.16 417.02 476.92 417.02 476.69C417.02 476.45 417.02 476.26 417.01 476.11ZM425.5 482.93C425.73 482.8 425.96 482.6 426.2 482.34C426.44 482.07 426.66 481.75 426.85 481.37C427.05 480.99 427.21 480.55 427.33 480.06C427.46 479.58 427.52 479.05 427.52 478.49L427.52 477.42C427.43 477.65 427.32 477.9 427.18 478.19C427.04 478.47 426.86 478.76 426.66 479.05C426.46 479.34 426.23 479.61 425.97 479.88C425.7 480.15 425.4 480.39 425.06 480.58C424.52 480.89 424.03 480.99 423.59 480.87C423.15 480.74 422.78 480.46 422.47 480.01C422.16 479.56 421.91 478.98 421.73 478.26C421.55 477.54 421.45 476.75 421.43 475.87C421.42 475.59 421.42 475.26 421.42 474.87C421.42 474.49 421.42 474.15 421.43 473.85C421.45 472.95 421.55 472.04 421.73 471.11C421.91 470.19 422.16 469.33 422.47 468.52C422.78 467.72 423.15 467 423.59 466.37C424.03 465.74 424.52 465.27 425.06 464.96C425.4 464.76 425.7 464.64 425.97 464.61C426.23 464.57 426.46 464.58 426.66 464.64C426.86 464.69 427.04 464.79 427.18 464.91L427.52 465.27L427.52 464.61C427.52 464.39 427.56 464.19 427.65 463.98C427.74 463.78 427.84 463.64 427.96 463.57L429.2 462.86L429.5 462.91C429.59 463.01 429.64 463.17 429.64 463.39L429.64 476.95C429.64 479.29 429.27 481.26 428.54 482.87C427.8 484.48 426.79 485.66 425.5 486.4C424.95 486.72 424.43 486.89 423.96 486.9C423.49 486.91 423.08 486.8 422.73 486.57C422.39 486.33 422.11 486 421.9 485.57C421.7 485.14 421.58 484.64 421.56 484.07C421.55 483.87 421.59 483.66 421.69 483.45C421.77 483.25 421.88 483.11 422 483.04L423.11 482.4L423.5 482.45L423.78 482.8C423.92 483.05 424.11 483.2 424.35 483.27C424.6 483.35 424.98 483.23 425.5 482.93ZM423.55 472.83C423.51 473.39 423.51 473.93 423.55 474.45C423.61 475.67 423.83 476.44 424.2 476.78C424.57 477.12 425.02 477.13 425.55 476.82C426.08 476.52 426.53 475.98 426.89 475.21C427.26 474.44 427.46 473.52 427.52 472.45C427.54 472.15 427.55 471.77 427.55 471.33C427.55 470.89 427.54 470.52 427.52 470.25C427.46 469.28 427.26 468.61 426.89 468.24C426.53 467.87 426.08 467.84 425.55 468.15C425.02 468.45 424.57 468.99 424.2 469.75C423.83 470.51 423.61 471.54 423.55 472.83ZM434.81 473.88C434.81 474.09 434.77 474.3 434.68 474.5C434.59 474.71 434.49 474.85 434.37 474.91L433.14 475.63L432.83 475.57C432.74 475.47 432.69 475.31 432.69 475.1L432.69 461.62C432.69 461.41 432.74 461.2 432.83 461C432.91 460.79 433.02 460.65 433.14 460.58L434.37 459.87L434.68 459.92C434.77 460.02 434.81 460.18 434.81 460.4L434.81 473.88ZM434.45 454.33L434.76 454.38C434.85 454.48 434.89 454.64 434.89 454.85L434.89 457.11C434.89 457.32 434.85 457.53 434.76 457.74C434.67 457.94 434.57 458.07 434.45 458.15L433.05 458.95L432.74 458.9C432.66 458.8 432.61 458.64 432.61 458.42L432.61 456.17C432.61 455.96 432.66 455.75 432.74 455.54C432.83 455.34 432.94 455.2 433.05 455.14L434.45 454.33ZM445.81 467.53C445.81 467.74 445.77 467.95 445.68 468.15C445.6 468.36 445.49 468.49 445.37 468.56L444.14 469.28L443.82 469.22C443.74 469.12 443.7 468.96 443.7 468.75L443.7 461.4C443.7 460.25 443.55 459.41 443.24 458.89C442.94 458.37 442.47 458.29 441.84 458.65C441.26 458.98 440.81 459.59 440.48 460.48C440.15 461.36 439.99 462.39 439.99 463.54L439.99 470.89C439.99 471.1 439.94 471.31 439.86 471.52C439.77 471.72 439.66 471.86 439.55 471.93L438.31 472.64L438 472.59C437.91 472.49 437.87 472.33 437.87 472.11L437.87 458.63C437.87 458.42 437.91 458.21 438 458.01C438.09 457.8 438.19 457.66 438.31 457.59L439.55 456.88L439.86 456.94C439.94 457.04 439.99 457.2 439.99 457.41L439.99 458.07C440.27 457.41 440.6 456.81 440.98 456.26C441.36 455.71 441.81 455.29 442.33 454.99C442.99 454.6 443.55 454.47 443.99 454.58C444.43 454.69 444.79 454.97 445.06 455.43C445.33 455.89 445.53 456.5 445.64 457.25C445.75 458.01 445.81 458.84 445.81 459.75L445.81 467.53Z" />
		<path class="shp31" d="M550.91 406.89L530.67 418.58L533.8 390.19C531.39 388.91 529.84 385.77 529.84 381.24C529.84 373.18 534.74 363.82 540.79 360.33C546.83 356.84 551.74 360.55 551.74 368.6C551.74 373.13 550.19 378.06 547.77 382.13L550.91 406.89Z" />
		<path class="shp32" d="M550.91 406.89L533.1 396.61L530.67 418.58L550.91 406.89ZM540.79 360.33C536.84 362.61 533.38 367.41 531.45 372.72L547.77 382.14L547.77 382.13C550.19 378.06 551.74 373.13 551.74 368.6C551.74 360.55 546.83 356.84 540.79 360.33Z" />
		<path class="shp2" d="M442.41 265.86C435.49 261.85 425.93 262.42 415.36 268.52C394.23 280.72 377.11 310.38 377.11 334.77C377.11 347.01 381.43 355.59 388.4 359.56C390.21 360.6 400.05 366.32 401.87 367.38C408.8 371.38 418.35 370.81 428.92 364.71C450.04 352.51 467.16 322.85 467.16 298.46C467.16 286.27 462.88 277.71 455.96 273.71L442.41 265.86ZM428.91 276.38C407.79 288.58 390.67 318.24 390.67 342.63C390.67 367.02 407.8 376.91 428.92 364.71C450.04 352.51 467.18 322.85 467.16 298.46C467.14 274.07 450.01 264.19 428.91 276.38ZM450.03 330.5L450.03 333.28C444.58 342.57 437.13 350.67 428.91 355.4C420.68 360.15 413.24 360.66 407.8 357.64L407.8 351.87C407.8 340.74 415.36 327.64 425 322.05L430.56 318.86C435.49 316.01 440.26 315.65 444.02 317.82C447.85 320.03 450.03 324.64 450.03 330.5Z" />
		<path class="shp33" d="M455.96 273.71C455.92 273.69 455.87 273.66 455.82 273.63L450.71 270.67L455.96 273.71Z" />
		<path class="shp21" d="M396.25 316.43L382.69 308.57C389.41 291.99 401.52 276.51 415.36 268.52C421.5 264.98 427.29 263.3 432.43 263.3C436.14 263.3 439.51 264.18 442.41 265.86L450.71 270.67L455.82 273.63C452.95 272 449.63 271.16 445.97 271.16C440.84 271.16 435.05 272.83 428.91 276.38C428.65 276.53 428.39 276.68 428.13 276.84C428.12 276.84 428.11 276.85 428.11 276.85L428.1 276.85C414.61 284.97 402.83 300.17 396.25 316.43ZM396.25 316.43L396.25 316.43C402.83 300.17 414.61 284.97 428.1 276.85C414.61 284.98 402.84 300.17 396.25 316.43ZM428.11 276.85C428.11 276.85 428.12 276.84 428.13 276.84C428.12 276.84 428.11 276.85 428.11 276.85Z" />
		<path fill-rule="evenodd" class="shp34" d="M396.46 364.24C397.32 364.74 398.15 365.22 398.89 365.65C398.15 365.21 397.32 364.73 396.46 364.24ZM394.8 363.27C395.36 363.59 395.91 363.92 396.46 364.24C395.92 363.92 395.36 363.59 394.8 363.27ZM377.11 334.77L377.11 334.77C377.11 344.38 379.77 351.73 384.29 356.37C379.78 351.73 377.12 344.38 377.11 334.77Z" />
		<path class="shp35" d="M401.31 367.05C400.77 366.74 399.91 366.24 398.89 365.65C397.67 364.94 396.23 364.1 394.8 363.27C392 361.65 389.25 360.05 388.4 359.56C386.9 358.71 385.52 357.64 384.29 356.37C379.78 351.73 377.12 344.38 377.11 334.77L390.67 342.64C390.67 343.54 390.69 344.43 390.74 345.3C391.31 355.76 395.23 363.24 401.31 367.05ZM401.37 367.08C401.35 367.07 401.33 367.06 401.31 367.05C395.23 363.24 391.31 355.76 390.74 345.3C391.31 355.79 395.25 363.28 401.37 367.08Z" />
		<path class="shp36" d="M377.11 334.77L377.11 334.77C377.11 333.18 377.19 331.56 377.33 329.94C377.19 331.56 377.11 333.18 377.11 334.77C377.11 334.77 377.11 334.77 377.11 334.77ZM377.33 329.89C377.33 329.89 377.33 329.87 377.34 329.87C377.33 329.87 377.33 329.89 377.33 329.89Z" />
		<path class="shp37" d="M390.67 342.64L377.11 334.77C377.11 334.77 377.11 334.77 377.11 334.77C377.11 333.18 377.19 331.56 377.33 329.94C377.33 329.92 377.33 329.91 377.33 329.89C377.33 329.89 377.33 329.87 377.34 329.87C377.95 322.89 379.84 315.63 382.69 308.57L396.25 316.43C393.75 322.6 391.99 328.93 391.18 335.07C391.18 335.09 391.18 335.11 391.18 335.12C391.18 335.13 391.18 335.14 391.17 335.15C390.84 337.68 390.67 340.18 390.67 342.63L390.67 342.64ZM391.17 335.15C391.18 335.14 391.18 335.13 391.18 335.12C391.18 335.13 391.18 335.14 391.17 335.15ZM391.18 335.07C391.99 328.93 393.75 322.6 396.25 316.43L396.25 316.43C393.75 322.6 392 328.93 391.18 335.07Z" />
		<path class="shp19" d="M424.11 317.56C422.78 317.56 421.55 317.24 420.43 316.6C417.85 315.11 416.43 312.16 416.43 308.3C416.43 301.23 421.23 292.92 427.35 289.39L427.35 289.38C430.69 287.45 433.94 287.21 436.54 288.7C439.11 290.19 440.53 293.13 440.53 296.99C440.53 304.06 435.74 312.37 429.61 315.91C427.71 317 425.84 317.56 424.11 317.56ZM444.02 317.82C440.26 315.65 435.49 316.01 430.56 318.86L425 322.05C415.36 327.64 407.8 340.74 407.8 351.87L407.8 357.64C413.24 360.66 420.68 360.15 428.91 355.4C437.13 350.67 444.58 342.57 450.03 333.28L450.03 330.5C450.03 324.64 447.85 320.03 444.02 317.82Z" />
		<path class="shp2" d="M872.32 678.24C872.32 678.24 875.09 653.91 887.19 635.02C899.3 616.14 915.93 604.36 931.44 603.13C946.96 601.9 959.49 616.18 942.89 625.98C926.29 635.79 896.79 645.79 883.21 682.46L872.32 678.24Z" />
		<path class="shp37" d="M883.21 682.46L882.09 682.02C882.52 667.7 883.03 652.18 883.5 641.46C884.62 639.27 885.85 637.12 887.19 635.02C899.3 616.14 915.93 604.36 931.44 603.13C932.07 603.08 932.7 603.05 933.32 603.05C942.82 603.05 950.75 608.77 950.75 615.36C950.75 618.9 948.46 622.69 942.89 625.98C926.29 635.79 896.79 645.79 883.21 682.46Z" />
		<path class="shp19" d="M876.87 671.92L876.71 671.87C876.28 671.7 876.08 671.22 876.25 670.79C892.63 630.47 923.8 613.63 938 610.36C938.44 610.25 938.89 610.53 938.99 610.98C939.09 611.43 938.81 611.87 938.37 611.97C924.46 615.18 893.9 631.72 877.79 671.42C877.64 671.79 877.25 671.99 876.87 671.92Z" />
		<path class="shp2" d="M959.76 672.4C958.35 675.56 954.9 677.21 951.68 678.51C948.48 679.8 944.97 681.2 943.23 684.19C939.73 690.24 945.48 698.75 941.72 704.64C940.14 707.11 937.21 708.41 934.32 708.93C931.93 709.37 929.49 709.37 927.05 709.57C925.89 709.55 924.73 709.47 923.6 709.31C920.26 708.82 916.64 708.67 913.59 710.37C908.78 713.08 907.3 719.15 904.38 723.83C900.88 729.43 894.69 733.1 888.19 733.99C886.03 734.27 882.01 734.66 879.81 733.44L879.35 733.15L879.31 733.11C879.01 732.76 878.63 732.33 878.47 732.1L878.38 731.95C877.53 728.81 878.92 725.55 878.98 722.31C878.98 722.11 878.99 721.92 878.97 721.72C878.84 717.96 878.73 714.21 878.65 710.45C878.47 703.54 878.39 696.61 878.44 689.69C878.49 685.2 877.95 680.28 879.85 676.05C881.95 671.39 887.19 671.29 889.17 666.72C889.96 664.9 890.38 662.95 891.15 661.11C893.44 655.71 898.99 651.82 904.86 651.54C914 651.07 922.2 658.47 931.33 657.8C933.69 657.61 936 656.9 938.32 656.47C945.73 655.08 954.29 657.19 958.45 663.45C960.19 666.07 961.03 669.52 959.76 672.4Z" />
		<path class="shp19" d="M877.64 717.55L877.57 717.54C877.16 717.43 876.91 717 877.02 716.59C889.65 669.2 939.58 662.35 951.25 663.2C951.68 663.23 952.01 663.6 951.98 664.03C951.95 664.46 951.57 664.78 951.14 664.75C939.72 663.93 890.89 670.63 878.52 716.99C878.42 717.39 878.03 717.63 877.64 717.55ZM933.11 693.54L932.69 693.32C932.57 693.2 919.84 680.65 898.72 683.75C898.29 683.81 897.89 683.52 897.83 683.1C897.77 682.67 898.06 682.27 898.49 682.21C920.42 678.99 933.67 692.1 933.8 692.23C934.1 692.54 934.1 693.03 933.8 693.33C933.61 693.52 933.35 693.59 933.11 693.54Z" />
		<path class="shp38" d="M757.66 106.07L764.29 108.62L764.29 94.01C764.29 82.43 773.52 79.66 783.55 85.45C793.58 91.24 801.71 105.32 801.71 116.89L801.71 119.02C803.98 118.11 806.92 118.46 810.13 120.31C817.35 124.48 823.2 134.61 823.2 142.94L823.2 143.91L832.44 149.24C837.19 151.99 841.05 158.66 841.05 164.15C841.05 169.63 837.19 171.86 832.44 169.11L757.66 125.94C752.9 123.19 749.05 116.52 749.05 111.04C749.05 105.55 752.9 103.32 757.66 106.07ZM846.39 94.52L858.41 101.46C858.35 100.93 858.31 100.39 858.31 99.87L858.31 96.39C858.31 90.19 862.66 87.68 868.02 90.78C870.2 92.03 872.2 94.02 873.81 96.35C874.69 88.56 880.81 85.65 888.23 89.94C896.26 94.58 902.77 105.85 902.77 115.12L902.77 120.33C902.77 122.73 902.32 124.75 901.54 126.36L911.52 132.13C914.5 133.85 916.91 138.03 916.91 141.46C916.91 144.9 914.5 146.29 911.52 144.57L846.39 106.97C843.41 105.25 841 101.07 841 97.63C841 94.2 843.41 92.8 846.39 94.52Z" />
		<path class="shp39" d="M799.85 410.71C791.1 425.5 782.68 438.35 776.77 444.51C765.55 449.73 739.18 457.76 728.86 459.1C727.03 459.34 725.19 458.87 723.68 457.88C719.63 455.22 716.49 454.79 712.21 453.31C708.86 452.15 707.44 450.55 706.81 451.16C706.01 451.94 705.12 454.17 707.16 456.47C708.19 457.62 710.06 458.89 712.46 460.43C712.46 460.43 705.08 462.4 698.49 460.67C689.56 458.33 685.35 462.62 691.39 472.32C693.55 475.79 702.06 481.35 719.32 479.85C724.3 479.42 731.47 479 737.66 477.68C754.21 474.15 772.61 470.73 783.93 467.35C786.78 466.49 791.88 463.19 794.91 459.73C813.94 438.04 820.25 422.59 828.59 408.54L827.87 385.59C814.38 385.17 807.17 398.33 799.85 410.71Z" />
		<path class="shp31" d="M830.2 385.17C830.2 385.17 818.42 382.67 809.57 393.99C800.3 405.84 783.93 434.31 783.93 434.31C783.93 434.31 789.3 448.58 803.76 450.93L826.98 419.56C826.98 419.56 837.98 397.84 830.2 385.17Z" />
		<path class="shp39" d="M880.41 732.09L865.27 732.09L865.27 705.09L880.41 705.09L880.41 732.09ZM827.91 703.65L812.79 704.19L812.03 675.62L827.91 675.08L827.91 703.65Z" />
		<path class="shp32" d="M882.54 471.36C882.54 486.42 880.32 607.61 880.32 607.61C880.68 611.94 884.58 619.93 883.73 636.57C882.59 659.18 881.06 718.59 881.06 718.59C881.06 718.59 873.71 723.06 864.2 718.94C864.2 718.94 851.93 635.68 849.21 613.28C846.84 593.73 840.78 528.86 840.78 528.86L832.57 605.41C832.57 605.41 835.36 617.07 834.45 630.47C833.74 640.83 828.87 694.8 828.87 694.8C828.87 694.8 821.75 699.84 811.39 696.19C811.39 696.19 802.78 614.91 802.6 605.41C802.4 594.57 807.64 471.2 807.64 471.2L882.54 471.36Z" />
		<path class="shp11" d="M865.27 724.3L865.27 722.05C863.82 722.7 860.45 736.08 854.45 741.79C849.67 746.32 843.16 751.56 841.5 756.62C839.78 761.88 850.57 764.79 855.04 763.96C860.22 763.01 869.2 759.2 871.46 755.68C873.72 752.16 874.77 746.96 876.6 744.37C878.44 741.79 882.66 738.91 883.65 735.92C884.2 734.28 883.55 730.68 882.79 727.64C882.09 724.85 881.33 721.78 880.41 722.05C880.41 722.39 880.41 723.76 880.41 723.76C879.31 725.03 876.27 726.29 872.84 726.43C870.62 726.52 865.25 726.06 865.27 724.3ZM812.62 699.33C811.84 699.36 811.2 700.51 809.46 702.47C807.37 704.83 803.94 707.38 800.56 709.14C794.89 712.1 783.86 716.65 778.88 718.99C775.76 720.45 775.91 724.37 779.13 726.6C782.35 728.83 790.13 730.44 799.46 728.26C804.55 727.08 811.18 722.18 815.37 722.45C819.56 722.71 827.4 722.65 830.5 720.43C833.59 718.21 832.35 713.46 831.48 709.39C830.52 704.94 829.33 698 827.91 698.3L827.91 699.84C826.1 702.71 816.7 703.87 812.7 701.76L812.62 699.33ZM840.78 528.86C840.78 528.86 828.68 525.31 819.7 516.27C819.7 516.27 823.77 524.21 835.86 531.59L833.28 599.94L840.78 528.86Z" />
		<path class="shp2" d="M874.06 387.43C874.06 387.43 886.51 390.31 885.67 412.88L883.05 448.84L883.12 502.79C871.99 515.41 822.63 514.49 805.74 501.78C805.74 501.78 807.65 437.93 808.79 413.36C809.6 395.89 813.62 387.1 830.79 385.17L851.9 386.1L874.06 387.43Z" />
		<path class="shp11" d="M858.16 340.5C858.16 353.47 848.06 363.98 835.62 363.98C823.17 363.98 815.8 353.18 813.08 340.5C808.09 317.32 823.17 317.03 835.62 317.03C848.06 317.03 858.16 327.54 858.16 340.5ZM869.66 350C869.66 350 866.2 366.92 864.81 369.7C863.43 372.48 860.56 373.27 860.56 373.27L860.8 361.37L869.66 350ZM865.32 325.77C865.32 325.77 867.8 325.15 870.43 329.26C872.69 332.79 873.2 340.71 869.66 350L863.14 350.78L865.32 325.77ZM867.72 329.19L875.7 329.34C875.9 327.05 874.26 325.16 872.06 325.12C869.86 325.08 867.91 326.9 867.72 329.19ZM868.69 327.3L874.61 321.61C873.15 319.92 870.64 319.82 869.01 321.39C867.37 322.96 867.23 325.61 868.69 327.3Z" />
		<path class="shp39" d="M861.19 350.79C862.5 351.6 864.36 348.99 865.97 347.23C867.58 345.47 872.64 343.82 875.26 349.57C877.93 355.44 873.41 361.02 869.66 362.88C862.94 366.22 860.8 361.37 860.8 361.37L860.26 388.16C850.79 402.81 829.34 402.28 837.05 387.46L837.07 379.3C837.07 379.3 830.61 380.32 827.46 379.81C822.21 378.97 818.91 374.66 817.32 368.75C814.77 359.25 813.8 351.58 815.96 332.9C818.34 312.42 841.21 312.21 853.55 320.3C865.9 328.4 861.19 350.79 861.19 350.79Z" />
		<path class="shp11" d="M832.69 329.7C838.15 329.15 843.55 328.04 849.03 327.64C850.21 327.55 851.42 327.5 852.57 327.81C856.76 328.94 856.22 333.82 856.89 337.22C858.03 343.09 858.99 353.03 861.19 353.07C861.85 353.09 864.35 348.77 865.97 347.23C867.02 346.23 867.2 344.08 867.43 342.75C867.85 340.32 868.07 337.86 868.26 335.4C868.42 333.32 868.63 331.2 868.62 329.11C868.61 326.77 868.65 324.39 868.07 322.1C867.54 320.03 866.57 318.47 865.15 316.85L864.73 316.39C862.04 313.49 858.6 311.31 854.95 309.8C849.72 307.65 844.04 306.79 838.41 306.21C832.78 305.63 827.1 305.32 821.55 304.18C821.23 304.11 820.89 304.04 820.58 304.16C820.09 304.35 819.88 304.91 819.79 305.41C819.3 307.99 820.45 310.8 822.61 312.28C818.84 312.58 814.5 310.61 810.87 309.63C810.25 309.46 809.56 309.31 809.01 309.63C808.64 309.86 808.42 310.28 808.29 310.69C807.98 311.66 808.05 312.7 808.18 313.71C808.59 316.69 809.6 319.62 811.44 322C814.07 325.42 818.41 328.5 822.69 329.36C826.08 330.04 829.24 330.04 832.69 329.7Z" />
		<path class="shp40" d="M837.07 379.3C837.07 379.3 848.78 376.84 852.88 374.58C855.62 373.06 857.87 370.43 858.54 368.75C858.54 368.75 857.77 372.36 855.32 375.62C852.33 379.61 837.07 382.55 837.07 382.55L837.07 379.3Z" />
		<path class="shp11" d="M839.89 347.74C839.89 349.14 840.94 350.27 842.23 350.27C843.53 350.27 844.58 349.12 844.58 347.72C844.58 346.32 843.53 345.19 842.23 345.19C840.94 345.2 839.89 346.34 839.89 347.74ZM843.66 337.62L848.68 340.5C849.42 339 848.89 337.14 847.51 336.34C846.12 335.55 844.4 336.12 843.66 337.62Z" />
		<path class="shp40" d="M838.14 364.62L832.78 366.71C833.31 368.31 834.94 369.14 836.42 368.56C837.9 367.98 838.66 366.22 838.14 364.62Z" />
		<path class="shp11" d="M818.36 339.77L822.94 336.1C822.01 334.73 820.23 334.45 818.96 335.46C817.7 336.48 817.43 338.4 818.36 339.77ZM820.37 347.04C820.37 348.44 821.42 349.58 822.72 349.57C824.02 349.57 825.07 348.43 825.07 347.03C825.07 345.62 824.02 344.49 822.72 344.5C821.42 344.5 820.37 345.64 820.37 347.04Z" />
		<path class="shp40" d="M832.93 345.08L832.66 359.9L824.25 357.97L832.93 345.08Z" />
		<path class="shp2" d="M633.07 469.13L646.12 461.6L651.29 455.33L638.24 462.87L633.07 469.13Z" />
		<path class="shp41" d="M633.07 469.13L634.91 466.91L638.24 462.87L638.25 462.86L641.04 464.53L633.07 469.13Z" />
		<path class="shp2" d="M668.59 489.64L681.64 482.1L692.54 472.45L679.49 479.98L668.59 489.64Z" />
		<path class="shp41" d="M668.59 489.64L668.59 489.63L668.59 489.63L668.59 489.64ZM668.61 489.62L677.11 482.09L679.49 479.98L679.5 479.98L682.24 481.56L681.64 482.1L668.61 489.62Z" />
		<path fill-rule="evenodd" class="shp2" d="M811.09 531.89C811.09 552.45 804.66 567 794.75 572.74C792.75 573.87 785.41 578.11 782.43 579.82L782.17 579.97C782 580.08 781.81 580.19 781.62 580.3C781.25 580.51 780.89 580.7 780.5 580.87C780.12 581.09 779.71 581.28 779.3 581.43C778.92 581.58 778.53 581.73 778.15 581.88C777.65 582.08 777.14 582.22 776.62 582.33C776.26 582.42 775.9 582.5 775.54 582.59C773.03 583.08 770.35 583.1 767.59 582.61C766.75 582.48 765.92 582.29 765.08 582.05C764.16 581.8 763.22 581.5 762.27 581.11C760.63 580.49 758.96 579.67 757.24 578.69C743.88 570.96 732.01 554.19 724.56 534.59C724.37 534.08 724.2 533.61 724.05 533.14C722.37 528.59 720.94 523.95 719.81 519.19L697.38 506.26L692.88 487.71L679.5 479.98L668.6 489.64L659.9 484.62L652 471.09L638.25 462.86L633.06 469.14L617.47 460.12L601.71 426.75L601.71 421.91L603.85 420.67L603.85 418.91L602.82 418.31L601.71 417.67L601.71 409.36L614.75 401.85L722.08 463.81C722.42 463.1 722.78 462.41 723.15 461.77C723.87 460.44 724.69 459.22 725.55 458.09C725.95 457.53 726.4 457 726.85 456.48C727.21 456.05 727.6 455.62 727.99 455.24L728.39 454.85C729.29 453.97 730.24 453.2 731.22 452.52C731.73 452.16 732.27 451.81 732.81 451.51C733.02 451.36 733.26 451.24 733.49 451.11C736.4 449.44 743.79 445.17 745.78 444.02C752.6 440.03 761.1 440.22 770.29 445.54C789.44 456.59 805.5 486.17 809.89 516.06C810.68 521.36 811.09 526.67 811.09 531.89ZM784.94 529.87C784.5 524.66 782.41 519.31 779.55 515.67C780 520.89 782.08 526.23 784.94 529.87Z" />
		<path fill-rule="evenodd" class="shp2" d="M798.04 539.43C798.04 559.5 791.94 573.83 782.43 579.82L782.17 579.97C782 580.08 781.81 580.19 781.62 580.3C781.25 580.51 780.89 580.7 780.5 580.87C780.12 581.09 779.71 581.28 779.3 581.43C778.92 581.58 778.53 581.73 778.15 581.88C777.65 582.08 777.14 582.22 776.62 582.33C776.26 582.42 775.9 582.5 775.54 582.59C773.03 583.08 770.35 583.1 767.59 582.61C766.75 582.48 765.92 582.29 765.08 582.05C764.16 581.8 763.22 581.5 762.27 581.11C760.63 580.49 758.96 579.67 757.24 578.69C743.88 570.96 732.01 554.19 724.56 534.59C724.37 534.08 724.2 533.61 724.05 533.14C722.37 528.59 720.94 523.95 719.81 519.19L697.38 506.26L692.88 487.71L679.5 479.98L668.6 489.64L659.9 484.62L652 471.09L638.25 462.86L633.06 469.14L617.47 460.12L601.71 426.75L601.71 421.91L603.85 420.67L603.85 418.91L602.82 418.31L601.71 417.67L601.71 409.36L717.94 476.49C718.88 471.69 720.3 467.45 722.08 463.81C722.42 463.1 722.78 462.41 723.15 461.77C723.87 460.44 724.69 459.22 725.55 458.09C725.95 457.53 726.4 457 726.85 456.48C727.21 456.05 727.6 455.62 727.99 455.24L728.39 454.85C729.29 453.97 730.24 453.2 731.22 452.52C731.73 452.16 732.27 451.81 732.81 451.51C733.02 451.36 733.26 451.24 733.49 451.11C740.17 447.57 748.38 447.96 757.24 453.07C776.39 464.13 792.45 493.71 796.84 523.58C797.61 528.89 798.04 534.21 798.04 539.43ZM785.04 531.92C785.04 523.99 780.87 515.16 775.72 512.19C770.57 509.21 766.4 513.23 766.4 521.16C766.4 529.08 770.57 537.92 775.72 540.89C780.87 543.86 785.04 539.85 785.04 531.92Z" />
		<path class="shp41" d="M778.99 541.87C777.98 541.87 776.87 541.55 775.73 540.89C774.3 540.07 772.96 538.81 771.75 537.24C768.59 533.12 766.4 526.9 766.4 521.16C766.4 516.54 767.81 513.25 770.01 511.9C770.74 511.44 771.56 511.21 772.45 511.21C773.47 511.21 774.57 511.52 775.73 512.19C775.86 512.27 776 512.35 776.14 512.44C776.84 512.89 777.51 513.45 778.16 514.09C778.64 514.57 779.1 515.1 779.54 515.68C779.99 520.89 782.09 526.24 784.94 529.88C784.97 530.18 785 530.48 785.01 530.77C785.03 531.16 785.04 531.54 785.04 531.92C785.04 538.07 782.52 541.87 778.99 541.87Z" />
		<path fill-rule="evenodd" class="shp41" d="M771.75 537.24C768.58 533.12 766.39 526.91 766.39 521.16C766.39 516.55 767.81 513.25 770.01 511.9C767.81 513.25 766.4 516.54 766.4 521.16C766.4 526.9 768.59 533.12 771.75 537.24ZM785.04 531.92C785.04 531.54 785.03 531.16 785.01 530.77C785.04 531.16 785.04 531.54 785.04 531.91C785.04 531.92 785.04 531.92 785.04 531.92ZM778.16 514.09C777.51 513.45 776.84 512.89 776.14 512.44C776.84 512.89 777.52 513.45 778.16 514.09Z" />
		<path fill-rule="evenodd" class="shp42" d="M769.91 445.32C765.03 442.57 760.35 441.26 756.02 441.26C760.35 441.26 765.03 442.57 769.91 445.32ZM770.12 445.44C770.11 445.44 770.1 445.43 770.09 445.42C770.1 445.43 770.11 445.44 770.12 445.44ZM745.83 443.99C745.84 443.98 745.86 443.97 745.87 443.97C745.86 443.97 745.84 443.98 745.83 443.99ZM756 441.26C756 441.26 756 441.26 756 441.26C756 441.26 756 441.26 756 441.26Z" />
		<path class="shp21" d="M798.02 537.13C797.91 532.65 797.5 528.12 796.84 523.58C792.45 493.71 776.39 464.13 757.24 453.07C752.2 450.17 747.37 448.79 742.92 448.79C739.54 448.79 736.37 449.58 733.49 451.11C736.4 449.44 743.79 445.17 745.78 444.02C745.8 444.01 745.81 444 745.83 443.99C745.84 443.98 745.86 443.97 745.87 443.97C748.93 442.19 752.34 441.26 756 441.26C756 441.26 756 441.26 756 441.26C756.01 441.26 756.01 441.26 756.02 441.26C760.35 441.26 765.03 442.57 769.91 445.32C769.97 445.36 770.03 445.39 770.09 445.42C770.1 445.43 770.11 445.44 770.12 445.44C770.18 445.47 770.23 445.51 770.29 445.54C789.44 456.59 805.5 486.17 809.89 516.06C810.68 521.36 811.09 526.67 811.09 531.89C811.09 531.14 811.06 530.37 811.04 529.61C806.57 532.19 802.04 534.8 798.02 537.13Z" />
		<path class="shp2" d="M798.04 539.43C798.04 559.5 791.94 573.83 782.43 579.82C785.41 578.11 792.75 573.87 794.75 572.74C804.66 567 811.09 552.45 811.09 531.89C811.09 531.14 811.06 530.37 811.04 529.61C806.56 532.19 802.03 534.81 798 537.14C798.02 537.9 798.04 538.67 798.04 539.43Z" />
		<path class="shp37" d="M782.43 579.82C791.94 573.83 798.04 559.5 798.04 539.43C798.04 538.67 798.02 537.9 798 537.14C802.03 534.81 806.56 532.19 811.04 529.61C811.06 530.37 811.09 531.14 811.09 531.89C811.09 545.1 808.44 555.82 803.91 563.32C801.39 567.5 798.29 570.68 794.75 572.74C792.75 573.87 785.41 578.11 782.43 579.82Z" />
		<path class="shp24" d="M718.41 486.81L603.85 420.65L603.85 420.67L601.71 421.91L603.85 420.67L603.85 418.91L718.41 485.05L718.41 486.81Z" />
		<path class="shp43" d="M718.41 489.29L601.71 421.91L603.85 420.67L603.85 420.65L718.41 486.81L718.41 489.29Z" />
		<path fill-rule="evenodd" class="shp24" d="M769.2 572.79C769.19 572.79 769.18 572.79 769.17 572.79C765.24 572.79 761.04 571.57 756.72 569.07C747.06 563.49 738.49 552.58 732.28 539.43C726.07 526.28 722.23 510.88 722.23 496.26C722.23 484.9 724.54 475.66 728.58 469.16C732.59 462.69 738.46 458.95 745.28 458.95C745.29 458.95 745.3 458.95 745.31 458.95C749.24 458.95 753.44 460.17 757.76 462.66C767.42 468.25 775.99 479.16 782.2 492.31C788.41 505.46 792.25 520.86 792.25 535.48C792.25 546.84 789.94 556.08 785.9 562.57C781.89 569.05 776.02 572.79 769.2 572.79ZM724.31 496.26C724.31 510.52 728.08 525.66 734.16 538.54C740.24 551.42 748.66 562.02 757.76 567.27C761.83 569.62 765.67 570.7 769.17 570.7C775.21 570.69 780.35 567.51 784.14 561.47C787.9 555.44 790.17 546.56 790.17 535.48C790.17 521.22 786.41 506.08 780.32 493.2C774.24 480.31 765.83 469.71 756.72 464.47C752.65 462.12 748.81 461.04 745.31 461.04C739.27 461.05 734.13 464.23 730.35 470.27C726.58 476.3 724.31 485.18 724.31 496.26Z" />
		<path class="shp21" d="M717.94 476.49L601.71 409.36L614.75 401.85L722.08 463.81C720.3 467.45 718.88 471.69 717.94 476.49Z" />
		<path class="shp39" d="M873.05 470.33C879.15 458.81 886.1 432.93 889.56 419.87C894.47 401.32 886.52 389.65 877.49 389.18C871.83 390.05 853.24 457.7 853.24 457.7C851.17 459.35 822.88 473.69 813.79 477.3C812.18 477.94 810.38 477.91 808.75 477.32C804.39 475.72 801.41 476.02 797.14 475.59C793.79 475.26 792.1 474.07 791.68 474.79C791.14 475.71 790.88 478 793.32 479.72C794.55 480.58 796.56 481.35 799.15 482.26C799.15 482.26 794.31 483.94 787.87 483.79C779.13 483.6 775.98 487.4 782.76 496.26C787.01 501.81 793.84 503.56 809.22 498.24C813.65 496.71 819.66 493.73 825.24 491.7C836.8 487.5 839.76 487.05 848.63 484.06C861.43 479.75 870.35 475.45 873.05 470.33Z" />
		<path class="shp31" d="M874.06 387.43C879.38 388.16 884.54 389.36 887.63 393.65C890.72 397.95 893.3 404.01 890.21 420.65C887.11 437.29 880.75 454.97 880.75 454.97C880.75 454.97 868.39 460.26 855.23 446.85L864.26 411.89C864.26 411.89 865.81 389.18 874.06 387.43Z" />
	</g>
</svg>