<svg xmlns="http://www.w3.org/2000/svg" viewBox="0 0 783 286" width="783" height="286">
	<defs>
		<clipPath clipPathUnits="userSpaceOnUse" id="cp1">
			<path d="M-150 -294L850 -294L850 706L-150 706Z" />
		</clipPath>
		<linearGradient id="grd1" gradientUnits="userSpaceOnUse"  x1="112.34" y1="284.578" x2="192.634" y2="258.387">
			<stop offset="0" stop-color="#6a007c"  />
			<stop offset="1" stop-color="#a9004a"  />
		</linearGradient>
		<linearGradient id="grd2" gradientUnits="userSpaceOnUse"  x1="113.645" y1="284.404" x2="191.33" y2="259.064">
			<stop offset="0" stop-color="#6a007c"  />
			<stop offset="1" stop-color="#a9004a"  />
		</linearGradient>
		<linearGradient id="grd3" gradientUnits="userSpaceOnUse"  x1="97.828" y1="250.77" x2="192.688" y2="219.829">
			<stop offset="0" stop-color="#6a007c"  />
			<stop offset="1" stop-color="#a9004a"  />
		</linearGradient>
		<linearGradient id="grd4" gradientUnits="userSpaceOnUse"  x1="98.66" y1="250.753" x2="191.856" y2="220.354">
			<stop offset="0" stop-color="#6a007c"  />
			<stop offset="1" stop-color="#a9004a"  />
		</linearGradient>
		<linearGradient id="grd5" gradientUnits="userSpaceOnUse"  x1="172.359" y1="191.046" x2="185.865" y2="102.497">
			<stop offset="0" stop-color="#9600aa"  />
			<stop offset="1" stop-color="#9600aa"  />
		</linearGradient>
		<linearGradient id="grd6" gradientUnits="userSpaceOnUse"  x1="200.73" y1="107.65" x2="114.929" y2="10.011">
			<stop offset="0" stop-color="#0792cf"  />
			<stop offset="1" stop-color="#0792cf"  />
		</linearGradient>
		<linearGradient id="grd7" gradientUnits="userSpaceOnUse"  x1="131.535" y1="18.498" x2="54.059" y2="57.557">
			<stop offset="0" stop-color="#9cd538"  />
			<stop offset="0.309" stop-color="#9cd538"  />
			<stop offset="1" stop-color="#9cd538"  />
		</linearGradient>
		<linearGradient id="grd8" gradientUnits="userSpaceOnUse"  x1="89.189" y1="162.639" x2="3.517" y2="65.146">
			<stop offset="0" stop-color="#fbd538"  />
			<stop offset="1" stop-color="#fbd538"  />
		</linearGradient>
		<linearGradient id="grd9" gradientUnits="userSpaceOnUse"  x1="96.863" y1="224.134" x2="12.476" y2="128.105">
			<stop offset="0" stop-color="#fe1f27"  />
			<stop offset="0.717" stop-color="#fe1f27"  />
			<stop offset="1" stop-color="#fe1f27"  />
		</linearGradient>
		<linearGradient id="grd10" gradientUnits="userSpaceOnUse"  x1="13.197" y1="163.086" x2="50.289" y2="150.987">
			<stop offset="0" stop-color="#fbd538"  />
			<stop offset="1" stop-color="#fbd538"  />
		</linearGradient>
		<linearGradient id="grd11" gradientUnits="userSpaceOnUse"  x1="17.69" y1="72.008" x2="63.348" y2="57.115">
			<stop offset="0" stop-color="#33a668"  />
			<stop offset="1" stop-color="#9cd538"  />
		</linearGradient>
		<linearGradient id="grd12" gradientUnits="userSpaceOnUse"  x1="90.787" y1="38.57" x2="161.162" y2="15.615">
			<stop offset="0" stop-color="#0792cf"  />
			<stop offset="1" stop-color="#0792cf"  />
		</linearGradient>
		<linearGradient id="grd13" gradientUnits="userSpaceOnUse"  x1="172.006" y1="84.249" x2="208.463" y2="72.358">
			<stop offset="0" stop-color="#9600aa"  />
			<stop offset="1" stop-color="#2995cf"  />
		</linearGradient>
		<linearGradient id="grd14" gradientUnits="userSpaceOnUse"  x1="149.818" y1="191.378" x2="192.918" y2="177.319">
			<stop offset="0" stop-color="#6a007c"  />
			<stop offset="1" stop-color="#a9004a"  />
		</linearGradient>
		<linearGradient id="grd15" gradientUnits="userSpaceOnUse"  x1="81.016" y1="134.34" x2="144.716" y2="121.179">
			<stop offset="0" stop-color="#fbd538"  />
			<stop offset="1" stop-color="#fbd538"  />
		</linearGradient>
	</defs>
	<style>
		tspan { white-space:pre }
		.txt0 { font-size: 154px;fill: #eabe06;font-weight: 700;font-family: "Jellee-Roman", "Jellee" } 
		.shp1 { fill: #80bee5 } 
		.shp2 { fill: url(#grd1) } 
		.shp3 { mix-blend-mode: multiply;fill: url(#grd2) } 
		.shp4 { fill: url(#grd3) } 
		.shp5 { mix-blend-mode: multiply;fill: url(#grd4) } 
		.shp6 { fill: #a30084 } 
		.shp7 { fill: url(#grd5) } 
		.shp8 { fill: url(#grd6) } 
		.shp9 { fill: url(#grd7) } 
		.shp10 { fill: url(#grd8) } 
		.shp11 { fill: url(#grd9) } 
		.shp12 { mix-blend-mode: multiply;fill: url(#grd10) } 
		.shp13 { opacity: 0.502;mix-blend-mode: multiply;fill: url(#grd11) } 
		.shp14 { opacity: 0.502;mix-blend-mode: multiply;fill: url(#grd12) } 
		.shp15 { opacity: 0.502;mix-blend-mode: multiply;fill: url(#grd13) } 
		.shp16 { mix-blend-mode: multiply;fill: url(#grd14) } 
		.shp17 { mix-blend-mode: multiply;fill: #dbb309 } 
		.shp18 { fill: url(#grd15) } 
	</style>
	<g clip-path="url(#cp1)">
		<text style="transform: matrix(1,0,0,1,226.227,264)" >
			<tspan x="0" y="0" class="txt0">LearnX</tspan>
		</text>
		<path class="shp1" d="M108.72 271.89C108.75 272.02 109.28 271.47 110.03 270.62C109.1 271.17 108.61 271.5 108.61 271.5L108.72 271.89ZM116.32 265.14C115.86 263.85 112.08 268.32 110.03 270.62C110.69 270.23 111.56 269.74 112.65 269.17C114.61 267.52 116.55 265.78 116.32 265.14Z" />
		<path class="shp2" d="M147.63 259.51C130.88 260.8 118.6 266.06 112.65 269.17C110.72 270.79 108.77 272.33 108.84 272.67C109.77 277.01 111.68 276.39 112.74 275.77C113.11 275.56 113.38 275.34 113.46 275.34C114.18 275.35 113.01 278.87 113.79 278.88C129.92 279.11 160.28 279.21 178.49 279.21C180.97 279.21 183.32 278.13 184.93 276.25C185.06 276.11 185.18 275.96 185.31 275.81C188.26 272.35 191.1 268.77 193.96 265.21C195.23 263.62 194.26 261.26 192.24 261.03C183.21 259.99 171.49 259.07 160.18 259.07C155.88 259.07 151.64 259.2 147.63 259.51Z" />
		<path class="shp3" d="M185.31 275.81C188.27 272.35 191.1 268.77 193.96 265.21C195.23 263.63 194.26 261.26 192.24 261.03C179.78 259.59 162.18 258.4 147.63 259.51C130.88 260.79 118.6 266.06 112.65 269.17C110.72 270.79 108.77 272.33 108.84 272.67C110.1 278.55 113.17 275.33 113.46 275.34C114.18 275.35 113.01 278.87 113.79 278.88C129.92 279.11 160.28 279.21 178.49 279.21C180.97 279.21 183.32 278.13 184.93 276.25C185.06 276.11 185.18 275.96 185.31 275.81Z" />
		<path class="shp4" d="M133.26 225.53C109.62 230.89 96.41 243.09 96.41 243.09L96.57 243.46C96.77 243.93 97.14 243.33 98.02 244.99C98.66 246.19 99.66 248.5 100.1 249.04C100.39 249.41 101.06 249.92 101.35 249.88C124.18 246.91 182 238.23 182 238.23L190.89 230.4C190.89 230.4 197.01 222.74 193.73 220.89C193.26 220.59 190.01 220.39 185.04 220.39C172.94 220.39 150.61 221.59 133.26 225.53Z" />
		<path class="shp5" d="M190.89 230.4C190.89 230.4 197.01 222.74 193.73 220.89C192.12 219.87 157.73 219.98 133.26 225.53C109.62 230.89 96.41 243.09 96.41 243.09L96.57 243.46C96.77 243.93 97.14 243.33 98.02 244.99C98.66 246.19 99.66 248.5 100.09 249.04C100.39 249.41 101.06 249.92 101.35 249.88C124.18 246.91 182 238.23 182 238.23L190.89 230.4Z" />
		<path class="shp6" d="M190.81 143.92C191.41 153.76 183.35 186.63 170.7 204.95C168.98 206.32 167.23 207.66 165.47 208.94C165.46 208.96 165.46 208.96 165.45 208.96L165.44 208.96C164.42 209.72 163.38 210.47 162.33 211.2C162.32 211.2 162.31 211.2 162.31 211.21C160.67 212.35 159.03 213.46 157.37 214.55C156.9 214.86 156.43 215.17 155.95 215.48L155.94 215.48C155.9 215.5 155.87 215.53 155.83 215.55L155.82 215.55C155.57 215.71 155.33 215.87 155.07 216.03C149.73 219.43 144.35 222.49 139.12 225.24L139.11 225.24C136.61 226.55 134.16 227.78 131.76 228.95C131.75 228.95 131.75 228.95 131.75 228.95C130.94 229.34 130.13 229.73 129.34 230.1L129.31 230.11C129.3 230.13 129.29 230.13 129.28 230.13C128.8 230.36 128.32 230.58 127.85 230.8L127.85 230.81C127.8 230.82 127.76 230.84 127.71 230.87L127.69 230.87C127.22 231.09 126.76 231.3 126.3 231.51C126.26 231.53 126.23 231.55 126.19 231.57C125.7 231.79 125.22 232.01 124.73 232.23C124.72 232.24 124.72 232.24 124.71 232.24C123.96 232.57 123.22 232.9 122.5 233.22C122.48 233.22 122.47 233.24 122.45 233.24C120.26 234.2 118.17 235.09 116.18 235.9L116.13 235.92C112.1 237.58 108.51 238.94 105.54 240.02C105.53 240.02 105.52 240.03 105.52 240.04C95.47 244.12 100.27 249.67 101.37 249.89C99.16 249.99 96.53 243.55 95.9 241.93C95.9 241.92 95.9 241.92 95.9 241.91C95.8 241.69 95.68 241.42 95.55 241.11C95.55 241.09 95.54 241.08 95.53 241.06L95.5 240.98C95.47 240.91 95.44 240.84 95.4 240.76C95.39 240.72 95.37 240.68 95.36 240.64C95.35 240.61 95.33 240.59 95.32 240.56C95.32 240.56 95.32 240.55 95.31 240.54C95.18 240.22 95.03 239.86 94.86 239.46C94.84 239.42 94.83 239.38 94.81 239.34C94.79 239.3 94.78 239.27 94.77 239.24C94.69 239.04 94.61 238.84 94.51 238.64L94.51 238.61C94.49 238.56 94.46 238.51 94.45 238.45C94.42 238.41 94.4 238.35 94.38 238.3C94.28 238.06 94.18 237.82 94.07 237.56C94.07 237.54 94.06 237.54 94.05 237.52C94.04 237.48 94.02 237.43 94 237.39C93.9 237.14 93.79 236.88 93.68 236.61C93.66 236.57 93.65 236.53 93.63 236.49L93.61 236.43C93.53 236.26 93.46 236.07 93.39 235.89C93.35 235.82 93.33 235.76 93.3 235.69C93.27 235.62 93.26 235.57 93.23 235.5C93.22 235.48 93.21 235.46 93.19 235.44C92.91 234.74 92.61 234 92.27 233.18L92.27 233.17C92.22 233.05 92.18 232.94 92.13 232.82C92.11 232.78 92.09 232.74 92.07 232.69C91.92 232.32 91.77 231.93 91.6 231.53C91.59 231.51 91.58 231.49 91.57 231.46C91.56 231.45 91.56 231.45 91.56 231.44C91.37 230.96 91.16 230.44 90.94 229.91C90.93 229.88 90.91 229.84 90.89 229.81C90.88 229.76 90.85 229.7 90.83 229.65C90.48 228.78 90.11 227.85 89.7 226.87C89.68 226.82 89.66 226.76 89.63 226.7C89.6 226.62 89.57 226.54 89.54 226.47C89.32 225.93 89.1 225.39 88.88 224.82C88.81 224.69 88.76 224.56 88.71 224.43C88.66 224.28 88.62 224.15 88.6 224.01C88.6 223.97 88.6 223.93 88.6 223.89C88.59 223.78 88.59 223.68 88.59 223.57C88.6 223.54 88.6 223.5 88.61 223.46C88.63 223.36 88.67 223.25 88.7 223.15C88.71 223.12 88.72 223.1 88.72 223.07C88.81 222.88 88.92 222.71 89.05 222.55C89.09 222.52 89.11 222.49 89.15 222.46C89.19 222.42 89.23 222.38 89.28 222.34C89.33 222.31 89.38 222.27 89.44 222.24C89.48 222.21 89.52 222.18 89.55 222.17C89.65 222.11 89.76 222.07 89.87 222.03L89.89 222.03C91.13 221.67 92.37 221.29 93.62 220.91C93.97 220.8 94.32 220.69 94.68 220.57C95.64 220.27 96.61 219.95 97.58 219.64C97.89 219.53 98.2 219.42 98.52 219.32C99.76 218.91 101 218.48 102.23 218.03C102.46 217.95 102.69 217.86 102.91 217.78C103.94 217.41 104.98 217.03 106.01 216.63C106.37 216.49 106.73 216.36 107.09 216.21C108.13 215.81 109.16 215.4 110.19 214.99C110.41 214.9 110.63 214.81 110.86 214.72C112.09 214.22 113.32 213.7 114.55 213.17C114.85 213.03 115.16 212.89 115.47 212.75C116.43 212.34 117.37 211.91 118.33 211.48C118.68 211.32 119.03 211.16 119.38 211C120.59 210.43 121.81 209.86 123.03 209.25C124.67 208.45 126.3 207.63 127.92 206.77C129.21 206.1 130.5 205.4 131.79 204.69C132.17 204.48 132.55 204.26 132.93 204.04C134.03 203.42 135.13 202.79 136.21 202.15C139.47 200.22 142.67 198.19 145.8 196.06C146.25 195.75 146.69 195.43 147.14 195.11C147.59 194.8 148.05 194.49 148.5 194.17C149.51 193.45 150.51 192.71 151.5 191.97C151.81 191.73 152.11 191.49 152.42 191.26C153.12 190.73 153.81 190.2 154.49 189.65C154.83 189.39 155.17 189.12 155.51 188.85C156.19 188.3 156.86 187.75 157.53 187.2C157.83 186.95 158.13 186.7 158.42 186.45C159.37 185.65 160.3 184.85 161.21 184.04C161.35 183.92 161.48 183.8 161.61 183.68C162.29 183.07 162.96 182.46 163.63 181.83C164.68 180.85 165.71 179.85 166.72 178.84C166.97 178.59 167.22 178.34 167.47 178.09C169.49 176.05 171.43 173.94 173.28 171.79C173.52 171.52 173.74 171.25 173.97 170.98C174.24 170.66 174.51 170.35 174.77 170.03C175.42 169.25 176.05 168.48 176.67 167.68C176.7 167.66 176.72 167.62 176.73 167.6C176.79 167.53 176.84 167.45 176.9 167.39C176.9 167.38 176.9 167.38 176.91 167.37C177.5 166.61 178.07 165.83 178.64 165.04C178.91 164.68 179.17 164.31 179.43 163.94C180 163.12 180.57 162.29 181.11 161.46C181.28 161.19 181.44 160.93 181.61 160.66C182.07 159.91 182.54 159.16 182.99 158.4C183.14 158.13 183.29 157.88 183.45 157.61C183.59 157.38 184.91 154.88 185.38 153.98C185.47 153.82 185.53 153.71 185.55 153.66C185.66 154.59 190.74 142.81 190.81 143.92ZM195.31 222.94C194.48 220.15 191.8 220.61 191.8 220.61C198.16 221.5 188.74 226.17 188.74 226.17L188.66 226.26C175.27 232.88 143.31 247.93 110.05 257.91C106.64 258.93 104.46 261.63 105.3 263.76C107.6 269.59 109.08 273.55 110.01 276.1C110.22 276.67 110.54 277.17 110.94 277.58C112.3 279.26 113.98 278.99 119.69 278.95C117.16 279 118.58 277.66 119.79 277.05C136.79 270.89 175.27 256.6 194.76 246.49C197.96 244.83 199.75 242.13 199.22 239.82L195.33 222.94L195.31 222.94Z" />
		<path class="shp7" d="M162.54 48.52C162.67 48.61 162.78 48.7 162.9 48.79C168.55 53.29 173.65 58.53 178.04 64.42C180.42 67.63 182.59 71.01 184.52 74.59C186.95 79.06 189.01 83.82 190.65 88.84C192.81 95.47 194.12 102.32 194.58 109.18L194.58 109.19C194.58 109.19 194.58 109.2 194.58 109.21C194.59 109.41 194.6 109.61 194.61 109.81C194.65 110.56 194.69 111.32 194.71 112.07C194.72 112.42 194.75 112.77 194.76 113.12C194.76 113.27 194.76 113.41 194.75 113.56C194.76 114.32 194.76 115.07 194.75 115.84C194.75 116.23 194.76 116.63 194.75 117.03C194.73 117.66 194.69 118.3 194.66 118.94C194.65 119.17 194.64 119.4 194.63 119.63C194.6 120.06 194.6 120.49 194.57 120.92C194.51 121.76 194.42 122.61 194.34 123.45C194.29 123.9 194.26 124.35 194.21 124.79C194.11 125.67 193.98 126.55 193.85 127.43C193.79 127.84 193.74 128.24 193.68 128.64C193.59 129.17 193.48 129.69 193.39 130.22C193.33 130.55 193.27 130.88 193.21 131.21C193.13 131.63 193.06 132.05 192.97 132.47C192.79 133.36 192.57 134.23 192.37 135.11C192.27 135.49 192.19 135.88 192.09 136.26C191.91 136.99 191.7 137.71 191.49 138.43C191.43 138.64 191.38 138.85 191.32 139.05C191.23 139.37 191.14 139.69 191.05 140.01C190.96 140.29 190.86 140.57 190.77 140.85C190.53 141.6 190.3 142.35 190.04 143.09C189.97 143.29 189.91 143.5 189.84 143.7C189.44 144.82 189.01 145.93 188.57 147.03C188.53 147.13 188.5 147.24 188.45 147.35C187.98 148.5 187.49 149.64 186.96 150.78C186.95 150.82 186.93 150.86 186.91 150.89C186.48 151.84 186.02 152.77 185.56 153.69L185.38 154.04C185.38 154.04 185.37 154.08 185.36 154.15C185.18 156.18 183.69 185.25 171.32 204.03C171.12 204.33 170.91 204.65 170.7 204.94C171.04 204.67 171.38 204.39 171.72 204.12C172.69 203.33 173.65 202.53 174.6 201.7C174.92 201.44 175.22 201.17 175.53 200.9C176.17 200.34 176.83 199.78 177.45 199.21C177.45 199.2 177.45 199.2 177.45 199.19C183.53 194.3 189 188.81 193.81 182.8C198.24 177.31 202.1 171.4 205.36 165.18C205.9 164.16 206.41 163.13 206.91 162.09C207.04 161.83 207.16 161.56 207.29 161.3C210.16 155.25 212.47 148.93 214.17 142.43C216.81 132.4 218 121.93 217.63 111.33C217.63 111.23 217.62 111.13 217.62 111.03C217.41 105.54 216.77 100.02 215.69 94.5C215.16 93.58 214.58 92.65 213.99 91.74C201.9 73.2 178.44 57.43 164.93 49.39C162.92 48.19 161.13 47.17 159.64 46.33C160.62 47.03 161.6 47.77 162.54 48.52Z" />
		<path class="shp8" d="M88.92 32.86C88.92 32.86 89.69 32.68 91.06 32.34C100.77 30.12 110.54 29.68 119.99 30.82L120 30.81C120.01 30.82 120.03 30.83 120.04 30.82L120.05 30.82C120.41 30.86 120.76 30.91 121.12 30.96C121.13 30.96 121.13 30.96 121.14 30.96L121.15 30.96C126.86 31.72 132.44 33.06 137.82 34.95C139.66 35.59 141.48 36.3 143.26 37.06C143.43 37.14 143.6 37.22 143.77 37.29C144.45 37.6 145.14 37.9 145.81 38.21C146.65 38.6 147.46 39 148.28 39.42C148.38 39.46 148.49 39.52 148.59 39.57C152.44 41.53 156.13 43.79 159.64 46.33C171.71 53.09 202.63 71.97 215.69 94.5C214.84 90.24 213.74 85.99 212.36 81.76C211.95 80.5 211.52 79.27 211.06 78.03C210.92 77.66 210.77 77.28 210.63 76.9C210.17 75.69 209.7 74.49 209.2 73.3C209.06 72.96 208.91 72.61 208.77 72.27C208.69 72.08 208.6 71.9 208.52 71.71C208.43 71.53 208.35 71.33 208.27 71.14C208.15 70.87 208.03 70.61 207.91 70.35C207.86 70.23 207.81 70.13 207.76 70.02C207.7 69.87 207.63 69.73 207.56 69.59C207.47 69.38 207.37 69.17 207.27 68.97C207.26 68.94 207.24 68.91 207.24 68.89C207.23 68.86 207.21 68.84 207.2 68.82C207.04 68.48 206.87 68.13 206.71 67.8C206.54 67.44 206.36 67.08 206.18 66.72C206.17 66.7 206.17 66.68 206.15 66.67C206.15 66.66 206.15 66.65 206.15 66.65C206.08 66.51 206 66.37 205.93 66.23C205.83 66.02 205.72 65.81 205.61 65.61C205.56 65.49 205.49 65.37 205.42 65.25C205.3 65.01 205.18 64.77 205.05 64.53C204.86 64.18 204.67 63.82 204.47 63.46C204.09 62.76 203.71 62.06 203.31 61.38C203.07 60.97 202.83 60.56 202.58 60.15C202.39 59.82 202.2 59.48 202 59.15C201.88 58.95 201.75 58.74 201.63 58.54L201.63 58.53C201.33 58.07 201.03 57.62 200.74 57.16C200.29 56.45 199.84 55.73 199.38 55.04C199.33 54.97 199.28 54.91 199.24 54.84C199.1 54.63 198.95 54.41 198.81 54.21C198.69 54.03 198.58 53.87 198.46 53.7C198.38 53.59 198.31 53.47 198.22 53.35C198.14 53.23 198.05 53.11 197.96 52.99C197.88 52.86 197.79 52.74 197.7 52.61C197.23 51.96 196.76 51.31 196.28 50.66C196.18 50.53 196.08 50.4 195.99 50.28C195.94 50.22 195.9 50.16 195.85 50.1C195.72 49.92 195.59 49.75 195.46 49.57C195.13 49.14 194.8 48.73 194.46 48.3C194.25 48.04 194.05 47.77 193.83 47.5L193.39 46.96C193.33 46.88 193.26 46.8 193.2 46.72C193.12 46.63 193.05 46.54 192.98 46.45C192.62 46.03 192.26 45.61 191.91 45.19C191.79 45.05 191.67 44.9 191.55 44.76C191.54 44.77 191.54 44.77 191.54 44.76C185.29 37.49 178.13 31.15 170.29 25.86C168.16 24.42 165.99 23.06 163.76 21.78C163.52 21.64 163.29 21.51 163.04 21.37C160.13 19.72 157.13 18.19 154.07 16.82C123.87 22.27 103.11 27.91 88.92 32.86Z" />
		<path class="shp9" d="M77 12.54C75.46 13.04 73.95 13.56 72.46 14.11C65.69 16.61 59.32 19.72 53.38 23.36C49.79 25.57 46.36 27.97 43.1 30.55L43.09 30.56C41.58 31.76 40.09 33 38.64 34.28C30.42 48.95 22.4 72.4 25.48 105.76C25.64 104.31 25.85 102.86 26.09 101.43C27.31 94.01 29.52 86.81 32.63 80.02C41.6 60.32 58.01 44.06 79.55 35.84C80.86 35.33 82.19 34.86 83.55 34.42C85.34 33.84 87.13 33.31 88.92 32.86C103.11 27.91 123.87 22.27 154.07 16.82C140.38 10.66 125.39 7.35 110.02 7.35C99.09 7.35 87.97 9.02 77 12.54Z" />
		<path class="shp10" d="M36.26 36.44C34.02 38.53 31.88 40.72 29.84 42.98C28.93 43.98 28.05 45 27.19 46.05C27 46.27 26.8 46.51 26.61 46.74C26.24 47.19 25.87 47.64 25.52 48.11C24.15 49.83 22.83 51.6 21.58 53.39C21.37 53.67 21.18 53.96 20.98 54.25C19.7 56.12 18.47 58.04 17.31 59.99C17.31 59.99 17.31 59.99 17.3 60.01C16.09 62.05 14.97 64.14 13.88 66.26C13.56 66.9 13.22 67.54 12.91 68.18C12.64 68.72 12.4 69.28 12.15 69.81C11.74 70.7 11.33 71.58 10.94 72.47C10.75 72.91 10.58 73.36 10.39 73.8C10.25 74.14 10.11 74.49 9.96 74.84C9.69 75.5 9.42 76.17 9.17 76.85C9.14 76.92 9.1 77 9.07 77.08C8.89 77.55 8.74 78.03 8.57 78.51C8.27 79.31 7.98 80.11 7.7 80.93C7.44 81.69 7.21 82.46 6.97 83.22C6.77 83.85 6.57 84.47 6.39 85.1C6.08 86.15 5.8 87.22 5.53 88.28C5.43 88.64 5.33 89.01 5.24 89.36C4.88 90.81 4.54 92.26 4.25 93.74C4.02 94.88 3.8 96.03 3.61 97.19C3.54 97.59 3.48 97.98 3.42 98.39C3.3 99.15 3.17 99.91 3.07 100.68C3.01 101.13 2.96 101.6 2.9 102.05C2.81 102.77 2.73 103.49 2.65 104.21C2.61 104.67 2.57 105.13 2.52 105.6C2.46 106.33 2.4 107.05 2.34 107.78C2.32 108.23 2.3 108.67 2.27 109.11C2.23 109.88 2.19 110.64 2.16 111.41C2.14 111.82 2.13 112.22 2.13 112.62C2.11 113.45 2.1 114.27 2.1 115.1C2.1 115.45 2.1 115.79 2.1 116.14C2.11 117.05 2.13 117.96 2.16 118.86C2.18 119.13 2.18 119.4 2.19 119.66C2.24 120.69 2.29 121.71 2.37 122.74C2.38 122.84 2.38 122.93 2.38 123.03C2.39 123.1 2.39 123.16 2.4 123.23C2.47 124.07 2.54 124.91 2.62 125.75C2.66 126.05 2.68 126.36 2.72 126.67C2.8 127.41 2.89 128.15 2.99 128.89C3.04 129.29 3.09 129.7 3.15 130.1C3.24 130.77 3.33 131.44 3.44 132.1C3.52 132.58 3.6 133.06 3.69 133.54C3.79 134.15 3.9 134.76 4.02 135.36C4.02 135.41 4.04 135.46 4.05 135.51C18.52 156.29 43.13 174.87 61.94 186.59C60.37 185.38 58.88 184.14 57.46 182.89C53.95 179.82 50.84 176.65 48.1 173.5C43.78 168.92 39.94 163.84 36.68 158.27C36.56 158.07 36.44 157.87 36.32 157.67C36.07 157.23 35.82 156.79 35.57 156.36C35.4 156.03 35.23 155.71 35.05 155.38C34.87 155.05 34.7 154.72 34.53 154.4C34.24 153.8 33.95 153.21 33.67 152.61C33.57 152.39 33.47 152.16 33.36 151.93C33.19 151.54 33.01 151.14 32.84 150.73C32.73 150.5 32.64 150.25 32.53 150.01C32.36 149.6 32.19 149.18 32.03 148.77C31.94 148.55 31.85 148.32 31.76 148.08C31.58 147.63 31.4 147.16 31.23 146.7C31.17 146.52 31.1 146.35 31.04 146.18C30.74 145.35 30.45 144.51 30.17 143.65L30.16 143.6C29.9 142.83 29.66 142.05 29.42 141.26C29.34 140.98 29.25 140.7 29.17 140.42C29 139.84 28.83 139.24 28.66 138.64C28.59 138.38 28.52 138.12 28.45 137.86C28.25 137.09 28.05 136.32 27.85 135.54C27.76 135.18 27.68 134.82 27.59 134.46C27.47 133.95 27.35 133.44 27.23 132.93C27.14 132.56 27.06 132.2 26.99 131.84C26.81 131.05 26.64 130.26 26.48 129.47C26.41 129.15 26.36 128.83 26.3 128.51C26.17 127.92 26.06 127.32 25.94 126.73C25.89 126.41 25.83 126.08 25.77 125.76C25.61 124.88 25.46 124.01 25.31 123.13C25.24 122.29 25.17 121.46 25.12 120.63C25.1 120.39 25.08 120.13 25.07 119.89C25.07 119.8 25.07 119.72 25.06 119.64C24.81 114.98 24.96 110.33 25.48 105.76C22.4 72.4 30.42 48.95 38.64 34.28C37.84 34.99 37.04 35.7 36.26 36.44Z" />
		<path class="shp11" d="M4.35 137C4.46 137.55 4.57 138.11 4.7 138.65C4.84 139.27 4.99 139.88 5.14 140.49C5.25 140.98 5.37 141.48 5.49 141.96C5.68 142.68 5.88 143.39 6.07 144.1C6.18 144.49 6.29 144.89 6.4 145.28C6.73 146.39 7.07 147.5 7.43 148.6C10.02 156.55 13.45 164 17.6 170.87C27.63 187.55 41.84 200.85 58.36 209.84C64.2 213.01 70.33 215.65 76.68 217.72C78.05 218.16 79.45 218.59 80.85 218.97C81.05 219.03 81.25 219.09 81.45 219.14C81.52 219.16 81.6 219.18 81.67 219.2C81.82 219.24 81.98 219.28 82.12 219.33C83.14 219.06 84.25 218.76 85.46 218.42C87.77 217.78 90.43 216.98 93.35 216.03C97.08 214.81 101.26 213.33 105.71 211.56C109.03 210.25 112.65 208.7 116.46 206.91C111.69 206.52 107.16 205.88 102.86 205.01C100.22 204.48 97.68 203.87 95.21 203.18C92.99 202.56 90.83 201.88 88.74 201.14C78.61 197.57 70.1 192.73 62.95 187.36C62.61 187.1 62.28 186.84 61.94 186.59C43.13 174.87 18.52 156.29 4.05 135.51C4.15 136.01 4.25 136.51 4.35 137Z" />
		<path class="shp12" d="M61.94 186.59C43.13 174.87 18.52 156.29 4.05 135.51C4.04 135.46 4.02 135.41 4.02 135.36C3.9 134.76 3.79 134.15 3.69 133.54C3.61 133.06 3.52 132.58 3.45 132.1C3.33 131.44 3.24 130.77 3.15 130.1C3.09 129.7 3.04 129.29 2.99 128.89C2.89 128.15 2.29 126.06 2.72 126.67C25.08 158.62 31.15 163.59 57.46 182.89C58.88 184.14 60.37 185.38 61.94 186.59Z" />
		<path class="shp13" d="M53.38 23.36C47.83 27.59 26.49 47.57 25.48 105.76C22.4 72.4 30.42 48.95 38.64 34.28C40.09 33 41.58 31.76 43.09 30.56L43.1 30.55C46.36 27.97 49.79 25.57 53.38 23.36Z" />
		<path class="shp14" d="M163.04 21.37C143.2 20.25 101.01 29.97 91.06 32.34C89.69 32.68 88.92 32.86 88.92 32.86C103.11 27.91 123.87 22.27 154.07 16.82C157.13 18.2 160.13 19.72 163.04 21.37Z" />
		<path class="shp15" d="M215.69 94.5C216.77 100.02 217.41 105.54 217.62 111.03C217.62 111.13 217.63 111.23 217.63 111.33C206.13 80.67 175.21 57.15 162.54 48.52C161.6 47.76 160.62 47.03 159.64 46.33C161.13 47.17 162.92 48.19 164.93 49.39C178.44 57.43 201.9 73.2 213.99 91.74C214.58 92.65 215.16 93.58 215.69 94.5Z" />
		<path class="shp16" d="M185.36 154.15C185.18 156.18 183.69 185.25 171.32 204.03C171.12 204.33 170.91 204.65 170.7 204.94C168.98 206.32 167.23 207.65 165.47 208.94C165.46 208.96 165.46 208.96 165.45 208.96L165.44 208.96C164.42 209.71 163.37 210.46 162.33 211.2C162.32 211.2 162.31 211.2 162.31 211.21C160.67 212.35 159.03 213.46 157.37 214.54C178.43 191.76 184.96 156.42 185.36 154.15Z" />
		<path class="shp17" d="M96.84 88.73L85.1 151.33C84.75 153.16 86.59 154.63 88.3 153.88L113.53 142.8C114.88 142.21 116.42 143.01 116.72 144.44L123.15 175.58C123.66 178.02 127.15 178.04 127.67 175.6L142.6 106.22C143.04 104.2 140.79 102.67 139.06 103.81L115.22 119.66C113.93 120.52 111.51 122.18 111.06 120.7L101.31 88.5C100.61 86.19 97.29 86.36 96.84 88.73Z" />
		<path class="shp18" d="M96.17 83.85L83.76 148.75C83.41 150.57 85.25 152.04 86.96 151.29L112.19 140.21C113.54 139.62 115.08 140.42 115.38 141.86L121.81 172.99C122.32 175.44 125.81 175.45 126.33 173.01L141.26 103.64C141.7 101.61 139.45 100.08 137.72 101.23L113.88 117.08C112.59 117.94 110.84 117.31 110.4 115.83L100.64 83.62C100.31 82.51 99.38 81.98 98.44 81.98C97.42 81.98 96.4 82.62 96.17 83.85Z" />
	</g>
</svg>