<svg xmlns="http://www.w3.org/2000/svg" viewBox="0 0 956 808" width="956" height="808">
	<defs>
		<clipPath clipPathUnits="userSpaceOnUse" id="cp1">
			<path d="M0 0L956 0L956 808L0 808Z" />
		</clipPath>
	</defs>
	<style>
		tspan { white-space:pre }
		.shp0 { fill: #ecefee } 
		.shp1 { fill: #d9dfdd } 
		.shp2 { fill: #18bbab } 
		.shp3 { fill: #0eb8a4 } 
		.shp4 { fill: #ffffff } 
		.shp5 { fill: #bfc8c7 } 
		.shp6 { fill: #06b59c } 
		.shp7 { fill: #e7ebe9 } 
		.shp8 { fill: #fafafa } 
		.shp9 { fill: #dae0de } 
		.shp10 { fill: #132a31 } 
		.shp11 { fill: #bfd2d2 } 
		.shp12 { fill: #b1c7c7 } 
		.shp13 { fill: #ff8991 } 
		.shp14 { fill: #ff9da7 } 
		.shp15 { fill: #d0d8d6 } 
		.shp16 { fill: #ff9396 } 
		.shp17 { fill: #10242b } 
		.shp18 { fill: #cad3d1 } 
		.shp19 { fill: #dfe4e3 } 
		.shp20 { fill: #21424b } 
		.shp21 { fill: #f3f4f3 } 
		.shp22 { fill: #3cc5bd } 
		.shp23 { fill: #2c5862 } 
	</style>
	<g clip-path="url(#cp1)">
		<path class="shp0" d="M139.97 727.43C326.58 834.85 629.15 834.86 815.77 727.43C1002.39 620 1002.39 445.83 815.77 338.4C629.15 230.97 326.58 230.97 139.96 338.4C-46.65 445.82 -46.65 620 139.97 727.43Z" />
		<path class="shp1" d="M109.96 611.18L399.55 778.36C404.74 781.36 413.15 781.36 418.33 778.36L857.66 524.71C862.85 521.72 862.85 516.86 857.66 513.87L568.1 346.69C562.91 343.7 554.5 343.7 549.31 346.69L109.96 600.34C104.77 603.33 104.77 608.19 109.96 611.18ZM821.02 360.68C786.84 347 732.35 346.99 699.31 360.68C666.27 374.36 666.27 396.54 699.31 410.23C732.35 423.91 786.84 423.91 821.02 410.23C855.19 396.54 855.19 374.36 821.02 360.68ZM183.44 506.18C156.08 519.22 111.71 519.22 84.35 506.18C56.98 493.14 56.98 471.99 84.35 458.95C111.71 445.9 156.08 445.9 183.44 458.95C210.81 471.99 210.81 493.14 183.44 506.18Z" />
		<path class="shp2" d="M91.12 422.04C90.05 408.81 79.85 386.24 64.74 370.16C49.63 354.09 25.46 346.34 10.55 352.82C-3.34 358.86 -0.29 377.47 18.04 388.49C36.37 399.51 63.67 413.01 73.01 433.86L91.12 458.91L91.12 422.04Z" />
		<path class="shp3" d="M91.12 458.91L73.01 433.86C63.67 413.01 36.37 399.51 18.04 388.49C7.39 382.09 1.9 373.12 1.89 365.55C1.89 360.09 4.73 355.35 10.55 352.82C14.12 351.27 18.23 350.53 22.61 350.53C36.52 350.53 53.25 357.94 64.74 370.16C79.85 386.24 90.05 408.81 91.12 422.04L91.12 458.91Z" />
		<path class="shp4" d="M93.02 439.37L93.31 439.32C93.79 439.16 94.05 438.65 93.89 438.17C79.03 393.28 36.84 363.2 19.34 360.32C18.85 360.24 18.37 360.58 18.29 361.08C18.2 361.58 18.54 362.05 19.04 362.13C36.18 364.95 77.51 394.54 92.15 438.74C92.28 439.13 92.64 439.37 93.02 439.37Z" />
		<path class="shp2" d="M89.14 476.66C86.41 469.4 76.34 457.86 60.84 448.9C43.68 438.99 22.7 435.49 17.25 427.14C10.71 417.11 18.75 406.49 35.62 407.22C52.48 407.95 83.67 428.37 91.12 462.29L89.14 476.66Z" />
		<path class="shp4" d="M89.91 462.89L90.33 462.79C90.78 462.56 90.96 462.01 90.73 461.56C76.22 432.66 45.58 419.15 29.77 415.73C29.27 415.61 28.79 415.94 28.68 416.43C28.57 416.92 28.89 417.41 29.38 417.52C44.88 420.88 74.89 434.1 89.09 462.38C89.26 462.7 89.58 462.89 89.91 462.89Z" />
		<path class="shp2" d="M326.98 465.89L326.98 460.18L543.43 340.93C546.27 339.29 550.87 339.29 553.7 340.93L853.85 510.28C853.85 510.28 853.85 514.88 853.86 515.95C853.86 517.03 853.15 518.1 851.73 518.92L635.28 643.89L326.98 465.89Z" />
		<path fill-rule="evenodd" class="shp5" d="M852.59 518.32C852.61 518.3 852.63 518.29 852.65 518.27C852.63 518.29 852.61 518.3 852.59 518.32ZM852.7 518.23C852.71 518.21 852.73 518.2 852.75 518.18C852.73 518.2 852.71 518.21 852.7 518.23ZM852.89 518.05C852.89 518.05 852.89 518.05 852.89 518.05C852.89 518.05 852.89 518.05 852.89 518.05ZM852.92 518.02C852.92 518.02 852.92 518.02 852.92 518.01C852.92 518.02 852.92 518.02 852.92 518.02ZM853.01 517.92C853.02 517.9 853.04 517.89 853.06 517.87C853.04 517.89 853.02 517.9 853.01 517.92ZM853.07 517.86C853.59 517.26 853.86 516.61 853.86 515.95C853.86 515.26 853.85 513.12 853.85 511.67C853.85 513.12 853.86 515.26 853.86 515.95C853.86 516.61 853.59 517.26 853.07 517.86Z" />
		<path class="shp3" d="M635.28 643.89L635.28 638.18L851.73 513.21C853.1 512.42 853.8 511.4 853.85 510.36C853.85 510.55 853.85 511.05 853.85 511.67C853.85 513.12 853.86 515.26 853.86 515.95C853.86 516.61 853.59 517.26 853.07 517.86C853.06 517.86 853.06 517.87 853.06 517.87C853.04 517.89 853.02 517.9 853.01 517.92C852.98 517.95 852.95 517.98 852.92 518.01C852.92 518.02 852.92 518.02 852.92 518.02C852.91 518.03 852.9 518.04 852.89 518.05C852.89 518.05 852.89 518.05 852.89 518.05C852.84 518.09 852.8 518.14 852.75 518.18C852.73 518.2 852.71 518.21 852.7 518.23C852.68 518.24 852.67 518.25 852.65 518.27C852.63 518.29 852.61 518.3 852.59 518.32C852.42 518.47 852.23 518.61 852.02 518.74C851.93 518.8 851.83 518.86 851.73 518.92L635.28 643.89Z" />
		<path class="shp2" d="M326.98 460.18L543.43 335.21C546.27 333.58 550.87 333.58 553.7 335.21L851.73 507.28C854.56 508.92 854.56 511.57 851.73 513.21L635.28 638.18L326.98 460.18Z" />
		<path class="shp6" d="M635.28 643.89L630.44 641.09L630.44 640.98L620.95 635.5L620.95 629.91L635.28 638.18L635.28 643.89Z" />
		<path class="shp2" d="M331.93 468.63L113.11 583.84L108.61 590.91L108.61 596.61C108.61 599.45 110.25 602.03 113.11 603.68L401.49 770.19C403.58 771.39 406.24 772.05 409 772.05C411.76 772.05 414.43 771.39 416.51 770.19L630.44 646.68L630.44 640.98L331.93 468.63Z" />
		<path class="shp3" d="M409 772.05C406.24 772.05 403.58 771.39 401.49 770.19L113.11 603.68C110.25 602.03 108.61 599.45 108.61 596.61L108.61 590.91C108.61 593.76 110.25 596.34 113.11 597.99L401.49 764.49C403.58 765.69 406.24 766.35 409 766.35C411.76 766.35 414.43 765.69 416.51 764.49L630.44 640.98L630.44 641.09L630.44 646.68L416.51 770.19C414.43 771.39 411.76 772.05 409 772.05Z" />
		<path class="shp2" d="M409 766.35C406.24 766.35 403.58 765.69 401.49 764.49L113.11 597.99C110.25 596.34 108.61 593.76 108.61 590.91C108.61 588.07 110.25 585.49 113.11 583.84L322.3 463.06L630.44 640.98L416.51 764.49C414.43 765.69 411.76 766.35 409 766.35Z" />
		<path class="shp7" d="M322.29 446.35L115.48 565.75L113.35 568.72L113.35 590.91C113.35 591.99 114.06 593.06 115.48 593.88L403.87 760.38C406.7 762.02 411.3 762.02 414.14 760.38L620.95 640.98L620.95 618.78L322.29 446.35Z" />
		<path class="shp0" d="M620.96 618.79L618.38 620.29L584.72 639.71L578.46 643.34L414.15 738.19C411.3 739.83 406.7 739.83 403.88 738.19L115.47 571.67C112.65 570.04 112.65 567.38 115.47 565.75L118.22 564.16L322.29 446.35L618.4 617.3L619.02 617.68L620.96 618.79Z" />
		<path class="shp1" d="M409 739.42L409 761.61C407.15 761.61 405.27 761.21 403.88 760.38L115.47 593.87C114.07 593.06 113.36 592 113.36 590.9L113.36 568.71C113.36 569.78 114.07 570.84 115.47 571.67L403.88 738.19C405.27 739.02 407.15 739.42 409 739.42Z" />
		<path class="shp8" d="M620.96 615.83L583.73 637.32L577.89 640.68L414.15 735.22C411.3 736.86 406.7 736.86 403.88 735.22L145.62 586.12C143.29 584.84 141.13 583.58 139.12 582.37C128.61 575.97 122.28 570.25 118.22 564.16C118.06 563.9 117.89 563.66 117.72 563.4C117.39 562.9 117.18 562.38 117.08 561.86C116.61 559.58 118.13 557.4 120.69 556.64C125.69 555.14 133.26 552.49 140.16 548.53L140.42 548.38L322.29 443.39L620.96 615.83Z" />
		<path class="shp9" d="M587.2 619.94C585.46 619.94 583.73 619.55 582.42 618.79C579.78 617.25 579.78 614.76 582.42 613.22C583.73 612.45 585.47 612.07 587.2 612.07C588.94 612.07 590.67 612.45 592 613.22C594.66 614.76 594.66 617.25 592 618.79C590.67 619.55 588.94 619.94 587.2 619.94Z" />
		<path class="shp10" d="M613.23 595.24C609.58 593.13 605 593.46 600.33 596.14C593.1 600.34 586.83 609.69 584.11 619.48C585.2 619.84 586.43 619.98 587.64 619.91C590.15 611.18 595.7 602.95 602.11 599.22C604.2 598.04 606.19 597.42 607.99 597.42C609.25 597.42 610.41 597.73 611.45 598.32C614.54 600.1 616.31 604.44 616.31 610.21C616.31 611.16 616.27 612.1 616.15 613.05L619.52 615C619.75 613.39 619.87 611.77 619.87 610.21C619.87 603.14 617.45 597.68 613.23 595.24ZM619.19 616.85C619.16 617.11 619.09 617.39 619.02 617.68L618.4 617.3L619.19 616.85Z" />
		<path class="shp9" d="M558.3 603.25C556.57 603.25 554.84 602.86 553.52 602.09C550.88 600.56 550.88 598.07 553.52 596.53C554.84 595.76 556.57 595.38 558.3 595.38C560.04 595.38 561.78 595.76 563.11 596.53C565.77 598.07 565.77 600.56 563.11 602.09C561.78 602.86 560.04 603.25 558.3 603.25Z" />
		<path class="shp10" d="M584.33 578.55C580.68 576.44 576.1 576.77 571.43 579.45C564.2 583.65 557.94 592.99 555.21 602.79C556.3 603.15 557.53 603.29 558.74 603.22C561.26 594.49 566.81 586.26 573.21 582.54C575.3 581.35 577.29 580.73 579.09 580.73C580.35 580.73 581.51 581.04 582.55 581.63C585.64 583.41 587.42 587.75 587.42 593.52C587.42 594.46 587.37 595.41 587.25 596.36L590.62 598.31C590.86 596.69 590.97 595.08 590.97 593.52C590.97 586.45 588.56 580.99 584.33 578.55Z" />
		<path class="shp9" d="M529.4 586.56C527.66 586.56 525.93 586.17 524.61 585.4C521.98 583.87 521.98 581.38 524.61 579.84C525.93 579.07 527.66 578.69 529.4 578.69C531.13 578.69 532.87 579.07 534.2 579.84C536.86 581.38 536.86 583.87 534.2 585.4C532.87 586.17 531.13 586.56 529.4 586.56Z" />
		<path class="shp10" d="M555.43 561.86C551.77 559.75 547.2 560.08 542.52 562.76C535.29 566.96 529.03 576.3 526.3 586.1C527.39 586.46 528.63 586.6 529.84 586.53C532.35 577.8 537.9 569.57 544.3 565.85C546.39 564.66 548.38 564.04 550.19 564.04C551.44 564.04 552.6 564.35 553.65 564.94C556.73 566.72 558.51 571.06 558.51 576.83C558.51 577.78 558.46 578.72 558.34 579.67L561.71 581.62C561.95 580 562.07 578.39 562.07 576.83C562.07 569.76 559.65 564.3 555.43 561.86Z" />
		<path class="shp9" d="M500.49 569.88C498.76 569.88 497.03 569.49 495.71 568.72C493.07 567.19 493.07 564.7 495.71 563.16C497.03 562.39 498.76 562.01 500.5 562.01C502.23 562.01 503.97 562.39 505.3 563.16C507.96 564.7 507.96 567.19 505.3 568.72C503.97 569.49 502.23 569.88 500.49 569.88Z" />
		<path class="shp10" d="M526.52 545.18C522.87 543.07 518.3 543.4 513.62 546.08C506.39 550.28 500.13 559.62 497.4 569.42C498.49 569.77 499.72 569.92 500.93 569.85C503.45 561.12 509 552.89 515.4 549.16C517.49 547.98 519.48 547.36 521.28 547.36C522.54 547.36 523.7 547.67 524.75 548.26C527.83 550.04 529.61 554.38 529.61 560.14C529.61 561.09 529.56 562.04 529.44 562.99L532.81 564.94C533.05 563.32 533.17 561.71 533.17 560.14C533.17 553.08 530.75 547.62 526.52 545.18Z" />
		<path class="shp9" d="M471.59 553.19C469.86 553.19 468.12 552.8 466.81 552.04C464.17 550.5 464.17 548.01 466.81 546.47C468.12 545.7 469.86 545.32 471.59 545.32C473.33 545.32 475.07 545.7 476.4 546.47C479.06 548.01 479.06 550.5 476.4 552.04C475.06 552.8 473.33 553.19 471.59 553.19Z" />
		<path class="shp10" d="M497.62 528.49C493.97 526.38 489.39 526.71 484.72 529.39C477.49 533.59 471.23 542.94 468.5 552.73C469.59 553.09 470.82 553.23 472.03 553.16C474.55 544.43 480.1 536.2 486.5 532.48C488.59 531.29 490.58 530.67 492.38 530.67C493.64 530.67 494.8 530.98 495.84 531.58C498.93 533.35 500.71 537.69 500.71 543.46C500.71 544.41 500.66 545.35 500.54 546.3L503.91 548.25C504.15 546.64 504.26 545.02 504.26 543.46C504.26 536.39 501.85 530.93 497.62 528.49Z" />
		<path class="shp9" d="M442.68 536.5C440.95 536.5 439.21 536.11 437.9 535.35C435.26 533.81 435.26 531.32 437.9 529.78C439.22 529.02 440.95 528.63 442.68 528.63C444.42 528.63 446.16 529.02 447.49 529.78C450.15 531.32 450.15 533.81 447.49 535.35C446.16 536.11 444.42 536.5 442.68 536.5Z" />
		<path class="shp10" d="M468.71 511.8C465.06 509.69 460.48 510.02 455.81 512.7C448.58 516.9 442.32 526.25 439.59 536.04C440.68 536.4 441.91 536.54 443.12 536.47C445.64 527.74 451.19 519.51 457.59 515.79C459.68 514.6 461.67 513.98 463.47 513.98C464.73 513.98 465.89 514.29 466.94 514.89C470.02 516.66 471.8 521 471.8 526.77C471.8 527.72 471.75 528.66 471.63 529.61L475 531.56C475.24 529.95 475.35 528.33 475.35 526.77C475.35 519.7 472.94 514.25 468.71 511.8Z" />
		<path class="shp9" d="M413.78 519.81C412.05 519.81 410.32 519.43 409 518.66C406.36 517.13 406.36 514.63 409 513.1C410.32 512.33 412.05 511.95 413.79 511.95C415.52 511.95 417.26 512.33 418.59 513.1C421.25 514.63 421.25 517.12 418.59 518.66C417.26 519.43 415.52 519.81 413.78 519.81Z" />
		<path class="shp10" d="M439.81 495.12C436.16 493 431.59 493.34 426.91 496.02C419.68 500.21 413.42 509.56 410.69 519.36C411.78 519.71 413.01 519.85 414.22 519.78C416.74 511.05 422.29 502.83 428.69 499.1C430.78 497.91 432.77 497.3 434.57 497.3C435.83 497.3 436.99 497.61 438.04 498.2C441.12 499.98 442.9 504.32 442.9 510.08C442.9 511.03 442.85 511.98 442.73 512.93L446.1 514.87C446.34 513.26 446.46 511.65 446.46 510.08C446.46 503.01 444.04 497.56 439.81 495.12Z" />
		<path class="shp9" d="M384.88 503.13C383.14 503.13 381.41 502.74 380.09 501.97C377.46 500.44 377.46 497.95 380.09 496.41C381.41 495.64 383.14 495.26 384.88 495.26C386.61 495.26 388.35 495.64 389.68 496.41C392.34 497.95 392.34 500.44 389.68 501.97C388.35 502.74 386.61 503.13 384.88 503.13Z" />
		<path class="shp10" d="M410.91 478.43C407.25 476.32 402.68 476.65 398 479.33C390.77 483.53 384.51 492.87 381.78 502.67C382.87 503.02 384.11 503.17 385.31 503.1C387.83 494.37 393.38 486.14 399.78 482.41C401.87 481.23 403.86 480.61 405.66 480.61C406.92 480.61 408.09 480.92 409.13 481.51C412.21 483.29 413.99 487.63 413.99 493.39C413.99 494.34 413.94 495.29 413.83 496.24L417.19 498.19C417.43 496.57 417.55 494.96 417.55 493.39C417.55 486.33 415.13 480.87 410.91 478.43Z" />
		<path class="shp9" d="M355.98 486.43C354.24 486.43 352.51 486.05 351.19 485.28C348.56 483.75 348.56 481.26 351.19 479.72C352.51 478.95 354.24 478.57 355.98 478.57C357.71 478.57 359.45 478.95 360.78 479.72C363.44 481.26 363.44 483.75 360.78 485.28C359.45 486.05 357.71 486.43 355.98 486.43Z" />
		<path class="shp10" d="M382.01 461.74C378.36 459.63 373.78 459.96 369.11 462.64C361.87 466.84 355.61 476.18 352.88 485.98C353.98 486.33 355.21 486.47 356.42 486.4C358.93 477.68 364.48 469.45 370.89 465.72C372.97 464.54 374.96 463.92 376.77 463.92C378.02 463.92 379.19 464.23 380.23 464.82C383.31 466.6 385.09 470.94 385.09 476.7C385.09 477.65 385.04 478.6 384.93 479.55L388.29 481.5C388.53 479.88 388.65 478.27 388.65 476.7C388.65 469.64 386.23 464.18 382.01 461.74Z" />
		<path class="shp9" d="M327.07 469.75C325.34 469.75 323.6 469.36 322.29 468.6C319.65 467.06 319.65 464.57 322.29 463.04C323.6 462.27 325.34 461.88 327.07 461.88C328.81 461.88 330.54 462.27 331.88 463.04C334.54 464.57 334.54 467.06 331.88 468.6C330.54 469.36 328.8 469.75 327.07 469.75Z" />
		<path class="shp10" d="M353.1 445.05C349.45 442.94 344.87 443.28 340.2 445.95C332.96 450.15 326.7 459.5 323.98 469.29C325.07 469.65 326.3 469.79 327.51 469.72C330.03 460.99 335.58 452.76 341.98 449.04C344.06 447.85 346.06 447.24 347.86 447.24C349.12 447.24 350.28 447.54 351.32 448.14C354.41 449.91 356.19 454.26 356.19 460.02C356.19 460.97 356.14 461.92 356.02 462.86L359.39 464.81C359.62 463.2 359.74 461.58 359.74 460.02C359.74 452.95 357.32 447.5 353.1 445.05Z" />
		<path class="shp7" d="M538.91 609.84L379.8 701.7C379.52 701.87 379.42 702.23 379.59 702.51C379.75 702.8 380.11 702.9 380.4 702.73L539.51 610.87C539.79 610.7 539.89 610.34 539.72 610.06C539.56 609.77 539.2 609.68 538.91 609.84ZM519.64 598.71L360.53 690.58C360.25 690.74 360.15 691.1 360.32 691.39C360.48 691.67 360.84 691.77 361.12 691.6L520.24 599.74C520.52 599.58 520.62 599.21 520.45 598.93C520.29 598.65 519.93 598.55 519.64 598.71ZM500.37 587.59L341.26 679.45C340.98 679.62 340.88 679.98 341.05 680.26C341.21 680.55 341.57 680.64 341.86 680.48L500.97 588.61C501.25 588.45 501.35 588.09 501.18 587.8C501.02 587.52 500.66 587.42 500.37 587.59ZM481.1 576.46L321.99 668.33C321.71 668.49 321.61 668.85 321.77 669.14C321.94 669.42 322.3 669.52 322.59 669.35L481.7 577.49C481.98 577.33 482.08 576.96 481.91 576.68C481.75 576.4 481.39 576.3 481.1 576.46ZM461.83 565.34L302.72 657.2C302.44 657.36 302.34 657.73 302.5 658.01C302.67 658.29 303.03 658.39 303.31 658.23L462.43 566.36C462.71 566.2 462.81 565.84 462.64 565.55C462.48 565.27 462.11 565.17 461.83 565.34ZM442.56 554.21L283.45 646.08C283.17 646.24 283.07 646.6 283.23 646.89C283.4 647.17 283.76 647.26 284.04 647.1L443.15 555.24C443.44 555.07 443.54 554.71 443.37 554.43C443.21 554.14 442.85 554.05 442.56 554.21ZM423.29 543.08L264.18 634.95C263.9 635.11 263.8 635.47 263.96 635.76C264.13 636.04 264.49 636.14 264.77 635.98L423.88 544.11C424.17 543.95 424.26 543.59 424.1 543.3C423.94 543.02 423.57 542.92 423.29 543.08ZM404.02 531.96L244.91 623.82C244.63 623.99 244.53 624.35 244.69 624.63C244.86 624.92 245.22 625.01 245.5 624.85L404.61 532.99C404.9 532.82 404.99 532.46 404.83 532.18C404.67 531.89 404.3 531.79 404.02 531.96ZM384.75 520.83L225.64 612.7C225.36 612.86 225.26 613.22 225.42 613.51C225.59 613.79 225.95 613.89 226.23 613.72L385.34 521.86C385.63 521.7 385.72 521.33 385.56 521.05C385.4 520.76 385.03 520.67 384.75 520.83ZM365.48 509.71L206.37 601.57C206.09 601.73 205.99 602.1 206.15 602.38C206.32 602.66 206.68 602.76 206.96 602.6L366.07 510.73C366.36 510.57 366.45 510.21 366.29 509.92C366.13 509.64 365.76 509.54 365.48 509.71ZM346.21 498.58L187.1 590.44C186.82 590.61 186.72 590.97 186.88 591.25C187.05 591.54 187.41 591.64 187.69 591.47L346.8 499.61C347.09 499.44 347.18 499.08 347.02 498.8C346.86 498.51 346.49 498.42 346.21 498.58ZM326.94 487.45L167.83 579.32C167.54 579.48 167.45 579.85 167.61 580.13C167.77 580.41 168.14 580.51 168.42 580.35L327.53 488.48C327.81 488.32 327.91 487.95 327.75 487.67C327.59 487.39 327.22 487.29 326.94 487.45ZM307.67 476.33L148.56 568.19C148.27 568.36 148.18 568.72 148.34 569C148.5 569.29 148.87 569.38 149.15 569.22L308.26 477.36C308.55 477.19 308.64 476.83 308.48 476.55C308.31 476.26 307.95 476.16 307.67 476.33Z" />
		<path class="shp2" d="M298.01 471.84L577.46 633.11C577.74 633.28 578.11 633.18 578.27 632.9C578.43 632.61 578.34 632.25 578.05 632.09L298.61 470.81C298.32 470.65 297.96 470.74 297.8 471.02C297.64 471.31 297.73 471.67 298.01 471.84ZM567.66 615.49L399.37 712.83C399.09 712.99 398.99 713.36 399.15 713.64C399.31 713.92 399.68 714.02 399.96 713.86L568.26 616.52C568.54 616.35 568.64 615.99 568.47 615.71C568.31 615.42 567.95 615.33 567.66 615.49Z" />
		<path fill-rule="evenodd" class="shp11" d="M419.29 619.53C418.89 619.53 418.4 619.5 417.83 619.45C417.12 619.39 416.57 618.01 417.51 617.99C420.76 617.92 419.69 615.12 420.09 613.06L423.8 610.92C424.69 610.98 425.65 611.16 426.61 611.35C427.75 611.58 428.89 611.8 429.9 611.8C430.66 611.8 431.35 611.67 431.91 611.32C433.79 610.14 431.48 609.48 432.99 607.59C433.39 607.09 434.49 607.2 434.76 606.83C435.14 606.29 435.36 606.16 435.48 606.16C435.49 606.16 435.5 606.17 435.51 606.17C435.44 606.01 435.35 605.67 435.27 604.97C435.24 604.7 435.17 604.53 435.1 604.39L436.81 603.4C436.91 604.7 437.91 606.29 438.25 606.92C438.51 607.38 438.41 607.85 437.93 608.07C436.18 608.88 434.83 609.91 435.99 611.79C436.23 612.17 436.18 612.81 435.67 612.95C434.94 613.15 434.13 613.22 433.26 613.22C432.26 613.22 431.2 613.12 430.14 613.03C429.08 612.94 428.02 612.85 427.04 612.85C424.65 612.85 422.69 613.39 422.12 615.81C421.47 618.58 421.69 619.53 419.29 619.53ZM434.57 603.33C434.15 600.22 437.6 599.78 440.81 599.72L434.57 603.33ZM439.6 601.79L443.19 599.72C443.75 599.72 444.25 599.71 444.67 599.67C444.8 599.66 444.97 599.66 445.16 599.66C445.66 599.66 446.34 599.69 447.04 599.72C447.74 599.75 448.47 599.78 449.08 599.78C449.75 599.78 450.27 599.74 450.46 599.63C450.63 599.53 450.42 598.45 450.73 598.26C451.41 597.84 455.32 596.52 455.41 596.34C455.58 595.95 454.38 594.53 454.9 593.49C455.51 592.3 457.08 591.99 458.77 591.99C460.62 591.99 462.62 592.37 463.67 592.41C464.59 592.44 465.02 592.5 465.18 592.52C464.9 592.46 463.92 592.14 463.83 591.15C463.78 590.5 463.41 590.13 463.66 589.26C464.13 587.7 465.28 587.66 466.61 587.54C466.79 587.52 466.98 587.51 467.16 587.51C468.33 587.51 469.56 587.84 470.79 588.31C470.18 586.85 469.87 585.43 470.07 584.2L474.53 581.63C476.3 582.09 478.22 583.16 479.56 583.68C480.15 583.92 480.38 585.06 479.72 585.06C479.65 585.06 479.58 585.05 479.49 585.03C477.96 584.57 475.32 583.17 473.71 583.17C473.56 583.17 473.43 583.18 473.3 583.21C470.73 583.69 472.67 587.52 474.14 589.88C475.26 590.47 476.33 591.05 477.28 591.48C479.6 592.53 482.31 593.42 483.78 595.65C484.06 596.07 484.26 596.46 484.4 596.81L480.59 599.01C480.38 598.92 480.16 598.82 479.94 598.71C477.53 597.45 473.94 593.95 471.8 590.32C470.61 589.8 469.47 589.44 468.6 589.44C468.47 589.44 468.35 589.45 468.23 589.46C463.57 590.12 467.5 591.91 468.01 593.69C468.17 594.24 467.81 594.7 467.27 594.7C467.21 594.7 467.16 594.69 467.1 594.69C465.61 594.45 463.15 593.91 461.13 593.91C458.75 593.91 457 594.66 458.15 597.51C458.28 597.85 458.11 598.36 457.72 598.45C456.73 598.67 452.28 599.38 452.78 600.48C452.97 600.9 452.61 601.46 452.15 601.46C452.14 601.46 452.13 601.46 452.12 601.46C451.1 601.4 450.08 601.38 449.06 601.38C446.65 601.38 444.24 601.5 441.82 601.64C441.57 601.65 440.59 601.71 439.6 601.79ZM475.8 592.34C476.87 593.9 478.07 595.88 479.87 596.69C480.11 596.79 481.41 597.25 482.1 597.25C482.51 597.25 482.7 597.09 482.34 596.61C481.21 595.09 479.89 594.39 478.22 593.61C477.6 593.33 476.74 592.86 475.8 592.34ZM482.61 599.44C482.49 599.44 482.37 599.43 482.25 599.42L484.61 598.06C484.5 598.97 483.7 599.44 482.61 599.44ZM470.76 582.43C471.21 581.82 471.81 581.52 472.5 581.43L470.76 582.43Z" />
		<path class="shp12" d="M482.25 599.42C481.73 599.38 481.17 599.24 480.59 599.01L484.4 596.81C484.59 597.29 484.65 597.71 484.61 598.06L482.25 599.42ZM420.09 613.06C420.21 612.43 420.46 611.87 421.03 611.48C421.65 611.05 422.42 610.9 423.27 610.9C423.44 610.9 423.62 610.91 423.8 610.92L420.09 613.06ZM435.1 604.39C434.93 604.1 434.71 604.02 434.63 603.66C434.61 603.54 434.59 603.43 434.57 603.33L440.81 599.72C441.13 599.72 441.45 599.72 441.76 599.72C441.98 599.72 442.2 599.72 442.41 599.72C442.63 599.72 442.83 599.72 443.04 599.72C443.09 599.72 443.14 599.72 443.19 599.72L439.6 601.79C438.44 601.89 437.26 602.03 437.13 602.18C436.86 602.51 436.77 602.94 436.81 603.4L435.1 604.39ZM470.07 584.2C470.09 584.09 470.11 583.98 470.13 583.88C470.28 583.27 470.49 582.8 470.76 582.43L472.5 581.43C472.65 581.41 472.81 581.4 472.97 581.4C473.46 581.4 473.99 581.49 474.53 581.63L470.07 584.2Z" />
		<path fill-rule="evenodd" class="shp11" d="M365.97 650.41C363.87 650.41 361.15 649.38 360.11 649.3C359.66 649.26 359.25 648.65 359.23 648.2L360.03 647.74L363.55 648.18C366.57 646.89 366.11 645.94 365.55 644.55L371.51 641.1C372.15 641.18 373.81 642.11 374.15 642.11C374.15 642.11 374.15 642.11 374.16 642.11C376.79 641.94 375.51 641.3 375.58 639.5C375.59 639.12 375.93 638.88 376.27 638.88C376.35 638.88 376.44 638.89 376.52 638.92C377.48 639.28 379.41 640.67 380.71 640.67C381.43 640.67 381.96 640.23 381.99 638.92C382 638.43 380.36 637.42 380.24 636.66C380.21 636.45 380.2 636.26 380.2 636.09L383.53 634.17C384.22 634.27 384.91 634.53 385.58 634.64C386.79 634.83 387.35 634.92 387.58 634.92C388.12 634.92 386.65 634.39 387.65 633.54C388.81 632.57 389.14 632.31 390.56 632.31C390.83 632.31 391.15 632.32 391.52 632.34C392.08 632.36 393.16 632.64 393.82 632.64C393.95 632.64 394.06 632.63 394.15 632.61C396.42 632.01 394.91 632.64 395.01 631.13C395.09 630.11 394.17 629.36 394.54 628.23C394.6 628.02 394.68 627.84 394.76 627.69L396.74 626.54C397.19 626.55 397.68 626.62 398.24 626.73C399.24 626.91 400.49 627.34 401.81 627.94C401.44 624.98 402.3 622.52 405.06 622.52C405.11 622.52 405.16 622.52 405.22 622.52C405.98 622.55 406.71 623.94 405.69 624.08C403.55 624.36 403.62 626.87 404.2 629.17C407.73 631.21 411.11 634.21 411.37 637.11C411.4 637.42 411.17 637.69 410.9 637.78C410.47 637.91 410.05 637.97 409.64 637.97C406.35 637.97 403.48 634.05 402.3 630.16C401.83 630.03 401.15 629.92 400.45 629.92C399.16 629.92 397.78 630.31 397.45 631.71C397.44 631.74 398.22 633.64 398.26 633.98C398.31 634.41 397.92 634.66 397.56 634.73C397.42 634.75 397.26 634.76 397.09 634.76C396.4 634.76 395.45 634.58 394.46 634.4C393.47 634.21 392.46 634.03 391.63 634.03C390.39 634.03 389.6 634.45 390.02 635.89C390.1 636.18 390.04 636.51 389.78 636.69C389.29 637.02 388.65 637.1 387.95 637.1C387.66 637.1 387.35 637.08 387.05 637.07C386.75 637.05 386.45 637.04 386.16 637.04C385.03 637.04 384.07 637.25 383.82 638.48C383.58 639.65 386.12 640.85 384.74 642.58C384.33 643.1 383.79 643.28 383.21 643.28C382.3 643.28 381.31 642.85 380.55 642.61C379.88 642.4 379.26 641.74 378.56 641.74C378.45 641.74 378.33 641.76 378.21 641.8C377.06 642.2 378.41 642.66 377.82 643.05C377.59 643.2 377.31 644.02 376.87 644.28C376.66 644.4 376.44 644.44 376.21 644.44C376.01 644.44 375.8 644.41 375.59 644.38C375.39 644.35 375.18 644.31 374.97 644.31C374.97 644.31 374.96 644.31 374.96 644.31C374.95 644.31 374.95 644.31 374.95 644.31C374.47 644.31 374.08 643.6 373.62 643.57C373.6 643.57 373.58 643.57 373.56 643.57C372.84 643.57 371.58 644.1 371.05 644.28C370.75 644.38 368.43 645.45 367.85 645.45C367.74 645.45 367.69 645.41 367.75 645.31C367.21 646.27 369.41 648.02 368.29 649.53C367.81 650.18 366.96 650.41 365.97 650.41ZM367.75 645.31C367.75 645.3 367.75 645.3 367.75 645.3C367.75 645.3 367.75 645.3 367.75 645.31ZM405.07 631.75C405.26 632.19 405.44 632.55 405.57 632.78C405.84 633.24 407.33 635.13 407.76 635.13C407.9 635.13 407.92 634.92 407.74 634.38C407.54 633.79 406.34 632.68 405.07 631.75Z" />
		<path class="shp12" d="M359.23 648.2C359.22 647.92 359.35 647.7 359.7 647.7C359.71 647.7 359.71 647.7 359.72 647.7L360.03 647.74L359.23 648.2ZM365.55 644.55C365.49 644.4 365.43 644.26 365.37 644.1C365.2 643.63 365.38 643.12 365.92 643.12C365.95 643.12 365.97 643.12 366 643.12C366.09 643.13 366.17 643.13 366.26 643.13C367.28 643.13 368.17 642.62 369 642.11C369.83 641.61 370.6 641.1 371.41 641.1C371.42 641.1 371.44 641.1 371.45 641.1C371.47 641.1 371.49 641.1 371.51 641.1L365.55 644.55ZM380.2 636.09C380.2 634.86 380.98 634.49 382.32 634.19C382.53 634.14 382.74 634.12 382.94 634.12C383.14 634.12 383.33 634.14 383.53 634.17L380.2 636.09ZM394.76 627.69C395.19 626.81 395.82 626.54 396.66 626.54C396.69 626.54 396.72 626.54 396.74 626.54L394.76 627.69Z" />
		<path fill-rule="evenodd" class="shp11" d="M397.53 676.54C397.13 676.54 396.64 676.51 396.07 676.46C395.36 676.4 394.81 675.02 395.75 675C398.96 674.94 397.95 672.19 398.31 670.14L402.12 667.94C402.99 668 403.92 668.18 404.85 668.36C405.99 668.59 407.13 668.81 408.14 668.81C408.9 668.81 409.59 668.69 410.15 668.34C412.03 667.15 409.72 666.49 411.23 664.6C411.63 664.1 412.73 664.22 413 663.84C413.38 663.3 413.6 663.18 413.72 663.18C413.73 663.18 413.74 663.18 413.75 663.18C413.68 663.02 413.59 662.69 413.51 661.99C413.48 661.74 413.43 661.58 413.36 661.45L415.05 660.47C415.17 661.75 416.15 663.31 416.49 663.93C416.75 664.39 416.65 664.86 416.17 665.08C414.42 665.89 413.06 666.93 414.23 668.8C414.46 669.19 414.42 669.82 413.91 669.96C413.18 670.16 412.36 670.23 411.5 670.23C410.5 670.23 409.44 670.14 408.38 670.05C407.32 669.95 406.26 669.86 405.28 669.86C402.89 669.86 400.93 670.41 400.36 672.83C399.71 675.59 399.93 676.54 397.53 676.54ZM412.82 660.39C412.35 657.21 415.89 656.78 419.15 656.74L412.82 660.39ZM417.95 658.8L421.53 656.73C422.04 656.73 422.51 656.72 422.91 656.69C423.04 656.68 423.21 656.67 423.41 656.67C423.9 656.67 424.58 656.7 425.28 656.73C425.98 656.76 426.71 656.79 427.32 656.79C427.99 656.79 428.51 656.75 428.7 656.65C428.87 656.55 428.66 655.46 428.97 655.27C429.65 654.85 433.56 653.54 433.65 653.36C433.82 652.97 432.61 651.54 433.14 650.51C433.75 649.32 435.32 649 437.01 649C438.86 649 440.86 649.38 441.91 649.42C442.83 649.46 443.26 649.51 443.42 649.54C443.14 649.47 442.15 649.15 442.07 648.16C442.02 647.51 441.65 647.14 441.9 646.28C442.37 644.71 443.52 644.68 444.85 644.55C445.03 644.54 445.22 644.53 445.4 644.53C446.57 644.53 447.8 644.85 449.03 645.32C448.43 643.89 448.12 642.49 448.3 641.28L452.83 638.66C454.59 639.13 456.47 640.18 457.8 640.7C458.39 640.93 458.62 642.08 457.96 642.08C457.89 642.08 457.82 642.07 457.73 642.04C456.2 641.59 453.56 640.19 451.95 640.19C451.8 640.19 451.67 640.2 451.54 640.22C448.97 640.71 450.91 644.54 452.38 646.9C453.5 647.48 454.57 648.06 455.52 648.5C457.84 649.55 460.55 650.44 462.02 652.66C462.31 653.1 462.52 653.5 462.65 653.87L458.89 656.04C458.65 655.95 458.42 655.84 458.18 655.72C455.77 654.46 452.18 650.96 450.04 647.33C448.85 646.81 447.71 646.45 446.84 646.45C446.71 646.45 446.59 646.46 446.47 646.48C441.81 647.13 445.74 648.92 446.25 650.7C446.41 651.26 446.05 651.71 445.51 651.71C445.45 651.71 445.4 651.71 445.34 651.7C443.85 651.46 441.39 650.93 439.37 650.93C436.99 650.93 435.24 651.67 436.38 654.53C436.52 654.86 436.35 655.37 435.96 655.46C434.97 655.68 430.52 656.39 431.02 657.49C431.21 657.92 430.85 658.47 430.39 658.47C430.38 658.47 430.37 658.47 430.36 658.47C429.34 658.42 428.32 658.4 427.3 658.4C424.88 658.4 422.47 658.52 420.06 658.65C419.82 658.66 418.9 658.72 417.95 658.8ZM454.04 649.35C455.11 650.92 456.31 652.89 458.11 653.7C458.35 653.81 459.65 654.26 460.34 654.26C460.75 654.26 460.94 654.11 460.58 653.62C459.45 652.1 458.13 651.4 456.46 650.63C455.84 650.34 454.98 649.87 454.04 649.35ZM460.85 656.45C460.76 656.45 460.66 656.45 460.57 656.44L462.84 655.13C462.7 656.01 461.91 656.45 460.85 656.45ZM448.94 639.54C449.41 638.83 450.08 638.5 450.85 638.43L448.94 639.54Z" />
		<path class="shp12" d="M460.57 656.44C460.05 656.41 459.48 656.27 458.89 656.04L462.65 653.87C462.84 654.36 462.89 654.78 462.84 655.13L460.57 656.44ZM398.31 670.14C398.43 669.48 398.69 668.9 399.27 668.49C399.89 668.06 400.66 667.91 401.51 667.91C401.71 667.91 401.91 667.92 402.12 667.94L398.31 670.14ZM413.36 661.45C413.19 661.12 412.95 661.05 412.87 660.67C412.85 660.57 412.83 660.48 412.82 660.39L419.15 656.74C419.44 656.73 419.72 656.73 420 656.73C420.22 656.73 420.44 656.73 420.65 656.73C420.86 656.73 421.07 656.73 421.28 656.73C421.36 656.73 421.44 656.73 421.53 656.73L417.95 658.8C416.76 658.9 415.5 659.04 415.37 659.2C415.09 659.54 415.01 659.99 415.05 660.47L413.36 661.45ZM448.3 641.28C448.32 641.14 448.34 641.02 448.37 640.89C448.51 640.33 448.7 639.89 448.94 639.54L450.85 638.43C450.97 638.42 451.09 638.41 451.21 638.41C451.73 638.41 452.27 638.51 452.83 638.66L448.3 641.28Z" />
		<path fill-rule="evenodd" class="shp11" d="M472.7 633.47C470.59 633.47 467.87 632.44 466.84 632.36C466.31 632.32 465.86 631.53 465.97 631.07L466.5 630.77L470.27 631.24C473.39 629.9 472.8 628.94 472.21 627.47L477.92 624.17C477.99 624.16 478.06 624.16 478.13 624.16C478.14 624.16 478.16 624.16 478.17 624.16C478.75 624.18 480.52 625.17 480.87 625.17C480.87 625.17 480.88 625.17 480.88 625.17C483.51 625.01 482.24 624.37 482.3 622.56C482.32 622.19 482.65 621.94 483 621.94C483.08 621.94 483.16 621.96 483.24 621.99C484.2 622.34 486.14 623.74 487.43 623.74C488.16 623.74 488.68 623.3 488.71 621.98C488.72 621.49 487.08 620.48 486.97 619.72C486.92 619.44 486.91 619.19 486.93 618.97L490 617.2C490.78 617.27 491.55 617.58 492.31 617.7C493.52 617.89 494.08 617.98 494.3 617.98C494.84 617.98 493.37 617.45 494.38 616.61C495.54 615.63 495.87 615.37 497.28 615.37C497.56 615.37 497.87 615.38 498.25 615.4C498.81 615.42 499.88 615.71 500.55 615.71C500.68 615.71 500.79 615.7 500.88 615.67C503.14 615.08 501.63 615.7 501.74 614.19C501.81 613.17 500.9 612.42 501.26 611.29C501.37 610.97 501.49 610.7 501.62 610.49L503.15 609.61C503.23 609.6 503.31 609.6 503.39 609.6C503.85 609.6 504.37 609.68 504.96 609.79C505.96 609.98 507.21 610.41 508.53 611C508.17 608.05 509.03 605.58 511.79 605.58C511.84 605.58 511.89 605.59 511.94 605.59C512.71 605.61 513.44 607.01 512.41 607.14C510.28 607.42 510.35 609.94 510.93 612.23C514.46 614.28 517.84 617.27 518.1 620.18C518.12 620.48 517.9 620.76 517.62 620.84C517.2 620.97 516.78 621.04 516.36 621.04C513.08 621.04 510.2 617.11 509.03 613.22C508.55 613.09 507.87 612.98 507.18 612.98C505.88 612.98 504.51 613.37 504.17 614.78C504.16 614.8 504.94 616.71 504.98 617.04C505.04 617.48 504.65 617.72 504.28 617.79C504.14 617.81 503.99 617.83 503.82 617.83C503.12 617.83 502.17 617.64 501.19 617.46C500.2 617.28 499.18 617.1 498.36 617.1C497.12 617.1 496.32 617.51 496.74 618.95C496.82 619.24 496.76 619.57 496.5 619.75C496.02 620.08 495.37 620.16 494.68 620.16C494.38 620.16 494.08 620.14 493.77 620.13C493.47 620.12 493.17 620.1 492.88 620.1C491.76 620.1 490.79 620.31 490.54 621.54C490.3 622.71 492.85 623.91 491.47 625.64C491.05 626.16 490.51 626.34 489.93 626.34C489.03 626.34 488.03 625.91 487.27 625.67C486.61 625.46 485.98 624.81 485.29 624.81C485.17 624.81 485.06 624.82 484.94 624.86C483.79 625.26 485.13 625.73 484.54 626.11C484.31 626.27 484.03 627.08 483.59 627.34C483.38 627.46 483.16 627.5 482.94 627.5C482.74 627.5 482.53 627.47 482.32 627.44C482.11 627.41 481.9 627.38 481.7 627.38C481.69 627.38 481.69 627.38 481.68 627.38C481.68 627.38 481.68 627.38 481.67 627.38C481.19 627.38 480.81 626.66 480.35 626.64C480.32 626.63 480.3 626.63 480.28 626.63C479.57 626.63 478.3 627.16 477.77 627.34C477.47 627.44 475.15 628.52 474.58 628.52C474.47 628.52 474.42 628.48 474.47 628.38C473.95 629.35 476.13 631.09 475.01 632.59C474.53 633.25 473.68 633.47 472.7 633.47ZM474.47 628.38C474.47 628.37 474.47 628.37 474.48 628.36C474.47 628.37 474.47 628.37 474.47 628.38ZM511.8 614.81C511.98 615.25 512.16 615.62 512.29 615.84C512.56 616.3 514.06 618.19 514.48 618.19C514.62 618.19 514.64 617.98 514.46 617.44C514.26 616.85 513.07 615.75 511.8 614.81Z" />
		<path class="shp12" d="M465.97 631.07C466.02 630.89 466.16 630.76 466.42 630.76C466.43 630.76 466.44 630.76 466.44 630.76L466.5 630.77L465.97 631.07ZM472.21 627.47C472.17 627.37 472.13 627.27 472.1 627.16C471.92 626.7 472.1 626.18 472.65 626.18C472.67 626.18 472.7 626.18 472.72 626.18C472.81 626.19 472.89 626.19 472.98 626.19C474.01 626.19 474.89 625.69 475.72 625.18C476.48 624.71 477.19 624.25 477.92 624.17L472.21 627.47ZM486.93 618.97C487 617.89 487.78 617.54 489.05 617.25C489.25 617.2 489.46 617.18 489.66 617.18C489.77 617.18 489.89 617.19 490 617.2L486.93 618.97ZM501.62 610.49C502 609.89 502.51 609.65 503.15 609.61L501.62 610.49Z" />
		<path fill-rule="evenodd" class="shp11" d="M301.76 554.56C301.35 554.56 300.87 554.54 300.3 554.49C299.59 554.42 299.04 553.04 299.98 553.02C303.71 552.95 301.74 549.26 302.85 547.24L305.03 545.97C305.26 545.95 305.5 545.94 305.74 545.94C306.77 545.94 307.93 546.16 309.07 546.39C310.22 546.61 311.36 546.83 312.37 546.83C313.13 546.83 313.82 546.71 314.37 546.36C316.26 545.18 313.95 544.51 315.46 542.62C315.86 542.13 316.95 542.24 317.22 541.86C317.61 541.33 317.83 541.2 317.95 541.2C317.96 541.2 317.97 541.2 317.98 541.2C317.91 541.05 317.82 540.71 317.74 540.01C317.65 539.32 317.37 539.23 317.2 538.95L319.34 537.72C318.95 539.06 320.3 541.2 320.72 541.96C320.97 542.41 320.88 542.88 320.4 543.1C318.65 543.92 317.29 544.95 318.45 546.83C318.69 547.21 318.65 547.84 318.14 547.99C317.41 548.19 316.59 548.25 315.73 548.25C314.73 548.25 313.66 548.16 312.6 548.07C311.55 547.97 310.49 547.88 309.5 547.88C307.12 547.88 305.16 548.43 304.59 550.85C303.94 553.62 304.16 554.56 301.76 554.56ZM317.01 537.69C317.13 535.55 319.47 534.96 322.01 534.81L317.01 537.69ZM320.61 536.98L324.47 534.75C324.61 534.75 324.75 534.75 324.88 534.75C325.09 534.75 325.3 534.75 325.5 534.75C326.12 534.75 326.68 534.75 327.14 534.71C327.27 534.7 327.44 534.69 327.63 534.69C328.13 534.69 328.8 534.72 329.51 534.75C330.21 534.78 330.94 534.81 331.55 534.81C332.22 534.81 332.74 534.78 332.93 534.67C333.1 534.57 332.89 533.49 333.2 533.3C333.88 532.88 337.79 531.56 337.87 531.38C338.05 530.99 336.84 529.56 337.37 528.53C337.98 527.34 339.55 527.02 341.24 527.02C343.09 527.02 345.09 527.4 346.13 527.44C347.06 527.48 347.49 527.53 347.65 527.56C347.36 527.49 346.38 527.18 346.3 526.19C346.25 525.54 345.88 525.16 346.13 524.3C346.6 522.74 347.74 522.7 349.08 522.58C349.26 522.56 349.45 522.55 349.63 522.55C350.8 522.55 352.03 522.87 353.26 523.35C352.59 521.76 352.29 520.22 352.6 518.91C352.64 518.74 352.69 518.58 352.74 518.43L356.11 516.49C358.1 516.76 360.46 518.1 362.02 518.72C362.62 518.95 362.85 520.1 362.19 520.1C362.12 520.1 362.04 520.09 361.96 520.06C360.43 519.61 357.79 518.21 356.17 518.21C356.03 518.21 355.9 518.22 355.77 518.24C353.19 518.73 355.14 522.56 356.61 524.92C357.73 525.5 358.8 526.09 359.75 526.52C362.07 527.57 364.78 528.46 366.25 530.69C366.39 530.9 366.51 531.11 366.62 531.3L362.4 533.74C359.99 532.47 356.41 528.98 354.27 525.35C353.07 524.84 351.94 524.48 351.07 524.48C350.94 524.48 350.81 524.48 350.7 524.5C346.04 525.15 349.97 526.94 350.48 528.72C350.64 529.28 350.28 529.73 349.73 529.73C349.68 529.73 349.63 529.73 349.57 529.72C348.08 529.49 345.61 528.95 343.6 528.95C341.22 528.95 339.46 529.69 340.61 532.55C340.75 532.88 340.58 533.4 340.19 533.48C339.2 533.71 334.75 534.41 335.25 535.52C335.44 535.94 335.08 536.49 334.62 536.49C334.61 536.49 334.6 536.49 334.59 536.49C333.56 536.44 332.54 536.42 331.53 536.42C329.11 536.42 326.7 536.54 324.29 536.67C323.9 536.69 321.88 536.81 320.61 536.98ZM358.26 527.38C359.34 528.94 360.54 530.91 362.34 531.72C362.58 531.83 363.88 532.29 364.57 532.29C364.98 532.29 365.17 532.13 364.81 531.64C363.68 530.12 362.36 529.42 360.68 528.65C360.06 528.36 359.21 527.89 358.26 527.38ZM365.07 534.47C364.68 534.47 364.25 534.41 363.81 534.29L367.04 532.43C367.3 533.79 366.4 534.47 365.07 534.47Z" />
		<path class="shp12" d="M363.81 534.29C363.35 534.17 362.88 533.99 362.41 533.74C362.41 533.74 362.4 533.74 362.4 533.74L366.62 531.3C366.84 531.72 366.97 532.09 367.04 532.43L363.81 534.29ZM302.85 547.24C303 546.96 303.21 546.72 303.5 546.52C303.94 546.21 304.46 546.04 305.03 545.97L302.85 547.24ZM317.2 538.95C317.15 538.88 317.12 538.8 317.1 538.69C317.02 538.32 316.99 537.99 317.01 537.69L322.01 534.81C322.75 534.76 323.5 534.75 324.23 534.75C324.31 534.75 324.39 534.75 324.47 534.75L320.61 536.98C320.07 537.05 319.67 537.13 319.59 537.22C319.47 537.37 319.39 537.54 319.34 537.72L317.2 538.95ZM352.74 518.43C353.25 516.95 354.25 516.44 355.44 516.44C355.66 516.44 355.88 516.45 356.11 516.49L352.74 518.43Z" />
		<path fill-rule="evenodd" class="shp11" d="M248.44 585.44C246.33 585.44 243.61 584.41 242.58 584.33C241.85 584.28 241.24 582.73 242.17 582.73C242.17 582.73 242.18 582.73 242.19 582.73L246.02 583.21C249.34 581.79 248.45 580.79 247.84 579.14C247.83 579.1 247.81 579.06 247.8 579.02L249.41 578.09C250.15 577.93 250.83 577.54 251.46 577.15C252.29 576.64 253.07 576.13 253.87 576.13C253.89 576.13 253.9 576.13 253.92 576.13C254.49 576.15 256.27 577.14 256.61 577.14C256.62 577.14 256.62 577.14 256.62 577.14C259.25 576.98 257.98 576.34 258.05 574.53C258.06 574.16 258.39 573.92 258.74 573.92C258.82 573.92 258.91 573.93 258.99 573.96C259.94 574.31 261.88 575.71 263.17 575.71C263.9 575.71 264.42 575.27 264.45 573.95C264.46 573.47 262.82 572.46 262.71 571.7C262.62 571.12 262.66 570.69 262.81 570.35L264.76 569.23C264.77 569.23 264.78 569.22 264.79 569.22C265 569.18 265.2 569.15 265.41 569.15C266.3 569.15 267.19 569.53 268.05 569.67C269.26 569.87 269.82 569.96 270.04 569.96C270.59 569.96 269.11 569.43 270.12 568.58C271.28 567.6 271.61 567.35 273.03 567.35C273.3 567.35 273.62 567.35 273.99 567.37C274.55 567.4 275.63 567.68 276.29 567.68C276.42 567.68 276.53 567.67 276.62 567.65C278.89 567.05 277.38 567.67 277.48 566.16C277.55 565.14 276.64 564.4 277.01 563.26C277.43 561.95 278.13 561.57 279.13 561.57C279.59 561.57 280.11 561.65 280.71 561.76C281.7 561.95 282.95 562.38 284.28 562.98C283.91 560.02 284.77 557.56 287.53 557.56C287.58 557.56 287.63 557.56 287.68 557.56C288.45 557.58 289.18 558.98 288.15 559.11C286.02 559.39 286.09 561.91 286.67 564.21C290.2 566.25 293.58 569.24 293.84 572.15C293.87 572.45 293.64 572.73 293.36 572.81C292.94 572.95 292.52 573.01 292.11 573.01C288.82 573.01 285.95 569.09 284.77 565.19C284.29 565.07 283.62 564.95 282.92 564.95C281.62 564.95 280.25 565.34 279.91 566.75C279.91 566.78 280.69 568.68 280.73 569.01C280.78 569.45 280.39 569.69 280.02 569.76C279.89 569.79 279.73 569.8 279.56 569.8C278.87 569.8 277.91 569.61 276.93 569.43C275.94 569.25 274.92 569.07 274.1 569.07C272.86 569.07 272.06 569.48 272.48 570.92C272.57 571.21 272.51 571.55 272.24 571.73C271.76 572.05 271.11 572.13 270.42 572.13C270.13 572.13 269.82 572.12 269.52 572.1C269.22 572.09 268.92 572.08 268.63 572.08C267.5 572.08 266.54 572.28 266.29 573.51C266.05 574.68 268.59 575.88 267.21 577.62C266.79 578.14 266.25 578.32 265.68 578.32C264.77 578.32 263.77 577.88 263.02 577.64C262.35 577.43 261.72 576.78 261.03 576.78C260.92 576.78 260.8 576.8 260.68 576.84C259.53 577.23 260.87 577.7 260.29 578.09C260.05 578.24 259.78 579.05 259.33 579.31C259.13 579.44 258.91 579.48 258.68 579.48C258.48 579.48 258.27 579.44 258.06 579.41C257.85 579.38 257.64 579.35 257.44 579.35C257.43 579.35 257.43 579.35 257.42 579.35C257.42 579.35 257.42 579.35 257.42 579.35C256.93 579.35 256.55 578.63 256.09 578.61C256.07 578.61 256.05 578.61 256.02 578.61C255.31 578.61 254.04 579.13 253.51 579.31C253.21 579.41 250.89 580.49 250.32 580.49C250.2 580.49 250.16 580.45 250.22 580.34C249.68 581.31 251.88 583.06 250.76 584.57C250.28 585.22 249.42 585.44 248.44 585.44ZM250.22 580.34C250.22 580.34 250.22 580.34 250.22 580.34C250.22 580.34 250.22 580.34 250.22 580.34ZM287.54 566.78C287.73 567.22 287.9 567.59 288.04 567.81C288.3 568.27 289.8 570.17 290.22 570.17C290.36 570.17 290.39 569.95 290.2 569.41C290 568.82 288.81 567.72 287.54 566.78Z" />
		<path class="shp12" d="M247.8 579.02C247.7 578.59 247.89 578.15 248.39 578.15C248.41 578.15 248.44 578.15 248.46 578.15C248.55 578.16 248.64 578.16 248.72 578.16C248.96 578.16 249.19 578.14 249.41 578.09L247.8 579.02ZM262.81 570.35C263.09 569.72 263.77 569.45 264.76 569.23L262.81 570.35Z" />
		<path fill-rule="evenodd" class="shp11" d="M280 611.58C279.59 611.58 279.11 611.55 278.54 611.5C277.83 611.44 277.28 610.05 278.22 610.04C281.9 609.96 280.03 606.36 281.04 604.33L283.39 602.98C283.58 602.96 283.78 602.95 283.98 602.95C285.01 602.95 286.16 603.17 287.31 603.4C288.46 603.62 289.6 603.85 290.61 603.85C291.37 603.85 292.06 603.72 292.61 603.37C294.5 602.19 292.19 601.53 293.7 599.63C294.1 599.14 295.19 599.25 295.46 598.88C295.85 598.34 296.07 598.21 296.19 598.21C296.2 598.21 296.21 598.21 296.21 598.22C296.15 598.06 296.06 597.72 295.97 597.02C295.9 596.37 295.63 596.26 295.46 596L297.56 594.79C297.23 596.14 298.55 598.22 298.96 598.97C299.21 599.43 299.12 599.89 298.64 600.12C296.89 600.93 295.53 601.96 296.69 603.84C296.93 604.22 296.89 604.86 296.37 605C295.65 605.2 294.83 605.27 293.97 605.27C292.97 605.27 291.9 605.18 290.84 605.08C289.78 604.99 288.73 604.9 287.74 604.9C285.36 604.9 283.4 605.44 282.83 607.86C282.18 610.63 282.4 611.58 280 611.58ZM295.25 594.76C295.33 592.54 297.75 591.96 300.35 591.81L295.25 594.76ZM298.97 593.98L302.8 591.76C302.91 591.77 303.01 591.77 303.12 591.77C303.33 591.77 303.54 591.77 303.74 591.77C304.36 591.77 304.92 591.76 305.38 591.72C305.51 591.71 305.68 591.71 305.87 591.71C306.37 591.71 307.04 591.74 307.74 591.77C308.45 591.8 309.18 591.82 309.79 591.82C310.46 591.82 310.98 591.79 311.17 591.68C311.34 591.58 311.13 590.5 311.44 590.31C312.12 589.89 316.03 588.57 316.11 588.39C316.29 588 315.08 586.57 315.61 585.54C316.22 584.35 317.79 584.03 319.48 584.03C321.32 584.03 323.32 584.42 324.37 584.46C325.3 584.49 325.73 584.54 325.88 584.57C325.6 584.5 324.62 584.19 324.54 583.2C324.49 582.55 324.11 582.18 324.37 581.31C324.84 579.75 325.98 579.71 327.32 579.59C327.5 579.57 327.68 579.56 327.87 579.56C329.04 579.56 330.27 579.89 331.5 580.36C330.83 578.77 330.52 577.23 330.84 575.93C330.88 575.78 330.91 575.64 330.96 575.51L334.43 573.51C336.4 573.8 338.72 575.13 340.26 575.73C340.86 575.96 341.09 577.11 340.43 577.11C340.36 577.11 340.28 577.1 340.2 577.08C338.67 576.62 336.03 575.22 334.41 575.22C334.27 575.22 334.13 575.23 334.01 575.26C331.43 575.74 333.38 579.57 334.85 581.93C335.97 582.52 337.04 583.1 337.99 583.53C340.31 584.58 343.02 585.47 344.49 587.7C344.64 587.93 344.77 588.15 344.88 588.36L340.69 590.78C340.68 590.77 340.66 590.76 340.65 590.76C338.24 589.5 334.65 585.99 332.51 582.37C331.31 581.85 330.18 581.49 329.31 581.49C329.18 581.49 329.05 581.5 328.94 581.51C324.27 582.17 328.21 583.95 328.72 585.74C328.88 586.29 328.52 586.75 327.97 586.75C327.92 586.75 327.87 586.74 327.81 586.73C326.31 586.5 323.85 585.96 321.84 585.96C319.46 585.96 317.7 586.7 318.85 589.56C318.99 589.9 318.81 590.41 318.43 590.5C317.44 590.72 312.99 591.43 313.49 592.53C313.67 592.95 313.32 593.5 312.86 593.5C312.85 593.5 312.84 593.5 312.83 593.5C311.8 593.45 310.79 593.43 309.77 593.43C307.35 593.43 304.94 593.55 302.53 593.69C302.15 593.71 300.24 593.82 298.97 593.98ZM336.5 584.39C337.58 585.95 338.78 587.93 340.58 588.73C340.82 588.84 342.12 589.3 342.81 589.3C343.21 589.3 343.41 589.14 343.05 588.66C341.92 587.14 340.6 586.44 338.92 585.66C338.3 585.38 337.45 584.91 336.5 584.39ZM343.31 591.49C342.94 591.49 342.53 591.43 342.11 591.33L345.29 589.49C345.52 590.81 344.62 591.49 343.31 591.49Z" />
		<path class="shp12" d="M342.11 591.33C341.65 591.21 341.17 591.02 340.69 590.78L344.88 588.36C345.09 588.78 345.23 589.15 345.29 589.49L342.11 591.33ZM281.04 604.33C281.2 604.02 281.42 603.75 281.74 603.53C282.21 603.2 282.77 603.04 283.39 602.98L281.04 604.33ZM295.46 596C295.41 595.93 295.36 595.83 295.34 595.71C295.26 595.36 295.24 595.05 295.25 594.76L300.35 591.81C301.06 591.77 301.78 591.76 302.46 591.76C302.58 591.76 302.69 591.76 302.8 591.76L298.97 593.98C298.37 594.05 297.91 594.14 297.83 594.23C297.7 594.4 297.61 594.59 297.56 594.79L295.46 596ZM330.96 575.51C331.46 573.98 332.47 573.45 333.68 573.45C333.92 573.45 334.17 573.47 334.43 573.51L330.96 575.51Z" />
		<path fill-rule="evenodd" class="shp11" d="M355.16 568.51C353.06 568.51 350.34 567.48 349.3 567.4C348.57 567.34 347.96 565.79 348.89 565.79C348.9 565.79 348.9 565.79 348.91 565.79L352.74 566.28C356.07 564.85 355.17 563.85 354.56 562.2C354.53 562.11 354.51 562.01 354.5 561.92L355.72 561.22C356.63 561.14 357.43 560.67 358.19 560.21C359.02 559.7 359.79 559.2 360.6 559.2C360.61 559.2 360.63 559.2 360.64 559.2C361.21 559.21 362.99 560.21 363.34 560.21C363.34 560.21 363.34 560.21 363.35 560.21C365.98 560.04 364.7 559.4 364.77 557.59C364.79 557.22 365.12 556.98 365.46 556.98C365.55 556.98 365.63 556.99 365.71 557.02C366.67 557.38 368.6 558.77 369.9 558.77C370.62 558.77 371.15 558.33 371.18 557.01C371.19 556.53 369.55 555.52 369.43 554.76C369.32 554.01 369.42 553.51 369.69 553.15L370.93 552.44C371.11 552.38 371.3 552.33 371.51 552.28C371.72 552.24 371.93 552.22 372.13 552.22C373.03 552.22 373.91 552.6 374.77 552.74C375.98 552.93 376.55 553.02 376.77 553.02C377.31 553.02 375.84 552.49 376.84 551.64C378 550.67 378.34 550.41 379.75 550.41C380.02 550.41 380.34 550.42 380.71 550.43C381.27 550.46 382.35 550.74 383.01 550.74C383.14 550.74 383.25 550.73 383.34 550.71C385.61 550.11 384.1 550.73 384.21 549.23C384.28 548.2 383.36 547.46 383.73 546.32C384.15 545.02 384.85 544.63 385.85 544.63C386.31 544.63 386.84 544.72 387.43 544.83C388.43 545.01 389.68 545.44 391 546.04C390.63 543.08 391.49 540.62 394.25 540.62C394.3 540.62 394.36 540.62 394.41 540.62C395.17 540.65 395.9 542.04 394.88 542.17C392.75 542.45 392.81 544.97 393.39 547.27C396.93 549.31 400.31 552.31 400.56 555.21C400.59 555.52 400.36 555.79 400.09 555.88C399.66 556.01 399.24 556.07 398.83 556.07C395.54 556.07 392.67 552.15 391.5 548.26C391.02 548.13 390.34 548.02 389.65 548.02C388.35 548.02 386.97 548.41 386.64 549.81C386.63 549.84 387.41 551.74 387.45 552.08C387.5 552.51 387.11 552.75 386.75 552.82C386.61 552.85 386.45 552.86 386.28 552.86C385.59 552.86 384.64 552.68 383.65 552.5C382.67 552.31 381.65 552.13 380.82 552.13C379.59 552.13 378.79 552.54 379.21 553.99C379.29 554.28 379.23 554.61 378.97 554.79C378.48 555.12 377.84 555.19 377.14 555.19C376.85 555.19 376.54 555.18 376.24 555.17C375.94 555.15 375.64 555.14 375.35 555.14C374.22 555.14 373.26 555.35 373.01 556.58C372.77 557.74 375.31 558.95 373.93 560.68C373.52 561.2 372.98 561.38 372.4 561.38C371.5 561.38 370.5 560.94 369.74 560.7C369.07 560.49 368.45 559.84 367.76 559.84C367.64 559.84 367.53 559.86 367.41 559.9C366.26 560.3 367.6 560.76 367.01 561.15C366.78 561.3 366.5 562.12 366.06 562.38C365.85 562.5 365.63 562.54 365.41 562.54C365.2 562.54 364.99 562.51 364.79 562.48C364.58 562.44 364.37 562.41 364.16 562.41C364.16 562.41 364.15 562.41 364.15 562.41C364.14 562.41 364.14 562.41 364.14 562.41C363.66 562.41 363.27 561.69 362.81 561.67C362.79 561.67 362.77 561.67 362.75 561.67C362.03 561.67 360.76 562.19 360.24 562.38C359.94 562.48 357.62 563.55 357.04 563.55C356.93 563.55 356.88 563.51 356.94 563.4C356.39 564.36 358.6 566.12 357.48 567.63C357 568.28 356.15 568.51 355.16 568.51ZM394.26 549.85C394.45 550.29 394.63 550.65 394.76 550.88C395.03 551.34 396.53 553.23 396.95 553.23C397.09 553.23 397.11 553.02 396.93 552.47C396.73 551.88 395.53 550.78 394.26 549.85Z" />
		<path class="shp12" d="M354.5 561.92C354.48 561.55 354.68 561.21 355.11 561.21C355.14 561.21 355.16 561.21 355.19 561.22C355.28 561.23 355.36 561.23 355.45 561.23C355.54 561.23 355.63 561.23 355.72 561.22L354.5 561.92ZM369.69 553.15C369.95 552.81 370.37 552.6 370.93 552.44L369.69 553.15Z" />
		<path class="shp11" d="M292.08 650.81C291.67 650.81 291.19 650.78 290.62 650.73C289.91 650.67 289.36 649.29 290.3 649.27C294.54 649.19 291.42 644.42 293.82 642.76C294.44 642.33 295.21 642.18 296.06 642.18C297.1 642.18 298.25 642.41 299.4 642.63C300.54 642.86 301.68 643.08 302.69 643.08C303.45 643.08 304.14 642.95 304.7 642.6C306.58 641.42 304.27 640.76 305.78 638.87C306.18 638.37 307.28 638.49 307.55 638.11C307.93 637.57 308.15 637.45 308.27 637.45C308.28 637.45 308.29 637.45 308.3 637.45C308.23 637.29 308.14 636.95 308.06 636.25C307.96 635.4 307.53 635.47 307.42 634.94C307.31 634.45 307.3 634.01 307.36 633.64L311.77 631.09C312.68 631.01 313.64 631 314.55 631C314.77 631 314.99 631 315.2 631C315.41 631 315.62 631 315.82 631C316.44 631 317 630.99 317.46 630.96C317.59 630.95 317.76 630.94 317.95 630.94C318.45 630.94 319.12 630.97 319.83 631C320.53 631.03 321.26 631.06 321.87 631.06C322.54 631.06 323.06 631.02 323.25 630.91C323.42 630.81 323.21 629.73 323.52 629.54C324.2 629.12 328.11 627.81 328.2 627.63C328.37 627.24 327.16 625.81 327.69 624.78C328.3 623.59 329.87 623.27 331.56 623.27C333.41 623.27 335.41 623.65 336.46 623.69C337.38 623.72 337.81 623.78 337.97 623.8C337.69 623.74 336.7 623.42 336.62 622.43C336.57 621.78 336.2 621.41 336.45 620.55C336.92 618.98 338.07 618.95 339.4 618.82C339.58 618.8 339.77 618.8 339.95 618.8C341.12 618.8 342.35 619.12 343.58 619.59C342.91 618 342.61 616.46 342.92 615.16C343.37 613.3 344.45 612.68 345.76 612.68C347.87 612.68 350.6 614.28 352.35 614.96C352.94 615.2 353.17 616.35 352.51 616.35C352.44 616.35 352.37 616.34 352.28 616.31C350.75 615.85 348.11 614.45 346.5 614.45C346.35 614.45 346.22 614.46 346.09 614.49C343.51 614.97 345.46 618.81 346.93 621.16C348.05 621.75 349.12 622.33 350.07 622.76C352.18 623.72 354.61 624.54 356.14 626.36L354.6 627.25C353.59 626.15 352.43 625.55 351.01 624.9C350.39 624.61 349.53 624.14 348.59 623.62C349.66 625.19 350.86 627.16 352.66 627.97C352.73 628 352.88 628.06 353.08 628.12L351.36 629.12C349.1 627.49 346.35 624.59 344.59 621.6C343.39 621.08 342.26 620.72 341.39 620.72C341.26 620.72 341.14 620.73 341.02 620.75C336.36 621.4 340.29 623.19 340.8 624.97C340.96 625.52 340.6 625.98 340.06 625.98C340 625.98 339.95 625.97 339.89 625.97C338.4 625.73 335.94 625.19 333.92 625.19C331.54 625.19 329.79 625.94 330.93 628.79C331.07 629.13 330.9 629.64 330.51 629.73C329.52 629.95 325.07 630.66 325.57 631.76C325.76 632.19 325.4 632.74 324.94 632.74C324.93 632.74 324.92 632.74 324.91 632.74C323.89 632.69 322.87 632.66 321.85 632.66C319.43 632.66 317.02 632.79 314.61 632.92C314.06 632.95 310.15 633.18 309.92 633.47C308.89 634.71 310.57 637.34 311.04 638.2C311.3 638.66 311.2 639.13 310.72 639.35C308.97 640.16 307.61 641.2 308.78 643.07C309.01 643.46 308.97 644.09 308.46 644.23C307.73 644.43 306.91 644.5 306.05 644.5C305.05 644.5 303.99 644.41 302.93 644.31C301.87 644.22 300.81 644.13 299.83 644.13C297.44 644.13 295.48 644.68 294.91 647.1C294.26 649.86 294.48 650.81 292.08 650.81ZM355.4 630.72C354.61 630.72 353.67 630.48 352.73 629.99C352.65 629.94 352.56 629.9 352.47 629.85L354.75 628.53C354.8 628.53 354.85 628.53 354.89 628.53C355.19 628.53 355.38 628.45 355.31 628.21L356.82 627.34C358.11 629.58 357.11 630.72 355.4 630.72Z" />
		<path class="shp12" d="M352.47 629.85C352.12 629.65 351.74 629.4 351.36 629.12L353.08 628.12C353.54 628.28 354.26 628.49 354.75 628.53L352.47 629.85ZM355.31 628.21C355.28 628.12 355.23 628.02 355.13 627.89C354.96 627.66 354.78 627.44 354.6 627.25L356.14 626.36C356.29 626.54 356.44 626.73 356.57 626.93C356.66 627.07 356.75 627.2 356.82 627.34L355.31 628.21ZM307.36 633.64C307.65 631.89 309.58 631.29 311.77 631.09L307.36 633.64Z" />
		<path fill-rule="evenodd" class="shp11" d="M357.08 611.33C354.98 611.33 352.26 610.29 351.22 610.21C350.64 610.17 350.13 609.17 350.42 608.78L350.69 608.62C350.73 608.62 350.77 608.61 350.81 608.61C350.81 608.61 350.82 608.61 350.83 608.61L354.66 609.1C357.84 607.73 357.16 606.76 356.56 605.23L362.04 602.07C362.2 602.04 362.35 602.01 362.51 602.01C362.53 602.01 362.54 602.01 362.56 602.02C363.13 602.03 364.91 603.02 365.25 603.02C365.26 603.02 365.26 603.02 365.26 603.02C367.9 602.86 366.62 602.22 366.69 600.41C366.7 600.04 367.04 599.8 367.38 599.8C367.46 599.8 367.55 599.81 367.63 599.84C368.59 600.19 370.52 601.59 371.81 601.59C372.54 601.59 373.06 601.15 373.1 599.83C373.11 599.35 371.46 598.34 371.35 597.58C371.3 597.24 371.29 596.96 371.32 596.71L374.21 595.04C375.05 595.08 375.88 595.42 376.69 595.55C377.9 595.75 378.46 595.84 378.69 595.84C379.23 595.84 377.76 595.31 378.76 594.46C379.92 593.49 380.25 593.23 381.67 593.23C381.94 593.23 382.26 593.24 382.63 593.25C383.19 593.28 384.27 593.56 384.93 593.56C385.06 593.56 385.17 593.55 385.26 593.53C387.53 592.93 386.02 593.55 386.12 592.05C386.2 591.02 385.28 590.28 385.65 589.14C385.78 588.73 385.95 588.4 386.14 588.15L387.3 587.49C387.45 587.46 387.61 587.45 387.77 587.45C388.23 587.45 388.76 587.53 389.35 587.65C390.35 587.83 391.6 588.26 392.92 588.86C392.55 585.9 393.41 583.44 396.17 583.44C396.22 583.44 396.28 583.44 396.32 583.44C397.09 583.46 397.82 584.86 396.8 584.99C394.66 585.27 394.73 587.79 395.31 590.09C398.84 592.13 402.22 595.12 402.48 598.03C402.51 598.34 402.28 598.61 402 598.7C401.58 598.83 401.16 598.89 400.75 598.89C397.46 598.89 394.59 594.97 393.41 591.08C392.94 590.95 392.26 590.84 391.56 590.84C390.27 590.84 388.89 591.22 388.56 592.63C388.55 592.66 389.33 594.56 389.37 594.89C389.42 595.33 389.03 595.57 388.66 595.64C388.53 595.67 388.37 595.68 388.2 595.68C387.51 595.68 386.56 595.5 385.57 595.31C384.59 595.13 383.57 594.95 382.74 594.95C381.5 594.95 380.71 595.36 381.13 596.8C381.21 597.09 381.15 597.43 380.89 597.61C380.4 597.94 379.75 598.01 379.06 598.01C378.77 598.01 378.46 598 378.16 597.98C377.86 597.97 377.56 597.96 377.27 597.96C376.14 597.96 375.18 598.16 374.93 599.4C374.69 600.56 377.23 601.76 375.85 603.5C375.44 604.02 374.9 604.2 374.32 604.2C373.41 604.2 372.42 603.76 371.66 603.52C370.99 603.31 370.37 602.66 369.68 602.66C369.56 602.66 369.44 602.68 369.32 602.72C368.17 603.11 369.51 603.58 368.93 603.97C368.7 604.12 368.42 604.93 367.98 605.2C367.77 605.32 367.55 605.36 367.32 605.36C367.12 605.36 366.91 605.33 366.7 605.29C366.5 605.26 366.29 605.23 366.08 605.23C366.08 605.23 366.07 605.23 366.06 605.23C366.06 605.23 366.06 605.23 366.06 605.23C365.57 605.23 365.19 604.51 364.73 604.49C364.71 604.49 364.69 604.49 364.67 604.49C363.95 604.49 362.68 605.01 362.16 605.19C361.86 605.3 359.54 606.37 358.96 606.37C358.85 606.37 358.8 606.33 358.86 606.22C358.31 607.18 360.52 608.94 359.4 610.45C358.92 611.1 358.07 611.33 357.08 611.33ZM396.18 592.66C396.37 593.1 396.55 593.47 396.68 593.7C396.95 594.15 398.44 596.05 398.86 596.05C399.01 596.05 399.03 595.84 398.84 595.29C398.65 594.7 397.45 593.6 396.18 592.66Z" />
		<path class="shp12" d="M350.42 608.78C350.48 608.7 350.57 608.64 350.69 608.62L350.42 608.78ZM356.56 605.23C356.54 605.16 356.51 605.09 356.48 605.02C356.31 604.55 356.49 604.03 357.03 604.03C357.06 604.03 357.08 604.03 357.11 604.04C357.19 604.04 357.28 604.05 357.36 604.05C358.39 604.05 359.28 603.54 360.11 603.03C360.77 602.63 361.4 602.22 362.04 602.07L356.56 605.23ZM371.32 596.71C371.45 595.72 372.21 595.38 373.43 595.1C373.64 595.06 373.84 595.04 374.05 595.04C374.1 595.04 374.16 595.04 374.21 595.04L371.32 596.71ZM386.14 588.15C386.45 587.76 386.84 587.56 387.3 587.49L386.14 588.15Z" />
		<path class="shp11" d="M407.43 582.36C405.32 582.36 402.61 581.33 401.57 581.25C400.84 581.19 400.23 579.65 401.16 579.65C401.16 579.65 401.17 579.65 401.18 579.65L405.01 580.13C408.25 578.74 407.48 577.76 406.88 576.18L412.01 573.21C412.3 573.11 412.58 573.05 412.86 573.05C412.88 573.05 412.89 573.05 412.91 573.05C413.48 573.06 415.26 574.06 415.6 574.06C415.61 574.06 415.61 574.06 415.61 574.06C418.24 573.89 416.97 573.25 417.04 571.45C417.05 571.07 417.38 570.83 417.73 570.83C417.81 570.83 417.9 570.84 417.98 570.87C418.93 571.22 420.87 572.62 422.16 572.62C422.89 572.62 423.41 572.18 423.44 570.86C423.45 570.38 421.81 569.37 421.7 568.61C421.64 568.22 421.64 567.9 421.69 567.63L424.39 566.07C424.39 566.07 424.39 566.07 424.4 566.07C425.29 566.07 426.18 566.45 427.04 566.59C428.25 566.78 428.81 566.87 429.03 566.87C429.57 566.87 428.1 566.34 429.11 565.49C430.27 564.52 430.6 564.26 432.01 564.26C432.29 564.26 432.61 564.27 432.98 564.29C433.54 564.31 434.61 564.59 435.28 564.59C435.41 564.59 435.52 564.58 435.61 564.56C437.87 563.96 436.37 564.59 436.47 563.08C436.54 562.06 435.63 561.31 436 560.18C436.29 559.29 437.47 558.27 438.44 558.27C438.97 558.27 439.43 558.57 439.65 559.36C439.73 559.65 439.72 559.94 439.68 560.24C439.62 560.59 439.51 560.94 439.42 561.29C438.96 563.08 439.51 564.25 439.71 565.93C439.77 566.36 439.38 566.61 439.01 566.68C438.88 566.7 438.72 566.71 438.55 566.71C437.86 566.71 436.9 566.53 435.92 566.35C434.93 566.16 433.91 565.98 433.09 565.98C431.85 565.98 431.05 566.39 431.47 567.84C431.56 568.13 431.5 568.46 431.23 568.64C430.75 568.97 430.1 569.04 429.41 569.04C429.11 569.04 428.81 569.03 428.51 569.02C428.21 569 427.91 568.99 427.61 568.99C426.49 568.99 425.53 569.2 425.28 570.43C425.04 571.59 427.58 572.8 426.2 574.53C425.78 575.05 425.24 575.23 424.66 575.23C423.76 575.23 422.76 574.8 422.01 574.56C421.34 574.34 420.71 573.69 420.02 573.69C419.91 573.69 419.79 573.71 419.67 573.75C418.52 574.15 419.86 574.61 419.28 575C419.04 575.15 418.77 575.97 418.32 576.23C418.12 576.35 417.9 576.39 417.67 576.39C417.47 576.39 417.26 576.36 417.05 576.33C416.84 576.3 416.63 576.26 416.43 576.26C416.42 576.26 416.42 576.26 416.41 576.26C416.41 576.26 416.41 576.26 416.41 576.26C415.92 576.26 415.54 575.54 415.08 575.52C415.06 575.52 415.04 575.52 415.01 575.52C414.3 575.52 413.03 576.05 412.5 576.23C412.2 576.33 409.88 577.4 409.31 577.4C409.19 577.4 409.15 577.36 409.21 577.25C408.66 578.21 410.87 579.97 409.75 581.48C409.26 582.13 408.41 582.36 407.43 582.36Z" />
		<path class="shp12" d="M406.88 576.18C406.86 576.14 406.85 576.1 406.83 576.05C406.66 575.58 406.84 575.06 407.38 575.06C407.4 575.06 407.43 575.07 407.46 575.07C407.54 575.08 407.63 575.08 407.71 575.08C408.74 575.08 409.62 574.57 410.45 574.06C410.99 573.74 411.5 573.41 412.01 573.21L406.88 576.18ZM421.69 567.63C421.85 566.72 422.6 566.4 423.78 566.14C423.99 566.09 424.19 566.07 424.39 566.07L421.69 567.63Z" />
		<path class="shp13" d="M174.62 118.12C184.32 129.72 200.36 145.39 209.46 156.81C214.23 162.81 216.94 170.24 216.83 177.91C216.75 183.6 215.21 188.34 209.65 185.92C205.63 184.17 203.08 182.09 197.21 176.31C191.94 171.11 166.44 147.21 166.44 147.21C166.44 147.21 161.66 117.84 153.78 115.45C145.9 113.06 139.19 100.49 139.19 100.49C152.05 99.19 162.3 103.4 174.62 118.12Z" />
		<path class="shp14" d="M263.36 421.4L308.92 488.1C310.25 490.04 313.27 489.19 313.4 486.85L317.85 405.73L263.36 421.4Z" />
		<path class="shp10" d="M313.4 486.85C313.27 489.19 310.25 490.04 308.92 488.1L300.03 475.08C305 476.2 310.19 474.46 313.46 470.56L314.35 469.49L313.4 486.85Z" />
		<path class="shp2" d="M226.3 77.54L228.3 84.74L230.76 93.42L317.85 405.72C313.9 413.92 306.26 419.63 297.82 422.9C284.99 427.92 270.24 427.32 263.4 421.39L176.95 111.39L172.32 94.78C175.92 105.37 229.76 88.21 226.3 77.54Z" />
		<path class="shp7" d="M234.03 104.93L238.49 121.02C239.94 125.64 230.83 131.39 219.65 135.61C204.81 141.25 186.32 144.19 184.39 138.07L181.09 126.22L179.98 121.96C181.91 128.08 200.4 125.15 215.24 119.51C225.95 115.45 234.78 109.94 234.13 105.44L234.12 105.39L234.03 104.93Z" />
		<path class="shp2" d="M235.11 108.95C238.49 119.68 184.43 136.72 181.05 125.99L176.53 109.9C179.92 120.63 233.97 103.59 230.59 92.86L235.11 108.95Z" />
		<path class="shp7" d="M226.3 77.54L230.76 93.42C234.15 103.93 182.13 120.89 176.95 111.39C176.84 111.24 176.76 111.03 176.69 110.81L172.32 94.78C175.92 105.37 229.76 88.21 226.3 77.54Z" />
		<path class="shp15" d="M263.36 421.4L263.4 421.39L263.36 421.4Z" />
		<path class="shp16" d="M303.04 475.41C302.04 475.41 301.03 475.3 300.03 475.08L263.36 421.4L263.4 421.39C267.15 424.64 273.27 426.29 280.15 426.29C282.55 426.29 285.04 426.09 287.56 425.69L304.55 475.33C304.05 475.39 303.55 475.41 303.04 475.41Z" />
		<path class="shp17" d="M308.92 488.1L300.03 475.08C301.03 475.3 302.04 475.41 303.04 475.41C303.55 475.41 304.05 475.39 304.55 475.33L308.92 488.1Z" />
		<path class="shp3" d="M280.15 426.29C273.27 426.29 267.15 424.64 263.4 421.39L263.4 421.39L263.4 421.39L184.39 138.07C185.15 140.47 188.44 141.48 193.06 141.48C197.72 141.48 203.74 140.45 209.85 138.79L287.55 425.68L287.56 425.69C285.04 426.09 282.55 426.29 280.15 426.29ZM183.4 134.52L176.95 111.39C176.95 111.39 176.95 111.39 176.95 111.39L180.78 125.06L181.09 126.22L183.4 134.52Z" />
		<path class="shp18" d="M193.06 141.48C188.44 141.48 185.15 140.47 184.39 138.07L183.4 134.52L181.09 126.22L180.78 125.06L181.05 125.99C181.8 128.4 185.1 129.41 189.72 129.41C194.4 129.41 200.44 128.37 206.57 126.7L209.85 138.79C203.74 140.45 197.72 141.48 193.06 141.48Z" />
		<path fill-rule="evenodd" class="shp19" d="M180.9 98.1C177.09 98.1 174.19 97.41 172.89 95.8C174.18 97.41 177.08 98.1 180.88 98.1C185.63 98.1 191.8 97.02 198.06 95.28L198.06 95.29C191.81 97.02 185.65 98.1 180.9 98.1ZM172.88 95.8C172.88 95.79 172.87 95.78 172.87 95.78C172.87 95.78 172.88 95.79 172.88 95.8ZM172.86 95.77C172.86 95.76 172.85 95.76 172.85 95.76C172.85 95.76 172.86 95.76 172.86 95.77ZM172.84 95.74C172.83 95.73 172.83 95.73 172.83 95.73C172.83 95.73 172.83 95.74 172.84 95.74Z" />
		<path class="shp3" d="M189.72 129.41C185.1 129.41 181.8 128.4 181.05 125.99L180.78 125.06L176.95 111.39C178.02 113.35 181.07 114.18 185.21 114.18C189.96 114.18 196.14 113.09 202.41 111.33L206.57 126.7C200.44 128.37 194.4 129.41 189.72 129.41Z" />
		<path class="shp18" d="M185.21 114.18C181.07 114.18 178.02 113.35 176.95 111.39C176.95 111.39 176.95 111.39 176.95 111.39L172.32 94.78C172.44 95.13 172.61 95.44 172.83 95.73C172.83 95.73 172.83 95.73 172.84 95.74C172.84 95.74 172.85 95.75 172.85 95.76C172.85 95.76 172.86 95.76 172.86 95.77C172.86 95.77 172.86 95.77 172.87 95.78C172.87 95.78 172.88 95.79 172.88 95.8C172.88 95.8 172.89 95.8 172.89 95.8C174.19 97.41 177.09 98.1 180.9 98.1C185.65 98.1 191.81 97.02 198.07 95.29L202.41 111.33C196.14 113.09 189.96 114.18 185.21 114.18Z" />
		<path class="shp13" d="M207.43 10.13L226.3 77.54C227.78 82.1 218.8 87.85 207.73 92.09C192.9 97.78 174.36 100.85 172.32 94.78L172.28 94.71L154.14 29.87C148.66 15.1 175.45 0.57 193.31 1.69C200 2.05 205.38 4.6 207.43 10.13Z" />
		<path class="shp10" d="M128.33 89.77C107.29 89.77 90.23 72.71 90.23 51.66L90.23 49.56C90.23 31.72 104.69 17.26 122.52 17.26L134.14 17.26C151.98 17.26 166.44 31.72 166.44 49.56L166.44 51.66C166.44 72.71 149.38 89.77 128.33 89.77ZM74.76 93.64C84.32 93.64 92.06 85.89 92.06 76.33L92.06 41.92C82.51 41.92 74.76 49.67 74.76 59.23L74.76 93.64ZM167.55 466.69C171.97 471.54 176.85 475.42 182.09 479.34C182.87 479.93 183.68 480.55 184.11 481.43C184.79 482.85 185.86 486.38 179.36 488.65C173.01 490.87 165.08 490.35 159.3 486.73C153.96 483.39 153.72 476.43 148.68 472.47C144.95 469.53 140.29 468.78 137.27 464.94C135.17 462.27 135.72 458.71 136.81 454.31C138.01 449.5 138.56 445.86 140.15 446.23L139.89 448.44C141.87 451.61 152.16 452.55 156.74 450.36C156.74 450.36 164.66 463.53 167.55 466.69Z" />
		<path class="shp14" d="M172.06 471.19L172.06 471.15C170.51 469.74 169 468.28 167.55 466.69C165.69 464.65 161.73 458.46 159.15 454.31C157.59 451.79 155.65 448.61 155.57 445.27C155.46 441.02 155.87 433.46 155.87 433.46L140.63 432.46L139.89 448.44L139.89 448.44C139.49 452.06 142.49 455.28 147.79 459.85C153.09 464.42 159.83 475.08 164.63 477.76C169.43 480.44 172.87 480.34 174.92 478.97C177.02 477.56 177.23 476.47 172.06 471.19Z" />
		<path class="shp10" d="M116.82 481.93C121.24 486.77 126.12 490.65 131.35 494.57C132.14 495.16 132.95 495.78 133.37 496.66C134.06 498.08 135.13 501.61 128.62 503.88C122.27 506.1 114.35 505.58 108.56 501.96C103.22 498.62 102.99 491.66 97.95 487.7C94.22 484.76 89.55 484.01 86.54 480.17C84.44 477.5 84.98 473.94 86.08 469.54C87.28 464.73 87.83 461.09 89.42 461.46L89.16 463.67C91.14 466.84 101.43 467.78 106.01 465.59C106.01 465.59 113.93 478.76 116.82 481.93Z" />
		<path class="shp14" d="M121.33 486.42L121.33 486.39C119.78 484.97 118.27 483.51 116.82 481.92C114.96 479.88 111 473.69 108.42 469.55C106.85 467.03 105.1 463.68 104.85 460.35C104.58 456.61 104.77 448.85 104.77 448.85L89.54 448.94L89.15 463.67L89.15 463.67C88.76 467.29 91.75 470.51 97.06 475.08C102.36 479.65 109.1 490.31 113.9 492.99C118.7 495.67 122.13 495.57 124.18 494.2C126.29 492.79 126.5 491.7 121.33 486.42Z" />
		<path class="shp20" d="M89.35 202.03C76.07 231.04 91.17 341.02 91.17 341.02C90.77 345.73 86.62 353.04 86.14 367.42C85.51 385.87 88.79 454.02 88.79 454.02C88.79 454.02 96.79 458.87 106.17 454.37C106.17 454.37 121.89 361.86 124.96 337.52C127.64 316.28 132.78 266.36 132.78 266.36L143.36 337.41C143.36 337.41 137.93 349.27 137.64 359.97C137.27 374.35 139.39 441.08 139.39 441.08C139.39 441.08 145.82 443.33 157.04 441.68C157.04 441.68 173.04 351.39 174.54 334.16C175.44 323.87 167.75 197.69 167.75 197.69L89.35 202.03Z" />
		<path class="shp10" d="M132.78 266.36L137.1 242.64C137.1 242.64 155.34 238.86 163.61 231.08C163.61 231.08 154.93 241.88 142.04 245.42L137.2 266.16L141.98 328.15L132.78 266.36Z" />
		<path class="shp21" d="M115.27 101.16L115.27 101.16C103.62 102.77 97.37 105.34 93.61 116.29C91.15 123.46 91.81 134 94.29 141.16L104.47 170.92C104.47 170.92 94.43 186.57 89.35 202.03C119.12 218.65 158.8 209.81 167.75 197.69C168.13 195.11 165.72 182.68 166.44 169.49C167.21 155.42 169.47 139.26 167.25 130.57C163.15 114.43 151.88 103.89 139.19 100.49L115.27 101.16Z" />
		<path class="shp14" d="M153.92 32.67C157.95 35.05 162.92 45.18 162.43 66.4C162.01 84.38 156.18 88.83 153.26 90.11C150.33 91.39 144.68 90.61 139.19 89.69L139.19 100.49C139.19 100.49 146.78 109.3 146.3 114.25C145.83 119.2 135.35 120.37 128.25 115.53C121.15 110.7 116.6 103.34 116.6 103.34L116.6 77.24C116.6 77.24 112.9 82.19 106.84 78.17C100.78 74.14 100.55 64.18 104.07 60.6C107.59 57.03 115.19 58.16 116.6 63.1C116.6 63.1 125.36 63.42 137.01 57.02C148.67 50.62 153.15 39.65 153.92 32.67Z" />
		<path class="shp10" d="M142.35 61.88C142.41 63.17 141.45 64.27 140.21 64.33C138.96 64.39 137.9 63.39 137.83 62.09C137.77 60.8 138.72 59.7 139.97 59.64C141.22 59.58 142.28 60.58 142.35 61.88Z" />
		<path class="shp13" d="M142.95 77.12L148.2 78.8C147.77 80.3 146.24 81.15 144.79 80.68C143.34 80.22 142.52 78.63 142.95 77.12Z" />
		<path class="shp10" d="M160.89 54.93L156.32 51.76C157.15 50.46 158.85 50.11 160.12 50.98C161.38 51.86 161.73 53.63 160.89 54.93ZM159.84 60.24C159.9 61.54 158.94 62.64 157.7 62.7C156.45 62.76 155.38 61.75 155.32 60.46C155.25 59.16 156.21 58.06 157.46 58C158.71 57.94 159.77 58.95 159.84 60.24Z" />
		<path class="shp13" d="M149.17 58.95L149.53 72.56L156.69 70.34L149.17 58.95ZM139.19 89.69C133.41 88.93 121.51 85.52 119.66 80.81C119.66 80.81 120.27 83.77 123.83 86.81C127.38 89.86 139.19 93.29 139.19 93.29L139.19 89.69Z" />
		<path class="shp14" d="M230.73 188.82C227.2 190.16 223.65 190.25 218.83 192.53C214.57 194.53 212.79 195.28 208.41 195.5C203.67 195.72 190.41 190.07 178.75 184.65C164.99 178.25 150.36 166.67 144.73 160.31C133.3 147.4 123.54 131.25 118.5 122.62C114.35 115.51 110.08 105.19 103.53 103.89C92.06 105.09 87.41 125.05 94.85 137.39C102.28 149.73 115.5 165.86 129.6 179.53C136.43 186.16 148.96 193.34 166.88 201.01C180.41 206.79 191.26 210.39 203.08 213.47C206.67 214.4 209.2 215.74 215.94 218.05C218.66 218.98 221.61 220.09 224.48 220.17C228.13 220.26 231.8 219.95 235.33 219.01C239.77 217.82 243.99 215.6 247.2 212.3C248.96 210.49 250.42 208.33 251.17 205.91C251.92 203.49 251.92 200.8 250.91 198.48C250.71 198.01 250.45 197.54 250.04 197.23C249.3 196.68 248.27 196.78 247.36 196.92C242.23 197.66 236.82 199.23 231.66 199.42C227.31 199.59 224.21 199.11 224.76 198.43C225.31 197.75 227.87 197.83 231.18 195.96C234.34 194.17 236.37 190.53 235.23 188.84C234.08 187.14 234.27 187.49 230.73 188.82ZM240.38 140.7C240.38 140.7 235.64 136.93 226.63 138.41C222.27 139.13 223.94 155.63 237.96 160.22C247.09 163.21 248.94 161.67 251.89 169.18C251.89 169.18 257.39 168.04 256.05 159.65C254.71 151.25 251.05 143.6 244.94 136.38C240.91 131.64 240.65 127.64 238.67 128.99C236.44 130.52 237.81 134.44 237.81 134.44L240.38 140.7Z" />
		<path class="shp10" d="M819.8 229.93C786.31 217.6 732.92 217.6 700.55 229.93C668.17 242.26 668.17 262.25 700.55 274.59C732.92 286.92 786.31 286.91 819.8 274.58C853.29 262.25 853.29 242.26 819.8 229.93Z" />
		<path class="shp8" d="M847.57 175.71L673.61 175.9L686.8 380.85L686.96 380.85C687.79 388.32 694.76 395.68 708.05 401.38C736.38 413.54 783.1 413.54 812.4 401.38C826.15 395.68 833.36 388.32 834.21 380.85L834.38 380.85L847.57 175.71Z" />
		<path class="shp0" d="M673.61 175.9L676.29 217.53C680.29 220.3 685.06 222.93 690.82 225.32C728.44 240.89 790.48 240.89 829.39 225.31C831.07 224.64 832.47 223.91 833.99 223.2C840.2 220.27 844.91 217.06 844.91 217.06L847.57 175.71L673.61 175.9Z" />
		<path class="shp2" d="M858.57 181.77L858.57 150.44L838.3 150.44C835.59 149.01 832.64 147.64 829.39 146.34C790.48 130.76 728.44 130.76 690.82 146.34C687.69 147.63 684.92 149.02 682.31 150.44L662.61 150.44L662.61 181.77C662.61 191.98 672.02 202.19 690.82 209.98C728.44 225.56 790.48 225.56 829.39 209.98C848.84 202.19 858.57 191.98 858.57 181.77ZM829.39 122.23C790.48 106.66 728.44 106.65 690.82 122.23C653.21 137.81 653.21 163.07 690.82 178.64C728.44 194.22 790.48 194.22 829.39 178.64C868.3 163.07 868.3 137.81 829.39 122.23Z" />
		<path class="shp22" d="M759.62 190.33C734.55 190.33 709.63 186.43 690.82 178.64C672.02 170.86 662.61 160.65 662.61 150.44C662.61 140.23 672.02 130.02 690.82 122.23C691.59 121.92 692.36 121.61 693.14 121.3L687.56 141.62L687.57 141.62C684.65 149.76 691.5 158.3 708.12 164.55C722.26 169.87 741 172.53 759.86 172.53C778.72 172.53 797.7 169.87 812.33 164.55C829.53 158.3 836.6 149.76 833.59 141.62L833.59 141.62L828.15 121.75C828.56 121.91 828.97 122.07 829.39 122.23C848.84 130.02 858.57 140.23 858.57 150.44C858.57 160.65 848.84 170.86 829.39 178.64C809.93 186.43 784.7 190.33 759.62 190.33Z" />
		<path class="shp2" d="M833.59 141.62L833.59 141.62L825.75 112.98L695.42 112.98L687.56 141.62L687.57 141.62C684.65 149.76 691.5 158.3 708.12 164.55C736.41 175.19 783.07 175.19 812.33 164.55C829.53 158.3 836.6 149.76 833.59 141.62ZM806.6 98.4C780.58 88.94 739.09 88.94 713.93 98.4C688.78 107.86 688.78 123.2 713.93 132.67C739.09 142.13 780.58 142.13 806.6 132.67C832.62 123.2 832.62 107.86 806.6 98.4Z" />
		<path fill-rule="evenodd" class="shp22" d="M759.94 139.76C743.17 139.76 726.51 137.4 713.93 132.67C701.35 127.93 695.06 121.73 695.06 115.53C695.06 109.33 701.35 103.13 713.93 98.4C726.51 93.67 743.17 91.3 759.94 91.3C776.71 91.3 793.59 93.67 806.6 98.4C819.61 103.13 826.11 109.33 826.11 115.53C826.11 121.73 819.61 127.93 806.6 132.67C793.59 137.4 776.71 139.76 759.94 139.76ZM706.77 118.8C708.66 120.33 711.9 122.31 717.08 124.25C728.11 128.39 743.74 130.78 759.95 130.78C776.16 130.78 792.05 128.35 803.54 124.2C808.81 122.27 812.18 120.33 814.21 118.8C816.37 117.13 817.05 115.92 817.09 115.56C817.05 114.75 814.34 110.79 803.54 106.87C792.05 102.68 776.16 100.29 759.95 100.29C743.74 100.29 728.11 102.68 717.08 106.82C706.32 110.88 704.07 114.88 704.07 115.51C704.07 115.83 704.65 117.09 706.77 118.8Z" />
		<path class="shp2" d="M817.09 115.56C817.05 115.92 816.37 117.13 814.21 118.8C812.18 120.33 808.81 122.27 803.54 124.2C792.05 128.35 776.16 130.78 759.95 130.78C743.74 130.78 728.11 128.39 717.08 124.25C711.9 122.31 708.66 120.33 706.77 118.8C704.65 117.09 704.07 115.83 704.07 115.51C704.07 114.88 706.32 110.88 717.08 106.82C728.11 102.68 743.74 100.29 759.95 100.29C776.16 100.29 792.05 102.68 803.54 106.87C814.34 110.79 817.05 114.75 817.09 115.56Z" />
		<path class="shp3" d="M759.95 130.78C743.74 130.78 728.11 128.39 717.08 124.25C711.9 122.31 708.66 120.33 706.77 118.8C708.66 117.27 711.9 115.29 717.08 113.35C728.11 109.21 743.74 106.82 759.95 106.82C776.16 106.82 792.05 109.21 803.54 113.4C808.81 115.33 812.18 117.22 814.21 118.8C812.18 120.33 808.81 122.27 803.54 124.2C792.05 128.35 776.16 130.78 759.95 130.78Z" />
		<path class="shp10" d="M788.14 119.39C791.92 117.24 796.54 116.36 798.43 117.43C800.33 118.49 798.79 121.12 795 123.3C791.21 125.47 786.6 126.35 784.7 125.26C782.81 124.16 784.35 121.53 788.14 119.39Z" />
		<path class="shp23" d="M681.15 326.52C681.15 334.14 688.77 341.75 704.02 347.56C734.52 359.17 784.82 359.17 816.37 347.55C832.12 341.76 840 334.16 840.03 326.56L844.91 252.26C844.91 260.34 836.54 268.42 819.8 274.58C786.31 286.91 732.92 286.92 700.55 274.59C684.36 268.42 676.27 260.34 676.27 252.26L681.15 326.52Z" />
		<path class="shp10" d="M750.05 330.91C747.21 327.11 745.65 322.43 743.36 318.3C738.79 310.09 732.27 304.51 723.93 301.19C722.81 300.75 721.43 301.21 720.9 302.29C716.68 310.89 719.27 322.93 728.01 331.67C736.67 340.33 748.59 343.01 757.18 338.97C757.66 338.74 757.8 337.79 757.4 337.56C754.64 335.95 752.17 333.78 750.05 330.91ZM728.58 298.84C733.09 300.55 737.3 303.26 740.84 306.37C744.62 309.7 747.55 313.95 749.7 318.51C752.96 325.44 756.08 329.72 760.86 333.29C761.9 334.06 763.49 333.85 764.2 332.77C769.92 324.13 767.65 310.89 758.23 301.46C749.3 292.53 736.9 289.97 728.27 294.57C726.54 295.5 726.75 298.14 728.58 298.84Z" />
	</g>
</svg>